SplineFontDB: 1.0
FontName: DejaVuSansCondensed-Bold
FullName: DejaVu Sans Condensed Bold
FamilyName: DejaVu Sans Condensed
Weight: Bold
Copyright: Copyright (c) 2003 by Bitstream, Inc. All Rights Reserved.\nCopyright (c) 2006 by Tavmjong Bah. All Rights Reserved.\nDejaVu changes are in public domain\n
Version: 2.11
ItalicAngle: 0
UnderlinePosition: -85
UnderlineWidth: 90
Ascent: 1556
Descent: 492
Order2: 1
NeedsXUIDChange: 1
FSType: 0
OS2Version: 0
OS2_WeightWidthSlopeOnly: 0
OS2_UseTypoMetrics: 0
PfmFamily: 17
TTFWeight: 700
TTFWidth: 5
LineGap: 0
VLineGap: 0
Panose: 2 11 8 6 3 6 4 2 2 4
OS2TypoAscent: 1556
OS2TypoAOffset: 0
OS2TypoDescent: -492
OS2TypoDOffset: 0
OS2TypoLinegap: 410
OS2WinAscent: 1901
OS2WinAOffset: 0
OS2WinDescent: 483
OS2WinDOffset: 0
HheadAscent: 1901
HheadAOffset: 0
HheadDescent: -483
HheadDOffset: 0
OS2Vendor: 'PfEd'
ScriptLang: 10
 4 cyrl 1 dflt grek 1 dflt lao  1 dflt latn 1 dflt 
 1 DFLT 1 dflt 
 1 latn 1 dflt 
 1 armn 1 dflt 
 1 arab 1 dflt 
 1 latn 1 DNK  
 1 grek 1 dflt 
 1 hebr 1 dflt 
 2 arab 1 dflt hebr 1 dflt 
 1 cyrl 2 MKD  SRB  
ChainSub: class 0 0 'ccmp' 4 4 4 2
  Class: 19 i j uni0268 uni029D
  Class: 181 gravecomb acutecomb uni0302 tildecomb uni0304 uni0305 uni0306 uni0307 uni0308 uni030A uni030B uni030C uni030D uni030E uni030F uni0310 uni0311 uni0312 uni0313 uni0314 uni033D uni033E

StartChar: .notdef
Encoding: 0 -1 0
AltUni: 0
Width: 1106
Flags: W
Fore
91.7998 -362 m 1,0,-1
 91.7998 1444 l 1,1,-1
 1013.4 1444 l 1,2,-1
 1013.4 -362 l 1,3,-1
 91.7998 -362 l 1,0,-1
195.3 -248 m 1,4,-1
 910.8 -248 l 1,5,-1
 910.8 1329 l 1,6,-1
 195.3 1329 l 1,7,-1
 195.3 -248 l 1,4,-1
EndSplineSet
EndChar
StartChar: exclam
Encoding: 33 33 33
Width: 840
Flags: W
Fore
258.3 1493 m 1,0,-1
 582.3 1493 l 1,1,-1
 582.3 920 l 1,2,-1
 536.4 502 l 1,3,-1
 304.2 502 l 1,4,-1
 258.3 920 l 1,5,-1
 258.3 1493 l 1,0,-1
258.3 356 m 1,6,-1
 582.3 356 l 1,7,-1
 582.3 0 l 1,8,-1
 258.3 0 l 1,9,-1
 258.3 356 l 1,6,-1
EndSplineSet
EndChar
StartChar: quotedbl
Encoding: 34 34 34
Width: 960
Flags: W
Fore
784.8 1493 m 1,0,-1
 784.8 938 l 1,1,-1
 571.5 938 l 1,2,-1
 571.5 1493 l 1,3,-1
 784.8 1493 l 1,0,-1
388.8 1493 m 1,4,-1
 388.8 938 l 1,5,-1
 175.5 938 l 1,6,-1
 175.5 1493 l 1,7,-1
 388.8 1493 l 1,4,-1
EndSplineSet
EndChar
StartChar: numbersign
Encoding: 35 35 35
Width: 1544
Flags: W
Fore
819.9 1470 m 1,0,-1
 733.5 1085 l 1,1,-1
 971.1 1085 l 1,2,-1
 1058.4 1470 l 1,3,-1
 1257.3 1470 l 1,4,-1
 1170 1085 l 1,5,-1
 1419.3 1085 l 1,6,-1
 1419.3 872 l 1,7,-1
 1122.3 872 l 1,8,-1
 1060.2 598 l 1,9,-1
 1315.8 598 l 1,10,-1
 1315.8 383 l 1,11,-1
 1013.4 383 l 1,12,-1
 927 0 l 1,13,-1
 728.1 0 l 1,14,-1
 814.5 383 l 1,15,-1
 576.9 383 l 1,16,-1
 490.5 0 l 1,17,-1
 289.8 0 l 1,18,-1
 376.2 383 l 1,19,-1
 125.1 383 l 1,20,-1
 125.1 598 l 1,21,-1
 420.3 598 l 1,22,-1
 483.3 872 l 1,23,-1
 228.6 872 l 1,24,-1
 228.6 1085 l 1,25,-1
 532.8 1085 l 1,26,-1
 619.2 1470 l 1,27,-1
 819.9 1470 l 1,0,-1
921.6 872 m 1,28,-1
 684 872 l 1,29,-1
 621 598 l 1,30,-1
 858.6 598 l 1,31,-1
 921.6 872 l 1,28,-1
EndSplineSet
EndChar
StartChar: dollar
Encoding: 36 36 36
Width: 1282
Flags: W
Fore
715.5 -301 m 1,0,-1
 569.7 -301 l 1,1,-1
 568.8 0 l 1,2,3
 456.3 5 456.3 5 351 28 c 128,-1,4
 245.7 51 245.7 51 145.8 92 c 1,5,-1
 145.8 354 l 1,6,7
 249.3 295 249.3 295 355.05 263.5 c 128,-1,8
 460.8 232 460.8 232 569.7 228 c 1,9,-1
 569.7 539 l 1,10,-1
 540 545 l 2,11,12
 324.9 587 324.9 587 234.45 677 c 128,-1,13
 144 767 144 767 144 936 c 0,14,15
 144 1115 144 1115 254.25 1215.5 c 128,-1,16
 364.5 1316 364.5 1316 568.8 1325 c 1,17,-1
 569.7 1556 l 1,18,-1
 715.5 1556 l 1,19,-1
 715.5 1329 l 1,20,21
 805.5 1321 805.5 1321 895.5 1304 c 128,-1,22
 985.5 1287 985.5 1287 1076.4 1260 c 1,23,-1
 1076.4 1006 l 1,24,25
 986.4 1048 986.4 1048 896.4 1071.5 c 128,-1,26
 806.4 1095 806.4 1095 715.5 1100 c 1,27,-1
 715.5 813 l 1,28,-1
 744.3 807 l 2,29,30
 972.9 767 972.9 767 1065.15 673.5 c 128,-1,31
 1157.4 580 1157.4 580 1157.4 397 c 0,32,33
 1157.4 213 1157.4 213 1047.6 114.5 c 128,-1,34
 937.8 16 937.8 16 715.5 2 c 1,35,-1
 715.5 -301 l 1,0,-1
569.7 836 m 1,36,-1
 569.7 1097 l 1,37,38
 505.8 1093 505.8 1093 467.55 1058.5 c 128,-1,39
 429.3 1024 429.3 1024 429.3 971 c 0,40,41
 429.3 912 429.3 912 464.4 878.5 c 128,-1,42
 499.5 845 499.5 845 569.7 836 c 1,36,-1
715.5 510 m 1,43,-1
 715.5 232 l 1,44,45
 793.8 233 793.8 233 832.95 266 c 128,-1,46
 872.1 299 872.1 299 872.1 365 c 0,47,48
 872.1 433 872.1 433 836.1 466.5 c 128,-1,49
 800.1 500 800.1 500 715.5 510 c 1,43,-1
EndSplineSet
EndChar
StartChar: percent
Encoding: 37 37 37
Width: 1846
Flags: W
Fore
1428.3 616 m 0,0,1
 1364.4 616 1364.4 616 1329.3 554.5 c 128,-1,2
 1294.2 493 1294.2 493 1294.2 379 c 0,3,4
 1294.2 264 1294.2 264 1328.85 202.5 c 128,-1,5
 1363.5 141 1363.5 141 1428.3 141 c 0,6,7
 1493.1 141 1493.1 141 1527.3 202.5 c 128,-1,8
 1561.5 264 1561.5 264 1561.5 379 c 0,9,10
 1561.5 493 1561.5 493 1526.85 554.5 c 128,-1,11
 1492.2 616 1492.2 616 1428.3 616 c 0,0,1
1428.3 784 m 0,12,13
 1595.7 784 1595.7 784 1692 676 c 128,-1,14
 1788.3 568 1788.3 568 1788.3 379 c 0,15,16
 1788.3 190 1788.3 190 1692 80.5 c 128,-1,17
 1595.7 -29 1595.7 -29 1428.3 -29 c 0,18,19
 1260.9 -29 1260.9 -29 1164.15 80.5 c 128,-1,20
 1067.4 190 1067.4 190 1067.4 379 c 0,21,22
 1067.4 567 1067.4 567 1164.15 675.5 c 128,-1,23
 1260.9 784 1260.9 784 1428.3 784 c 0,12,13
603 -29 m 1,24,-1
 404.1 -29 l 1,25,-1
 1243.8 1520 l 1,26,-1
 1443.6 1520 l 1,27,-1
 603 -29 l 1,24,-1
418.5 1520 m 0,28,29
 585.9 1520 585.9 1520 681.75 1411.5 c 128,-1,30
 777.6 1303 777.6 1303 777.6 1114 c 0,31,32
 777.6 925 777.6 925 681.75 816 c 128,-1,33
 585.9 707 585.9 707 418.5 707 c 0,34,35
 251.1 707 251.1 707 155.25 816 c 128,-1,36
 59.4004 925 59.4004 925 59.4004 1114 c 0,37,38
 59.4004 1303 59.4004 1303 155.25 1411.5 c 128,-1,39
 251.1 1520 251.1 1520 418.5 1520 c 0,28,29
418.5 1352 m 0,40,41
 353.7 1352 353.7 1352 318.6 1290 c 128,-1,42
 283.5 1228 283.5 1228 283.5 1114 c 0,43,44
 283.5 999 283.5 999 318.6 936.5 c 128,-1,45
 353.7 874 353.7 874 418.5 874 c 0,46,47
 483.3 874 483.3 874 517.95 936.5 c 128,-1,48
 552.6 999 552.6 999 552.6 1114 c 0,49,50
 552.6 1228 552.6 1228 517.5 1290 c 128,-1,51
 482.4 1352 482.4 1352 418.5 1352 c 0,40,41
EndSplineSet
EndChar
StartChar: ampersand
Encoding: 38 38 38
Width: 1607
Flags: W
Fore
719.1 991 m 2,0,-1
 1087.2 541 l 1,1,2
 1134.9 611 1134.9 611 1159.65 698 c 128,-1,3
 1184.4 785 1184.4 785 1188.9 895 c 1,4,-1
 1468.8 895 l 1,5,6
 1455.3 713 1455.3 713 1405.35 571 c 128,-1,7
 1355.4 429 1355.4 429 1266.3 322 c 1,8,-1
 1530 0 l 1,9,-1
 1148.4 0 l 1,10,-1
 1060.2 109 l 1,11,12
 965.7 39 965.7 39 861.3 5 c 128,-1,13
 756.9 -29 756.9 -29 639.9 -29 c 0,14,15
 403.2 -29 403.2 -29 256.95 109.5 c 128,-1,16
 110.7 248 110.7 248 110.7 467 c 0,17,18
 110.7 613 110.7 613 175.05 725.5 c 128,-1,19
 239.4 838 239.4 838 385.2 944 c 1,20,21
 347.4 997 347.4 997 329.4 1050 c 128,-1,22
 311.4 1103 311.4 1103 311.4 1161 c 0,23,24
 311.4 1324 311.4 1324 425.7 1422 c 128,-1,25
 540 1520 540 1520 729.9 1520 c 0,26,27
 811.8 1520 811.8 1520 900.45 1505.5 c 128,-1,28
 989.1 1491 989.1 1491 1085.4 1462 c 1,29,-1
 1085.4 1184 l 1,30,31
 1000.8 1232 1000.8 1232 925.2 1255 c 128,-1,32
 849.6 1278 849.6 1278 777.6 1278 c 0,33,34
 708.3 1278 708.3 1278 670.05 1248.5 c 128,-1,35
 631.8 1219 631.8 1219 631.8 1165 c 0,36,37
 631.8 1131 631.8 1131 653.85 1087.5 c 128,-1,38
 675.9 1044 675.9 1044 719.1 991 c 2,0,-1
540 743 m 1,39,40
 481.5 696 481.5 696 451.8 636.5 c 128,-1,41
 422.1 577 422.1 577 422.1 506 c 0,42,43
 422.1 391 422.1 391 498.6 310 c 128,-1,44
 575.1 229 575.1 229 682.2 229 c 0,45,46
 742.5 229 742.5 229 794.7 249.5 c 128,-1,47
 846.9 270 846.9 270 891.9 311 c 1,48,-1
 540 743 l 1,39,40
EndSplineSet
EndChar
StartChar: quotesingle
Encoding: 39 39 39
Width: 564
Flags: W
Fore
388.8 1493 m 1,0,-1
 388.8 938 l 1,1,-1
 175.5 938 l 1,2,-1
 175.5 1493 l 1,3,-1
 388.8 1493 l 1,0,-1
EndSplineSet
EndChar
StartChar: parenleft
Encoding: 40 40 40
Width: 842
Flags: W
Fore
694.8 -270 m 1,0,-1
 427.5 -270 l 1,1,2
 289.8 -23 289.8 -23 224.1 199.5 c 128,-1,3
 158.4 422 158.4 422 158.4 641 c 0,4,5
 158.4 860 158.4 860 224.55 1084.5 c 128,-1,6
 290.7 1309 290.7 1309 427.5 1554 c 1,7,-1
 694.8 1554 l 1,8,9
 579.6 1317 579.6 1317 522 1090.5 c 128,-1,10
 464.4 864 464.4 864 464.4 643 c 0,11,12
 464.4 422 464.4 422 521.55 195 c 128,-1,13
 578.7 -32 578.7 -32 694.8 -270 c 1,0,-1
EndSplineSet
EndChar
StartChar: parenright
Encoding: 41 41 41
Width: 842
Flags: W
Fore
147.6 -270 m 1,0,1
 262.8 -32 262.8 -32 320.4 195 c 128,-1,2
 378 422 378 422 378 643 c 0,3,4
 378 864 378 864 320.4 1090.5 c 128,-1,5
 262.8 1317 262.8 1317 147.6 1554 c 1,6,-1
 414.9 1554 l 1,7,8
 551.7 1309 551.7 1309 617.85 1084.5 c 128,-1,9
 684 860 684 860 684 641 c 0,10,11
 684 422 684 422 618.3 199.5 c 128,-1,12
 552.6 -23 552.6 -23 414.9 -270 c 1,13,-1
 147.6 -270 l 1,0,1
EndSplineSet
EndChar
StartChar: asterisk
Encoding: 42 42 42
Width: 963
Flags: W
Fore
927 1217 m 1,0,-1
 630 1044 l 1,1,-1
 927 870 l 1,2,-1
 858.6 729 l 1,3,-1
 558.9 913 l 1,4,-1
 558.9 569 l 1,5,-1
 405.9 569 l 1,6,-1
 405.9 913 l 1,7,-1
 105.3 729 l 1,8,-1
 36.9004 870 l 1,9,-1
 337.5 1044 l 1,10,-1
 36.9004 1217 l 1,11,-1
 105.3 1358 l 1,12,-1
 405.9 1176 l 1,13,-1
 405.9 1520 l 1,14,-1
 558.9 1520 l 1,15,-1
 558.9 1176 l 1,16,-1
 858.6 1358 l 1,17,-1
 927 1217 l 1,0,-1
EndSplineSet
EndChar
StartChar: plus
Encoding: 43 43 43
Width: 1544
Flags: W
Fore
879.3 1284 m 1,0,-1
 879.3 760 l 1,1,-1
 1349.1 760 l 1,2,-1
 1349.1 524 l 1,3,-1
 879.3 524 l 1,4,-1
 879.3 0 l 1,5,-1
 665.1 0 l 1,6,-1
 665.1 524 l 1,7,-1
 195.3 524 l 1,8,-1
 195.3 760 l 1,9,-1
 665.1 760 l 1,10,-1
 665.1 1284 l 1,11,-1
 879.3 1284 l 1,0,-1
EndSplineSet
EndChar
StartChar: comma
Encoding: 44 44 44
Width: 700
Flags: W
Fore
188.1 387 m 1,0,-1
 512.1 387 l 1,1,-1
 512.1 82 l 1,2,-1
 289.8 -291 l 1,3,-1
 98.0996 -291 l 1,4,-1
 188.1 82 l 1,5,-1
 188.1 387 l 1,0,-1
EndSplineSet
EndChar
StartChar: hyphen
Encoding: 45 45 45
Width: 765
Flags: W
Fore
99.9004 735 m 1,0,-1
 665.1 735 l 1,1,-1
 665.1 444 l 1,2,-1
 99.9004 444 l 1,3,-1
 99.9004 735 l 1,0,-1
EndSplineSet
KernsSLIFO: 356 -301 2 0 221 -301 2 0 376 -301 2 0 89 -301 2 0 88 -167 2 0 87 -92 2 0 86 -149 2 0 84 -301 2 0
EndChar
StartChar: period
Encoding: 46 46 46
Width: 700
Flags: W
Fore
188.1 387 m 1,0,-1
 512.1 387 l 1,1,-1
 512.1 0 l 1,2,-1
 188.1 0 l 1,3,-1
 188.1 387 l 1,0,-1
EndSplineSet
EndChar
StartChar: slash
Encoding: 47 47 47
Width: 673
Flags: W
Fore
473.4 1493 m 1,0,-1
 673.2 1493 l 1,1,-1
 198.9 -190 l 1,2,-1
 0 -190 l 1,3,-1
 473.4 1493 l 1,0,-1
EndSplineSet
EndChar
StartChar: zero
Encoding: 48 48 48
Width: 1282
Flags: W
AnchorPoint: "below" 641.7 0 basechar 0
AnchorPoint: "above" 641.7 1520 basechar 0
Fore
847.8 748 m 0,0,1
 847.8 1028 847.8 1028 800.55 1142.5 c 128,-1,2
 753.3 1257 753.3 1257 641.7 1257 c 0,3,4
 530.1 1257 530.1 1257 482.4 1142.5 c 128,-1,5
 434.7 1028 434.7 1028 434.7 748 c 0,6,7
 434.7 465 434.7 465 482.4 349 c 128,-1,8
 530.1 233 530.1 233 641.7 233 c 0,9,10
 752.4 233 752.4 233 800.1 349 c 128,-1,11
 847.8 465 847.8 465 847.8 748 c 0,0,1
1194.3 745 m 0,12,13
 1194.3 374 1194.3 374 1050.3 172.5 c 128,-1,14
 906.3 -29 906.3 -29 641.7 -29 c 0,15,16
 376.2 -29 376.2 -29 232.2 172.5 c 128,-1,17
 88.2002 374 88.2002 374 88.2002 745 c 0,18,19
 88.2002 1117 88.2002 1117 232.2 1318.5 c 128,-1,20
 376.2 1520 376.2 1520 641.7 1520 c 0,21,22
 906.3 1520 906.3 1520 1050.3 1318.5 c 128,-1,23
 1194.3 1117 1194.3 1117 1194.3 745 c 0,12,13
EndSplineSet
EndChar
StartChar: one
Encoding: 49 49 49
Width: 1282
Flags: W
AnchorPoint: "below" 641.7 0 basechar 0
AnchorPoint: "above" 641.7 1520 basechar 0
Fore
216 266 m 1,0,-1
 522 266 l 1,1,-1
 522 1231 l 1,2,-1
 207.9 1159 l 1,3,-1
 207.9 1421 l 1,4,-1
 520.2 1493 l 1,5,-1
 849.6 1493 l 1,6,-1
 849.6 266 l 1,7,-1
 1155.6 266 l 1,8,-1
 1155.6 0 l 1,9,-1
 216 0 l 1,10,-1
 216 266 l 1,0,-1
EndSplineSet
EndChar
StartChar: two
Encoding: 50 50 50
Width: 1282
Flags: W
AnchorPoint: "below" 641.7 0 basechar 0
AnchorPoint: "above" 641.7 1520 basechar 0
Fore
531 283 m 1,0,-1
 1122.3 283 l 1,1,-1
 1122.3 0 l 1,2,-1
 145.8 0 l 1,3,-1
 145.8 283 l 1,4,-1
 636.3 764 l 1,5,6
 702 830 702 830 733.5 893 c 128,-1,7
 765 956 765 956 765 1024 c 0,8,9
 765 1129 765 1129 701.55 1193 c 128,-1,10
 638.1 1257 638.1 1257 532.8 1257 c 0,11,12
 451.8 1257 451.8 1257 355.5 1218.5 c 128,-1,13
 259.2 1180 259.2 1180 149.4 1104 c 1,14,-1
 149.4 1432 l 1,15,16
 266.4 1475 266.4 1475 380.7 1497.5 c 128,-1,17
 495 1520 495 1520 604.8 1520 c 0,18,19
 846 1520 846 1520 979.65 1402 c 128,-1,20
 1113.3 1284 1113.3 1284 1113.3 1073 c 0,21,22
 1113.3 951 1113.3 951 1056.6 845.5 c 128,-1,23
 999.9 740 999.9 740 818.1 563 c 2,24,-1
 531 283 l 1,0,-1
EndSplineSet
EndChar
StartChar: three
Encoding: 51 51 51
Width: 1282
Flags: W
AnchorPoint: "below" 641.7 0 basechar 0
AnchorPoint: "above" 641.7 1520 basechar 0
Fore
858.6 805 m 1,0,1
 994.5 766 994.5 766 1065.15 669.5 c 128,-1,2
 1135.8 573 1135.8 573 1135.8 424 c 0,3,4
 1135.8 202 1135.8 202 982.8 86.5 c 128,-1,5
 829.8 -29 829.8 -29 536.4 -29 c 0,6,7
 432.9 -29 432.9 -29 328.95 -10.5 c 128,-1,8
 225 8 225 8 123.3 45 c 1,9,-1
 123.3 342 l 1,10,11
 220.5 288 220.5 288 316.35 260.5 c 128,-1,12
 412.2 233 412.2 233 504.9 233 c 0,13,14
 642.6 233 642.6 233 715.95 286 c 128,-1,15
 789.3 339 789.3 339 789.3 438 c 0,16,17
 789.3 540 789.3 540 714.15 592.5 c 128,-1,18
 639 645 639 645 492.3 645 c 2,19,-1
 353.7 645 l 1,20,-1
 353.7 893 l 1,21,-1
 499.5 893 l 2,22,23
 630 893 630 893 693.9 938.5 c 128,-1,24
 757.8 984 757.8 984 757.8 1077 c 0,25,26
 757.8 1163 757.8 1163 695.7 1210 c 128,-1,27
 633.6 1257 633.6 1257 520.2 1257 c 0,28,29
 436.5 1257 436.5 1257 351 1236 c 128,-1,30
 265.5 1215 265.5 1215 180.9 1174 c 1,31,-1
 180.9 1456 l 1,32,33
 283.5 1488 283.5 1488 384.3 1504 c 128,-1,34
 485.1 1520 485.1 1520 582.3 1520 c 0,35,36
 844.2 1520 844.2 1520 974.25 1424.5 c 128,-1,37
 1104.3 1329 1104.3 1329 1104.3 1137 c 0,38,39
 1104.3 1006 1104.3 1006 1042.2 922.5 c 128,-1,40
 980.1 839 980.1 839 858.6 805 c 1,0,1
EndSplineSet
EndChar
StartChar: four
Encoding: 52 52 52
Width: 1282
Flags: W
AnchorPoint: "below" 641.7 0 basechar 0
AnchorPoint: "above" 641.7 1520 basechar 0
Fore
678.6 1176 m 1,0,-1
 298.8 551 l 1,1,-1
 678.6 551 l 1,2,-1
 678.6 1176 l 1,0,-1
621 1493 m 1,3,-1
 1006.2 1493 l 1,4,-1
 1006.2 551 l 1,5,-1
 1197.9 551 l 1,6,-1
 1197.9 272 l 1,7,-1
 1006.2 272 l 1,8,-1
 1006.2 0 l 1,9,-1
 678.6 0 l 1,10,-1
 678.6 272 l 1,11,-1
 82.7998 272 l 1,12,-1
 82.7998 602 l 1,13,-1
 621 1493 l 1,3,-1
EndSplineSet
EndChar
StartChar: five
Encoding: 53 53 53
Width: 1282
Flags: W
AnchorPoint: "below" 641.7 0 basechar 0
AnchorPoint: "above" 641.7 1520 basechar 0
Fore
195.3 1493 m 1,0,-1
 1056.6 1493 l 1,1,-1
 1056.6 1210 l 1,2,-1
 471.6 1210 l 1,3,-1
 471.6 979 l 1,4,5
 511.2 991 511.2 991 551.25 997.5 c 128,-1,6
 591.3 1004 591.3 1004 634.5 1004 c 0,7,8
 880.2 1004 880.2 1004 1017 867.5 c 128,-1,9
 1153.8 731 1153.8 731 1153.8 487 c 0,10,11
 1153.8 245 1153.8 245 1004.85 108 c 128,-1,12
 855.9 -29 855.9 -29 591.3 -29 c 0,13,14
 477 -29 477 -29 364.95 -4.5 c 128,-1,15
 252.9 20 252.9 20 142.2 70 c 1,16,-1
 142.2 373 l 1,17,18
 252 303 252 303 350.55 268 c 128,-1,19
 449.1 233 449.1 233 536.4 233 c 0,20,21
 662.4 233 662.4 233 734.85 301.5 c 128,-1,22
 807.3 370 807.3 370 807.3 487 c 0,23,24
 807.3 605 807.3 605 734.85 673 c 128,-1,25
 662.4 741 662.4 741 536.4 741 c 0,26,27
 461.7 741 461.7 741 377.1 719.5 c 128,-1,28
 292.5 698 292.5 698 195.3 653 c 1,29,-1
 195.3 1493 l 1,0,-1
EndSplineSet
EndChar
StartChar: six
Encoding: 54 54 54
Width: 1282
Flags: W
AnchorPoint: "below" 641.7 0 basechar 0
AnchorPoint: "above" 641.7 1520 basechar 0
Fore
666.9 737 m 0,0,1
 576 737 576 737 530.55 671.5 c 128,-1,2
 485.1 606 485.1 606 485.1 475 c 0,3,4
 485.1 344 485.1 344 530.55 278.5 c 128,-1,5
 576 213 576 213 666.9 213 c 0,6,7
 758.7 213 758.7 213 804.15 278.5 c 128,-1,8
 849.6 344 849.6 344 849.6 475 c 0,9,10
 849.6 606 849.6 606 804.15 671.5 c 128,-1,11
 758.7 737 758.7 737 666.9 737 c 0,0,1
1095.3 1454 m 1,12,-1
 1095.3 1178 l 1,13,14
 1009.8 1223 1009.8 1223 934.2 1244.5 c 128,-1,15
 858.6 1266 858.6 1266 786.6 1266 c 0,16,17
 631.8 1266 631.8 1266 545.4 1170.5 c 128,-1,18
 459 1075 459 1075 444.6 887 c 1,19,20
 504 936 504 936 573.3 960.5 c 128,-1,21
 642.6 985 642.6 985 724.5 985 c 0,22,23
 930.6 985 930.6 985 1057.05 851 c 128,-1,24
 1183.5 717 1183.5 717 1183.5 500 c 0,25,26
 1183.5 260 1183.5 260 1042.2 115.5 c 128,-1,27
 900.9 -29 900.9 -29 663.3 -29 c 0,28,29
 401.4 -29 401.4 -29 257.85 167.5 c 128,-1,30
 114.3 364 114.3 364 114.3 725 c 0,31,32
 114.3 1095 114.3 1095 282.15 1306.5 c 128,-1,33
 450 1518 450 1518 742.5 1518 c 0,34,35
 835.2 1518 835.2 1518 922.5 1502 c 128,-1,36
 1009.8 1486 1009.8 1486 1095.3 1454 c 1,12,-1
EndSplineSet
EndChar
StartChar: seven
Encoding: 55 55 55
Width: 1282
Flags: W
AnchorPoint: "below" 641.7 0 basechar 0
AnchorPoint: "above" 641.7 1520 basechar 0
Fore
123.3 1493 m 1,0,-1
 1135.8 1493 l 1,1,-1
 1135.8 1276 l 1,2,-1
 612 0 l 1,3,-1
 274.5 0 l 1,4,-1
 770.4 1210 l 1,5,-1
 123.3 1210 l 1,6,-1
 123.3 1493 l 1,0,-1
EndSplineSet
EndChar
StartChar: eight
Encoding: 56 56 56
Width: 1282
Flags: W
AnchorPoint: "below" 641.7 0 basechar 0
AnchorPoint: "above" 641.7 1520 basechar 0
Fore
641.7 668 m 0,0,1
 544.5 668 544.5 668 492.3 609 c 128,-1,2
 440.1 550 440.1 550 440.1 440 c 0,3,4
 440.1 330 440.1 330 492.3 271.5 c 128,-1,5
 544.5 213 544.5 213 641.7 213 c 0,6,7
 738 213 738 213 789.3 271.5 c 128,-1,8
 840.6 330 840.6 330 840.6 440 c 0,9,10
 840.6 551 840.6 551 789.3 609.5 c 128,-1,11
 738 668 738 668 641.7 668 c 0,0,1
388.8 795 m 1,12,13
 266.4 836 266.4 836 204.3 921 c 128,-1,14
 142.2 1006 142.2 1006 142.2 1133 c 0,15,16
 142.2 1322 142.2 1322 269.1 1421 c 128,-1,17
 396 1520 396 1520 641.7 1520 c 0,18,19
 885.6 1520 885.6 1520 1012.5 1421.5 c 128,-1,20
 1139.4 1323 1139.4 1323 1139.4 1133 c 0,21,22
 1139.4 1006 1139.4 1006 1076.85 921 c 128,-1,23
 1014.3 836 1014.3 836 891.9 795 c 1,24,25
 1028.7 753 1028.7 753 1098.45 658.5 c 128,-1,26
 1168.2 564 1168.2 564 1168.2 420 c 0,27,28
 1168.2 198 1168.2 198 1035.45 84.5 c 128,-1,29
 902.7 -29 902.7 -29 641.7 -29 c 0,30,31
 379.8 -29 379.8 -29 246.15 84.5 c 128,-1,32
 112.5 198 112.5 198 112.5 420 c 0,33,34
 112.5 564 112.5 564 182.25 658.5 c 128,-1,35
 252 753 252 753 388.8 795 c 1,12,13
469.8 1094 m 0,36,37
 469.8 1005 469.8 1005 514.35 957 c 128,-1,38
 558.9 909 558.9 909 641.7 909 c 0,39,40
 722.7 909 722.7 909 766.8 957 c 128,-1,41
 810.9 1005 810.9 1005 810.9 1094 c 0,42,43
 810.9 1183 810.9 1183 766.8 1230.5 c 128,-1,44
 722.7 1278 722.7 1278 641.7 1278 c 0,45,46
 558.9 1278 558.9 1278 514.35 1230 c 128,-1,47
 469.8 1182 469.8 1182 469.8 1094 c 0,36,37
EndSplineSet
EndChar
StartChar: nine
Encoding: 57 57 57
Width: 1282
Flags: W
AnchorPoint: "below" 641.7 0 basechar 0
AnchorPoint: "above" 641.7 1520 basechar 0
Fore
184.5 33 m 1,0,-1
 184.5 309 l 1,1,2
 267.3 266 267.3 266 342.9 244.5 c 128,-1,3
 418.5 223 418.5 223 492.3 223 c 0,4,5
 647.1 223 647.1 223 733.5 318.5 c 128,-1,6
 819.9 414 819.9 414 835.2 602 c 1,7,8
 774 552 774 552 704.7 527 c 128,-1,9
 635.4 502 635.4 502 554.4 502 c 0,10,11
 348.3 502 348.3 502 221.85 635.5 c 128,-1,12
 95.4004 769 95.4004 769 95.4004 987 c 0,13,14
 95.4004 1228 95.4004 1228 236.25 1373 c 128,-1,15
 377.1 1518 377.1 1518 613.8 1518 c 0,16,17
 876.6 1518 876.6 1518 1020.6 1321 c 128,-1,18
 1164.6 1124 1164.6 1124 1164.6 764 c 0,19,20
 1164.6 394 1164.6 394 996.3 182.5 c 128,-1,21
 828 -29 828 -29 534.6 -29 c 0,22,23
 440.1 -29 440.1 -29 353.7 -13.5 c 128,-1,24
 267.3 2 267.3 2 184.5 33 c 1,0,-1
612 752 m 0,25,26
 702.9 752 702.9 752 748.8 817.5 c 128,-1,27
 794.7 883 794.7 883 794.7 1014 c 0,28,29
 794.7 1144 794.7 1144 748.8 1210 c 128,-1,30
 702.9 1276 702.9 1276 612 1276 c 0,31,32
 521.1 1276 521.1 1276 475.2 1210 c 128,-1,33
 429.3 1144 429.3 1144 429.3 1014 c 0,34,35
 429.3 883 429.3 883 475.2 817.5 c 128,-1,36
 521.1 752 521.1 752 612 752 c 0,25,26
EndSplineSet
EndChar
StartChar: colon
Encoding: 58 58 58
Width: 737
Flags: W
Fore
206.1 1120 m 1,0,-1
 531 1120 l 1,1,-1
 531 733 l 1,2,-1
 206.1 733 l 1,3,-1
 206.1 1120 l 1,0,-1
206.1 387 m 1,4,-1
 531 387 l 1,5,-1
 531 0 l 1,6,-1
 206.1 0 l 1,7,-1
 206.1 387 l 1,4,-1
EndSplineSet
EndChar
StartChar: semicolon
Encoding: 59 59 59
Width: 737
Flags: W
Fore
206.1 387 m 1,0,-1
 531 387 l 1,1,-1
 531 82 l 1,2,-1
 307.8 -291 l 1,3,-1
 116.1 -291 l 1,4,-1
 206.1 82 l 1,5,-1
 206.1 387 l 1,0,-1
206.1 1120 m 1,6,-1
 531 1120 l 1,7,-1
 531 733 l 1,8,-1
 206.1 733 l 1,9,-1
 206.1 1120 l 1,6,-1
EndSplineSet
EndChar
StartChar: less
Encoding: 60 60 60
Width: 1544
Flags: W
Fore
1349.1 973 m 1,0,-1
 481.5 641 l 1,1,-1
 1349.1 311 l 1,2,-1
 1349.1 61 l 1,3,-1
 195.3 524 l 1,4,-1
 195.3 760 l 1,5,-1
 1349.1 1223 l 1,6,-1
 1349.1 973 l 1,0,-1
EndSplineSet
EndChar
StartChar: equal
Encoding: 61 61 61
Width: 1544
Flags: W
Fore
195.3 987 m 1,0,-1
 1349.1 987 l 1,1,-1
 1349.1 752 l 1,2,-1
 195.3 752 l 1,3,-1
 195.3 987 l 1,0,-1
195.3 532 m 1,4,-1
 1349.1 532 l 1,5,-1
 1349.1 295 l 1,6,-1
 195.3 295 l 1,7,-1
 195.3 532 l 1,4,-1
EndSplineSet
EndChar
StartChar: greater
Encoding: 62 62 62
Width: 1544
Flags: W
Fore
195.3 973 m 1,0,-1
 195.3 1223 l 1,1,-1
 1349.1 760 l 1,2,-1
 1349.1 524 l 1,3,-1
 195.3 61 l 1,4,-1
 195.3 311 l 1,5,-1
 1063.8 641 l 1,6,-1
 195.3 973 l 1,0,-1
EndSplineSet
EndChar
StartChar: question
Encoding: 63 63 63
Width: 1069
Flags: W
Fore
638.1 504 m 1,0,-1
 313.2 504 l 1,1,-1
 313.2 553 l 2,2,3
 313.2 635 313.2 635 342.9 698.5 c 128,-1,4
 372.6 762 372.6 762 468 860 c 2,5,-1
 525.6 918 l 2,6,7
 576.9 970 576.9 970 600.75 1016 c 128,-1,8
 624.6 1062 624.6 1062 624.6 1108 c 0,9,10
 624.6 1178 624.6 1178 581.4 1217.5 c 128,-1,11
 538.2 1257 538.2 1257 460.8 1257 c 0,12,13
 387.9 1257 387.9 1257 303.3 1223.5 c 128,-1,14
 218.7 1190 218.7 1190 126.9 1124 c 1,15,-1
 126.9 1438 l 1,16,17
 235.8 1480 235.8 1480 325.8 1500 c 128,-1,18
 415.8 1520 415.8 1520 499.5 1520 c 0,19,20
 719.1 1520 719.1 1520 834.3 1420.5 c 128,-1,21
 949.5 1321 949.5 1321 949.5 1130 c 0,22,23
 949.5 1032 949.5 1032 914.4 954.5 c 128,-1,24
 879.3 877 879.3 877 794.7 788 c 1,25,-1
 737.1 731 l 2,26,27
 675.9 669 675.9 669 657 631.5 c 128,-1,28
 638.1 594 638.1 594 638.1 549 c 2,29,-1
 638.1 504 l 1,0,-1
313.2 356 m 1,30,-1
 638.1 356 l 1,31,-1
 638.1 0 l 1,32,-1
 313.2 0 l 1,33,-1
 313.2 356 l 1,30,-1
EndSplineSet
EndChar
StartChar: at
Encoding: 64 64 64
Width: 1843
Flags: W
Fore
747.9 539 m 0,0,1
 747.9 416 747.9 416 795.15 345 c 128,-1,2
 842.4 274 842.4 274 923.4 274 c 0,3,4
 1003.5 274 1003.5 274 1051.2 345.5 c 128,-1,5
 1098.9 417 1098.9 417 1098.9 539 c 0,6,7
 1098.9 660 1098.9 660 1050.75 730.5 c 128,-1,8
 1002.6 801 1002.6 801 921.6 801 c 0,9,10
 842.4 801 842.4 801 795.15 730.5 c 128,-1,11
 747.9 660 747.9 660 747.9 539 c 0,0,1
1116.9 238 m 1,12,13
 1089.9 167 1089.9 167 1030.05 127.5 c 128,-1,14
 970.2 88 970.2 88 890.1 88 c 0,15,16
 735.3 88 735.3 88 638.55 212.5 c 128,-1,17
 541.8 337 541.8 337 541.8 537 c 0,18,19
 541.8 737 541.8 737 639 862 c 128,-1,20
 736.2 987 736.2 987 890.1 987 c 0,21,22
 970.2 987 970.2 987 1030.05 947 c 128,-1,23
 1089.9 907 1089.9 907 1116.9 836 c 1,24,-1
 1116.9 967 l 1,25,-1
 1305 967 l 1,26,-1
 1305 274 l 1,27,28
 1416.6 293 1416.6 293 1480.5 393.5 c 128,-1,29
 1544.4 494 1544.4 494 1544.4 651 c 0,30,31
 1544.4 751 1544.4 751 1518.3 838.5 c 128,-1,32
 1492.2 926 1492.2 926 1439.1 999 c 1,33,34
 1353.6 1121 1353.6 1121 1225.35 1187 c 128,-1,35
 1097.1 1253 1097.1 1253 947.7 1253 c 0,36,37
 843.3 1253 843.3 1253 747.9 1222.5 c 128,-1,38
 652.5 1192 652.5 1192 571.5 1133 c 0,39,40
 438.3 1035 438.3 1035 364.05 879.5 c 128,-1,41
 289.8 724 289.8 724 289.8 543 c 0,42,43
 289.8 394 289.8 394 337.95 263.5 c 128,-1,44
 386.1 133 386.1 133 477 33 c 0,45,46
 567 -65 567 -65 683.55 -116.5 c 128,-1,47
 800.1 -168 800.1 -168 932.4 -168 c 0,48,49
 1045.8 -168 1045.8 -168 1159.2 -121 c 128,-1,50
 1272.6 -74 1272.6 -74 1352.7 6 c 1,51,-1
 1449 -156 l 1,52,53
 1336.5 -253 1336.5 -253 1203.75 -304.5 c 128,-1,54
 1071 -356 1071 -356 934.2 -356 c 0,55,56
 767.7 -356 767.7 -356 620.1 -290.5 c 128,-1,57
 472.5 -225 472.5 -225 357.3 -100 c 0,58,59
 242.1 25 242.1 25 181.8 189.5 c 128,-1,60
 121.5 354 121.5 354 121.5 543 c 0,61,62
 121.5 725 121.5 725 182.7 890 c 128,-1,63
 243.9 1055 243.9 1055 357.3 1180 c 0,64,65
 470.7 1304 470.7 1304 621.45 1372 c 128,-1,66
 772.2 1440 772.2 1440 934.2 1440 c 0,67,68
 1135.8 1440 1135.8 1440 1300.5 1354.5 c 128,-1,69
 1465.2 1269 1465.2 1269 1575.9 1108 c 0,70,71
 1643.4 1010 1643.4 1010 1678.05 895.5 c 128,-1,72
 1712.7 781 1712.7 781 1712.7 655 c 0,73,74
 1712.7 384 1712.7 384 1566 234 c 128,-1,75
 1419.3 84 1419.3 84 1152 84 c 2,76,-1
 1116.9 84 l 1,77,-1
 1116.9 238 l 1,12,13
EndSplineSet
EndChar
StartChar: A
Encoding: 65 65 65
Width: 1426
Flags: W
AnchorPoint: "below" 711 0 basechar 0
AnchorPoint: "above" 711 1520 basechar 0
Fore
984.6 272 m 1,0,-1
 442.8 272 l 1,1,-1
 357.3 0 l 1,2,-1
 9 0 l 1,3,-1
 506.7 1493 l 1,4,-1
 919.8 1493 l 1,5,-1
 1417.5 0 l 1,6,-1
 1069.2 0 l 1,7,-1
 984.6 272 l 1,0,-1
529.2 549 m 1,8,-1
 897.3 549 l 1,9,-1
 713.7 1143 l 1,10,-1
 529.2 549 l 1,8,-1
EndSplineSet
KernsSLIFO: 563 -73 2 0 375 -73 2 0 7922 -196 2 0 562 -196 2 0 374 -196 2 0 368 -63 2 0 364 -63 2 0 362 -63 2 0 360 -63 2 0 7812 -92 2 0 7810 -92 2 0 7808 -92 2 0 372 -92 2 0 538 -159 2 0 354 -159 2 0 366 -63 2 0 356 -159 2 0 253 -73 2 0 221 -196 2 0 217 -63 2 0 219 -63 2 0 218 -63 2 0 8222 114 2 0 8218 114 2 0 376 -196 2 0 255 -73 2 0 8217 -188 2 0 8221 -188 2 0 220 -63 2 0 121 -73 2 0 118 -73 2 0 89 -196 2 0 87 -92 2 0 86 -139 2 0 85 -63 2 0 84 -159 2 0 59 38 2 0 58 38 2 0 46 38 2 0 44 38 2 0
EndChar
StartChar: B
Encoding: 66 66 66
Width: 1404
Flags: W
AnchorPoint: "above" 720 1520 basechar 0
AnchorPoint: "below" 720 0 basechar 0
Fore
707.4 915 m 2,0,1
 789.3 915 789.3 915 831.6 955 c 128,-1,2
 873.9 995 873.9 995 873.9 1073 c 0,3,4
 873.9 1150 873.9 1150 831.6 1190.5 c 128,-1,5
 789.3 1231 789.3 1231 707.4 1231 c 2,6,-1
 515.7 1231 l 1,7,-1
 515.7 915 l 1,8,-1
 707.4 915 l 2,0,1
719.1 262 m 2,9,10
 823.5 262 823.5 262 876.15 311 c 128,-1,11
 928.8 360 928.8 360 928.8 459 c 0,12,13
 928.8 556 928.8 556 876.6 604.5 c 128,-1,14
 824.4 653 824.4 653 719.1 653 c 2,15,-1
 515.7 653 l 1,16,-1
 515.7 262 l 1,17,-1
 719.1 262 l 2,9,10
1041.3 799 m 1,18,19
 1152.9 763 1152.9 763 1214.1 666 c 128,-1,20
 1275.3 569 1275.3 569 1275.3 428 c 0,21,22
 1275.3 212 1275.3 212 1143.9 106 c 128,-1,23
 1012.5 0 1012.5 0 744.3 0 c 2,24,-1
 169.2 0 l 1,25,-1
 169.2 1493 l 1,26,-1
 689.4 1493 l 2,27,28
 969.3 1493 969.3 1493 1094.85 1399 c 128,-1,29
 1220.4 1305 1220.4 1305 1220.4 1098 c 0,30,31
 1220.4 989 1220.4 989 1174.5 912.5 c 128,-1,32
 1128.6 836 1128.6 836 1041.3 799 c 1,18,19
EndSplineSet
KernsSLIFO: 7922 -112 2 0 562 -112 2 0 374 -112 2 0 7812 -112 2 0 7810 -112 2 0 7808 -112 2 0 372 -112 2 0 221 -112 2 0 376 -112 2 0 89 -112 2 0 87 -112 2 0 86 -83 2 0
EndChar
StartChar: C
Encoding: 67 67 67
Width: 1352
Flags: W
AnchorPoint: "below" 818.1 0 basechar 0
AnchorPoint: "above" 818.1 1520 basechar 0
Fore
1234.8 82 m 1,0,1
 1139.4 27 1139.4 27 1035.9 -1 c 128,-1,2
 932.4 -29 932.4 -29 819.9 -29 c 0,3,4
 484.2 -29 484.2 -29 288 179.5 c 128,-1,5
 91.7998 388 91.7998 388 91.7998 745 c 0,6,7
 91.7998 1103 91.7998 1103 288 1311.5 c 128,-1,8
 484.2 1520 484.2 1520 819.9 1520 c 0,9,10
 932.4 1520 932.4 1520 1035.9 1492 c 128,-1,11
 1139.4 1464 1139.4 1464 1234.8 1409 c 1,12,-1
 1234.8 1100 l 1,13,14
 1138.5 1173 1138.5 1173 1044.9 1207 c 128,-1,15
 951.3 1241 951.3 1241 847.8 1241 c 0,16,17
 662.4 1241 662.4 1241 556.2 1109 c 128,-1,18
 450 977 450 977 450 745 c 0,19,20
 450 514 450 514 556.2 382 c 128,-1,21
 662.4 250 662.4 250 847.8 250 c 0,22,23
 951.3 250 951.3 250 1044.9 284 c 128,-1,24
 1138.5 318 1138.5 318 1234.8 391 c 1,25,-1
 1234.8 82 l 1,0,1
EndSplineSet
KernsSLIFO: 536 38 2 0 348 38 2 0 346 38 2 0 350 38 2 0 352 38 2 0 8217 75 2 0 8221 75 2 0 83 38 2 0 45 47 2 0
EndChar
StartChar: D
Encoding: 68 68 68
Width: 1530
Flags: W
AnchorPoint: "below" 699.3 0 basechar 0
AnchorPoint: "above" 699.3 1520 basechar 0
Fore
515.7 1202 m 1,0,-1
 515.7 291 l 1,1,-1
 639.9 291 l 2,2,3
 852.3 291 852.3 291 964.35 408 c 128,-1,4
 1076.4 525 1076.4 525 1076.4 748 c 0,5,6
 1076.4 970 1076.4 970 964.8 1086 c 128,-1,7
 853.2 1202 853.2 1202 639.9 1202 c 2,8,-1
 515.7 1202 l 1,0,-1
169.2 1493 m 1,9,-1
 534.6 1493 l 2,10,11
 840.6 1493 840.6 1493 990.45 1444.5 c 128,-1,12
 1140.3 1396 1140.3 1396 1247.4 1280 c 0,13,14
 1341.9 1179 1341.9 1179 1387.8 1047 c 128,-1,15
 1433.7 915 1433.7 915 1433.7 748 c 0,16,17
 1433.7 579 1433.7 579 1387.8 446.5 c 128,-1,18
 1341.9 314 1341.9 314 1247.4 213 c 0,19,20
 1139.4 97 1139.4 97 988.2 48.5 c 128,-1,21
 837 0 837 0 534.6 0 c 2,22,-1
 169.2 0 l 1,23,-1
 169.2 1493 l 1,9,-1
EndSplineSet
KernsSLIFO: 7922 -149 2 0 562 -149 2 0 374 -149 2 0 221 -149 2 0 8222 -36 2 0 8218 -36 2 0 376 -149 2 0 89 -149 2 0 45 38 2 0
EndChar
StartChar: E
Encoding: 69 69 69
Width: 1259
Flags: W
AnchorPoint: "below" 621 0 basechar 0
AnchorPoint: "above" 621 1520 basechar 0
Fore
169.2 1493 m 1,0,-1
 1104.3 1493 l 1,1,-1
 1104.3 1202 l 1,2,-1
 515.7 1202 l 1,3,-1
 515.7 924 l 1,4,-1
 1069.2 924 l 1,5,-1
 1069.2 633 l 1,6,-1
 515.7 633 l 1,7,-1
 515.7 291 l 1,8,-1
 1124.1 291 l 1,9,-1
 1124.1 0 l 1,10,-1
 169.2 0 l 1,11,-1
 169.2 1493 l 1,0,-1
EndSplineSet
EndChar
StartChar: F
Encoding: 70 70 70
Width: 1259
Flags: W
AnchorPoint: "above" 621 1520 basechar 0
AnchorPoint: "below" 342 0 basechar 0
Fore
169.2 1493 m 1,0,-1
 1104.3 1493 l 1,1,-1
 1104.3 1202 l 1,2,-1
 515.7 1202 l 1,3,-1
 515.7 924 l 1,4,-1
 1069.2 924 l 1,5,-1
 1069.2 633 l 1,6,-1
 515.7 633 l 1,7,-1
 515.7 0 l 1,8,-1
 169.2 0 l 1,9,-1
 169.2 1493 l 1,0,-1
EndSplineSet
KernsSLIFO: 483 -120 2 0 7923 -112 2 0 563 -112 2 0 375 -112 2 0 371 -102 2 0 369 -102 2 0 365 -102 2 0 363 -102 2 0 361 -102 2 0 343 -131 2 0 559 -83 2 0 493 -83 2 0 491 -83 2 0 337 -83 2 0 335 -83 2 0 333 -83 2 0 281 -83 2 0 279 -83 2 0 277 -83 2 0 275 -83 2 0 261 -120 2 0 259 -120 2 0 257 -120 2 0 260 -235 2 0 258 -235 2 0 256 -235 2 0 252 -102 2 0 229 -120 2 0 230 -120 2 0 59 -112 2 0 242 -83 2 0 45 -63 2 0 8222 -339 2 0 367 -102 2 0 245 -83 2 0 235 -83 2 0 249 -102 2 0 44 -329 2 0 224 -120 2 0 195 -235 2 0 234 -83 2 0 341 -131 2 0 232 -83 2 0 196 -235 2 0 193 -235 2 0 8217 38 2 0 251 -102 2 0 253 -112 2 0 8218 -339 2 0 227 -120 2 0 194 -235 2 0 248 -83 2 0 244 -83 2 0 65 -235 2 0 97 -120 2 0 228 -120 2 0 246 -83 2 0 250 -102 2 0 225 -120 2 0 345 -131 2 0 46 -301 2 0 226 -120 2 0 233 -83 2 0 283 -83 2 0 101 -83 2 0 339 -83 2 0 255 -112 2 0 111 -83 2 0 114 -131 2 0 117 -102 2 0 192 -235 2 0 121 -112 2 0 58 -112 2 0 243 -83 2 0
EndChar
StartChar: G
Encoding: 71 71 71
Width: 1512
Flags: W
AnchorPoint: "below" 837 0 basechar 0
AnchorPoint: "above" 837 1520 basechar 0
Fore
1377 111 m 1,0,1
 1247.4 41 1247.4 41 1107.9 6 c 128,-1,2
 968.4 -29 968.4 -29 819.9 -29 c 0,3,4
 484.2 -29 484.2 -29 288 179.5 c 128,-1,5
 91.7998 388 91.7998 388 91.7998 745 c 0,6,7
 91.7998 1106 91.7998 1106 291.6 1313 c 128,-1,8
 491.4 1520 491.4 1520 838.8 1520 c 0,9,10
 972.9 1520 972.9 1520 1095.75 1492 c 128,-1,11
 1218.6 1464 1218.6 1464 1327.5 1409 c 1,12,-1
 1327.5 1100 l 1,13,14
 1215 1171 1215 1171 1103.85 1206 c 128,-1,15
 992.7 1241 992.7 1241 881.1 1241 c 0,16,17
 674.1 1241 674.1 1241 562.05 1112.5 c 128,-1,18
 450 984 450 984 450 745 c 0,19,20
 450 508 450 508 558 379 c 128,-1,21
 666 250 666 250 864.9 250 c 0,22,23
 918.9 250 918.9 250 965.25 257.5 c 128,-1,24
 1011.6 265 1011.6 265 1048.5 281 c 1,25,-1
 1048.5 571 l 1,26,-1
 837 571 l 1,27,-1
 837 829 l 1,28,-1
 1377 829 l 1,29,-1
 1377 111 l 1,0,1
EndSplineSet
KernsSLIFO: 356 -36 2 0 221 -45 2 0 376 -45 2 0 89 -45 2 0 84 -36 2 0
EndChar
StartChar: H
Encoding: 72 72 72
Width: 1542
Flags: W
AnchorPoint: "below" 769.5 0 basechar 0
AnchorPoint: "above" 769.5 1520 basechar 0
Fore
169.2 1493 m 1,0,-1
 515.7 1493 l 1,1,-1
 515.7 924 l 1,2,-1
 1026.9 924 l 1,3,-1
 1026.9 1493 l 1,4,-1
 1373.4 1493 l 1,5,-1
 1373.4 0 l 1,6,-1
 1026.9 0 l 1,7,-1
 1026.9 633 l 1,8,-1
 515.7 633 l 1,9,-1
 515.7 0 l 1,10,-1
 169.2 0 l 1,11,-1
 169.2 1493 l 1,0,-1
EndSplineSet
EndChar
StartChar: I
Encoding: 73 73 73
Width: 685
Flags: W
AnchorPoint: "below" 340.2 6 basechar 0
AnchorPoint: "above" 340.2 1520 basechar 0
Fore
169.2 1493 m 1,0,-1
 515.7 1493 l 1,1,-1
 515.7 0 l 1,2,-1
 169.2 0 l 1,3,-1
 169.2 1493 l 1,0,-1
EndSplineSet
EndChar
StartChar: J
Encoding: 74 74 74
Width: 685
Flags: W
AnchorPoint: "below" 340.2 -430 basechar 0
AnchorPoint: "above" 340.2 1520 basechar 0
Fore
169.2 1493 m 1,0,-1
 515.7 1493 l 1,1,-1
 515.7 145 l 2,2,3
 515.7 -134 515.7 -134 379.35 -272 c 128,-1,4
 243 -410 243 -410 -33.2998 -410 c 2,5,-1
 -103.5 -410 l 1,6,-1
 -103.5 -119 l 1,7,-1
 -49.5 -119 l 2,8,9
 58.5 -119 58.5 -119 113.85 -52 c 128,-1,10
 169.2 15 169.2 15 169.2 145 c 2,11,-1
 169.2 1493 l 1,0,-1
EndSplineSet
AlternateSubs: 0 2 'aalt' J.alt
Substitution: 0 2 'salt' J.alt
EndChar
StartChar: K
Encoding: 75 75 75
Width: 1428
Flags: W
AnchorPoint: "below" 792.9 0 basechar 0
AnchorPoint: "above" 792.9 1520 basechar 0
Fore
169.2 1493 m 1,0,-1
 515.7 1493 l 1,1,-1
 515.7 948 l 1,2,-1
 1015.2 1493 l 1,3,-1
 1417.5 1493 l 1,4,-1
 770.4 786 l 1,5,-1
 1484.1 0 l 1,6,-1
 1050.3 0 l 1,7,-1
 515.7 588 l 1,8,-1
 515.7 0 l 1,9,-1
 169.2 0 l 1,10,-1
 169.2 1493 l 1,0,-1
EndSplineSet
KernsSLIFO: 367 -36 2 0 366 -36 2 0 283 -36 2 0 268 -92 2 0 262 -92 2 0 253 -131 2 0 217 -36 2 0 219 -36 2 0 218 -36 2 0 210 -92 2 0 212 -92 2 0 211 -92 2 0 8222 38 2 0 8218 38 2 0 255 -131 2 0 339 -36 2 0 338 -102 2 0 213 -92 2 0 248 -36 2 0 216 -55 2 0 252 -36 2 0 251 -36 2 0 249 -36 2 0 250 -36 2 0 245 -36 2 0 246 -36 2 0 244 -36 2 0 242 -36 2 0 243 -36 2 0 235 -36 2 0 234 -36 2 0 232 -36 2 0 233 -36 2 0 220 -36 2 0 214 -92 2 0 199 -92 2 0 121 -131 2 0 117 -36 2 0 111 -36 2 0 101 -36 2 0 85 -36 2 0 79 -92 2 0 67 -92 2 0 45 -178 2 0
EndChar
StartChar: L
Encoding: 76 76 76
Width: 1174
Flags: W
AnchorPoint: "below" 646.2 0 basechar 0
AnchorPoint: "above" 342 1520 basechar 0
Fore
169.2 1493 m 1,0,-1
 515.7 1493 l 1,1,-1
 515.7 291 l 1,2,-1
 1124.1 291 l 1,3,-1
 1124.1 0 l 1,4,-1
 169.2 0 l 1,5,-1
 169.2 1493 l 1,0,-1
EndSplineSet
KernsSLIFO: 366 -73 2 0 356 -339 2 0 253 -139 2 0 221 -319 2 0 217 -73 2 0 219 -73 2 0 218 -73 2 0 210 -73 2 0 212 -73 2 0 211 -73 2 0 376 -319 2 0 255 -139 2 0 8217 -471 2 0 8221 -491 2 0 338 -73 2 0 213 -73 2 0 216 -73 2 0 220 -73 2 0 214 -73 2 0 121 -139 2 0 89 -319 2 0 87 -159 2 0 86 -282 2 0 85 -73 2 0 84 -339 2 0 79 -73 2 0
EndChar
StartChar: M
Encoding: 77 77 77
Width: 1834
Flags: W
AnchorPoint: "below" 916.2 0 basechar 0
AnchorPoint: "above" 916.2 1520 basechar 0
Fore
169.2 1493 m 1,0,-1
 610.2 1493 l 1,1,-1
 916.2 694 l 1,2,-1
 1224 1493 l 1,3,-1
 1664.1 1493 l 1,4,-1
 1664.1 0 l 1,5,-1
 1336.5 0 l 1,6,-1
 1336.5 1092 l 1,7,-1
 1026.9 287 l 1,8,-1
 807.3 287 l 1,9,-1
 497.7 1092 l 1,10,-1
 497.7 0 l 1,11,-1
 169.2 0 l 1,12,-1
 169.2 1493 l 1,0,-1
EndSplineSet
EndChar
StartChar: N
Encoding: 78 78 78
Width: 1542
Flags: W
AnchorPoint: "below" 791.1 0 basechar 0
AnchorPoint: "above" 791.1 1520 basechar 0
Fore
169.2 1493 m 1,0,-1
 556.2 1493 l 1,1,-1
 1044.9 469 l 1,2,-1
 1044.9 1493 l 1,3,-1
 1373.4 1493 l 1,4,-1
 1373.4 0 l 1,5,-1
 986.4 0 l 1,6,-1
 497.7 1024 l 1,7,-1
 497.7 0 l 1,8,-1
 169.2 0 l 1,9,-1
 169.2 1493 l 1,0,-1
EndSplineSet
EndChar
StartChar: O
Encoding: 79 79 79
Width: 1566
Flags: W
AnchorPoint: "below" 783 0 basechar 0
AnchorPoint: "above" 783 1520 basechar 0
Fore
783 1241 m 0,0,1
 624.6 1241 624.6 1241 537.3 1111 c 128,-1,2
 450 981 450 981 450 745 c 0,3,4
 450 510 450 510 537.3 380 c 128,-1,5
 624.6 250 624.6 250 783 250 c 0,6,7
 942.3 250 942.3 250 1029.6 380 c 128,-1,8
 1116.9 510 1116.9 510 1116.9 745 c 0,9,10
 1116.9 981 1116.9 981 1029.6 1111 c 128,-1,11
 942.3 1241 942.3 1241 783 1241 c 0,0,1
783 1520 m 0,12,13
 1107 1520 1107 1520 1290.6 1314 c 128,-1,14
 1474.2 1108 1474.2 1108 1474.2 745 c 0,15,16
 1474.2 383 1474.2 383 1290.6 177 c 128,-1,17
 1107 -29 1107 -29 783 -29 c 0,18,19
 459.9 -29 459.9 -29 275.85 177 c 128,-1,20
 91.7998 383 91.7998 383 91.7998 745 c 0,21,22
 91.7998 1108 91.7998 1108 275.85 1314 c 128,-1,23
 459.9 1520 459.9 1520 783 1520 c 0,12,13
EndSplineSet
KernsSLIFO: 221 -73 2 0 193 -55 2 0 194 -55 2 0 376 -73 2 0 195 -55 2 0 192 -55 2 0 196 -55 2 0 89 -73 2 0 88 -73 2 0 86 -55 2 0 65 -55 2 0 46 -45 2 0 45 38 2 0 44 -45 2 0
EndChar
StartChar: P
Encoding: 80 80 80
Width: 1350
Flags: W
AnchorPoint: "above" 721.8 1520 basechar 0
AnchorPoint: "below" 342 0 basechar 0
Fore
169.2 1493 m 1,0,-1
 744.3 1493 l 2,1,2
 1000.8 1493 1000.8 1493 1138.05 1366.5 c 128,-1,3
 1275.3 1240 1275.3 1240 1275.3 1006 c 0,4,5
 1275.3 771 1275.3 771 1138.05 644.5 c 128,-1,6
 1000.8 518 1000.8 518 744.3 518 c 2,7,-1
 515.7 518 l 1,8,-1
 515.7 0 l 1,9,-1
 169.2 0 l 1,10,-1
 169.2 1493 l 1,0,-1
515.7 1214 m 1,11,-1
 515.7 797 l 1,12,-1
 707.4 797 l 2,13,14
 808.2 797 808.2 797 863.1 851.5 c 128,-1,15
 918 906 918 906 918 1006 c 0,16,17
 918 1106 918 1106 863.1 1160 c 128,-1,18
 808.2 1214 808.2 1214 707.4 1214 c 2,19,-1
 515.7 1214 l 1,11,-1
EndSplineSet
KernsSLIFO: 351 -36 2 0 253 38 2 0 353 -36 2 0 193 -188 2 0 194 -188 2 0 8222 -415 2 0 8218 -415 2 0 255 38 2 0 8217 57 2 0 8221 38 2 0 195 -188 2 0 192 -188 2 0 230 -55 2 0 229 -55 2 0 227 -55 2 0 228 -55 2 0 226 -55 2 0 224 -55 2 0 225 -55 2 0 196 -188 2 0 121 38 2 0 115 -36 2 0 97 -55 2 0 65 -188 2 0 46 -376 2 0 45 -36 2 0 44 -376 2 0
EndChar
StartChar: Q
Encoding: 81 81 81
Width: 1566
Flags: W
AnchorPoint: "above" 783 1520 basechar 0
AnchorPoint: "below" 783 0 basechar 0
Fore
819.9 -27 m 1,0,-1
 792.9 -27 l 2,1,2
 460.8 -27 460.8 -27 276.3 177 c 128,-1,3
 91.7998 381 91.7998 381 91.7998 745 c 0,4,5
 91.7998 1108 91.7998 1108 275.85 1314 c 128,-1,6
 459.9 1520 459.9 1520 783 1520 c 0,7,8
 1109.7 1520 1109.7 1520 1291.95 1316 c 128,-1,9
 1474.2 1112 1474.2 1112 1474.2 745 c 0,10,11
 1474.2 493 1474.2 493 1377.45 311 c 128,-1,12
 1280.7 129 1280.7 129 1098.9 37 c 1,13,-1
 1369.8 -299 l 1,14,-1
 1039.5 -299 l 1,15,-1
 819.9 -27 l 1,0,-1
783 1241 m 0,16,17
 624.6 1241 624.6 1241 537.3 1111 c 128,-1,18
 450 981 450 981 450 745 c 0,19,20
 450 505 450 505 535.5 377.5 c 128,-1,21
 621 250 621 250 783 250 c 0,22,23
 942.3 250 942.3 250 1029.6 380 c 128,-1,24
 1116.9 510 1116.9 510 1116.9 745 c 0,25,26
 1116.9 981 1116.9 981 1029.6 1111 c 128,-1,27
 942.3 1241 942.3 1241 783 1241 c 0,16,17
EndSplineSet
KernsSLIFO: 45 38 2 0
EndChar
StartChar: R
Encoding: 82 82 82
Width: 1419
Flags: W
AnchorPoint: "below" 639.9 0 basechar 0
AnchorPoint: "above" 639.9 1520 basechar 0
Fore
661.5 831 m 2,0,1
 770.4 831 770.4 831 817.65 876 c 128,-1,2
 864.9 921 864.9 921 864.9 1024 c 0,3,4
 864.9 1126 864.9 1126 817.65 1170 c 128,-1,5
 770.4 1214 770.4 1214 661.5 1214 c 2,6,-1
 515.7 1214 l 1,7,-1
 515.7 831 l 1,8,-1
 661.5 831 l 2,0,1
515.7 565 m 1,9,-1
 515.7 0 l 1,10,-1
 169.2 0 l 1,11,-1
 169.2 1493 l 1,12,-1
 698.4 1493 l 2,13,14
 963.9 1493 963.9 1493 1087.65 1394 c 128,-1,15
 1211.4 1295 1211.4 1295 1211.4 1081 c 0,16,17
 1211.4 933 1211.4 933 1147.05 838 c 128,-1,18
 1082.7 743 1082.7 743 953.1 698 c 1,19,20
 1024.2 680 1024.2 680 1080.45 616.5 c 128,-1,21
 1136.7 553 1136.7 553 1194.3 424 c 2,22,-1
 1382.4 0 l 1,23,-1
 1013.4 0 l 1,24,-1
 849.6 371 l 2,25,26
 800.1 483 800.1 483 749.25 524 c 128,-1,27
 698.4 565 698.4 565 613.8 565 c 2,28,-1
 515.7 565 l 1,9,-1
EndSplineSet
KernsSLIFO: 356 -92 2 0 253 -92 2 0 221 -112 2 0 376 -112 2 0 255 -92 2 0 121 -92 2 0 89 -112 2 0 84 -92 2 0 46 38 2 0 44 38 2 0
EndChar
StartChar: S
Encoding: 83 83 83
Width: 1327
Flags: W
AnchorPoint: "below" 632.7 0 basechar 0
AnchorPoint: "above" 632.7 1520 basechar 0
Fore
1104.3 1446 m 1,0,-1
 1104.3 1130 l 1,1,2
 993.6 1185 993.6 1185 888.3 1213 c 128,-1,3
 783 1241 783 1241 689.4 1241 c 0,4,5
 565.2 1241 565.2 1241 505.8 1203 c 128,-1,6
 446.4 1165 446.4 1165 446.4 1085 c 0,7,8
 446.4 1025 446.4 1025 486.45 991.5 c 128,-1,9
 526.5 958 526.5 958 631.8 934 c 2,10,-1
 779.4 901 l 2,11,12
 1003.5 851 1003.5 851 1098 749 c 128,-1,13
 1192.5 647 1192.5 647 1192.5 459 c 0,14,15
 1192.5 212 1192.5 212 1060.65 91.5 c 128,-1,16
 928.8 -29 928.8 -29 657.9 -29 c 0,17,18
 530.1 -29 530.1 -29 401.4 -2 c 128,-1,19
 272.7 25 272.7 25 144 78 c 1,20,-1
 144 403 l 1,21,22
 272.7 327 272.7 327 392.85 288.5 c 128,-1,23
 513 250 513 250 624.6 250 c 0,24,25
 738 250 738 250 798.3 292 c 128,-1,26
 858.6 334 858.6 334 858.6 412 c 0,27,28
 858.6 482 858.6 482 817.65 520 c 128,-1,29
 776.7 558 776.7 558 654.3 588 c 2,30,-1
 520.2 621 l 2,31,32
 318.6 669 318.6 669 225.45 774 c 128,-1,33
 132.3 879 132.3 879 132.3 1057 c 0,34,35
 132.3 1280 132.3 1280 261.9 1400 c 128,-1,36
 391.5 1520 391.5 1520 634.5 1520 c 0,37,38
 745.2 1520 745.2 1520 862.2 1501.5 c 128,-1,39
 979.2 1483 979.2 1483 1104.3 1446 c 1,0,-1
EndSplineSet
KernsSLIFO: 350 -92 2 0 352 -92 2 0 83 -92 2 0
EndChar
StartChar: T
Encoding: 84 84 84
Width: 1257
Flags: W
AnchorPoint: "below" 628.2 0 basechar 0
AnchorPoint: "above" 628.2 1520 basechar 0
Fore
9 1493 m 1,0,-1
 1247.4 1493 l 1,1,-1
 1247.4 1202 l 1,2,-1
 801.9 1202 l 1,3,-1
 801.9 0 l 1,4,-1
 455.4 0 l 1,5,-1
 455.4 1202 l 1,6,-1
 9 1202 l 1,7,-1
 9 1493 l 1,0,-1
EndSplineSet
KernsSLIFO: 252 -225 2 0 229 -264 2 0 230 -196 2 0 59 -112 2 0 242 -272 2 0 45 -301 2 0 8222 -264 2 0 367 -225 2 0 245 -272 2 0 235 -272 2 0 249 -225 2 0 58 -112 2 0 224 -264 2 0 195 -159 2 0 234 -272 2 0 231 -272 2 0 341 -225 2 0 232 -272 2 0 196 -159 2 0 193 -159 2 0 269 -272 2 0 345 -225 2 0 251 -225 2 0 253 -243 2 0 8218 -264 2 0 227 -264 2 0 194 -159 2 0 248 -159 2 0 244 -272 2 0 353 -272 2 0 65 -159 2 0 283 -272 2 0 351 -272 2 0 228 -264 2 0 119 -225 2 0 246 -272 2 0 250 -225 2 0 263 -272 2 0 225 -264 2 0 46 -311 2 0 84 47 2 0 226 -264 2 0 233 -272 2 0 97 -264 2 0 99 -272 2 0 101 -272 2 0 339 -159 2 0 255 -243 2 0 111 -272 2 0 115 -272 2 0 114 -225 2 0 117 -225 2 0 192 -159 2 0 121 -243 2 0 44 -292 2 0 243 -272 2 0
EndChar
StartChar: U
Encoding: 85 85 85
Width: 1496
Flags: W
AnchorPoint: "below" 747 0 basechar 0
AnchorPoint: "above" 747 1520 basechar 0
Fore
169.2 1493 m 1,0,-1
 515.7 1493 l 1,1,-1
 515.7 598 l 2,2,3
 515.7 413 515.7 413 570.15 333.5 c 128,-1,4
 624.6 254 624.6 254 747.9 254 c 0,5,6
 872.1 254 872.1 254 926.55 333.5 c 128,-1,7
 981 413 981 413 981 598 c 2,8,-1
 981 1493 l 1,9,-1
 1327.5 1493 l 1,10,-1
 1327.5 598 l 2,11,12
 1327.5 281 1327.5 281 1184.4 126 c 128,-1,13
 1041.3 -29 1041.3 -29 747.9 -29 c 0,14,15
 455.4 -29 455.4 -29 312.3 126 c 128,-1,16
 169.2 281 169.2 281 169.2 598 c 2,17,-1
 169.2 1493 l 1,0,-1
EndSplineSet
KernsSLIFO: 193 -63 2 0 194 -63 2 0 195 -63 2 0 192 -63 2 0 196 -63 2 0 65 -63 2 0
EndChar
StartChar: V
Encoding: 86 86 86
Width: 1426
Flags: W
AnchorPoint: "above" 713.7 1520 basechar 0
AnchorPoint: "below" 713.7 0 basechar 0
Fore
9 1493 m 1,0,-1
 357.3 1493 l 1,1,-1
 713.7 391 l 1,2,-1
 1069.2 1493 l 1,3,-1
 1417.5 1493 l 1,4,-1
 919.8 0 l 1,5,-1
 506.7 0 l 1,6,-1
 9 1493 l 1,0,-1
EndSplineSet
KernsSLIFO: 367 -73 2 0 283 -112 2 0 210 -36 2 0 212 -36 2 0 211 -36 2 0 193 -139 2 0 194 -139 2 0 8222 -188 2 0 8218 -225 2 0 339 -112 2 0 338 -36 2 0 213 -36 2 0 195 -139 2 0 192 -139 2 0 248 -112 2 0 230 -112 2 0 216 -36 2 0 252 -73 2 0 251 -73 2 0 249 -73 2 0 250 -73 2 0 245 -112 2 0 246 -112 2 0 244 -112 2 0 242 -112 2 0 243 -112 2 0 235 -112 2 0 234 -112 2 0 232 -112 2 0 233 -112 2 0 229 -112 2 0 227 -112 2 0 228 -112 2 0 226 -112 2 0 224 -112 2 0 225 -112 2 0 214 -36 2 0 196 -139 2 0 117 -73 2 0 111 -112 2 0 105 -36 2 0 101 -112 2 0 97 -112 2 0 79 -36 2 0 65 -139 2 0 59 -92 2 0 58 -92 2 0 46 -264 2 0 45 -149 2 0 44 -264 2 0
EndChar
StartChar: W
Encoding: 87 87 87
Width: 2033
Flags: W
AnchorPoint: "below" 1013.4 0 basechar 0
AnchorPoint: "above" 1013.4 1527 basechar 0
Fore
54.9004 1493 m 1,0,-1
 387 1493 l 1,1,-1
 619.2 408 l 1,2,-1
 849.6 1493 l 1,3,-1
 1183.5 1493 l 1,4,-1
 1413.9 408 l 1,5,-1
 1646.1 1493 l 1,6,-1
 1975.5 1493 l 1,7,-1
 1658.7 0 l 1,8,-1
 1259.1 0 l 1,9,-1
 1015.2 1135 l 1,10,-1
 774 0 l 1,11,-1
 374.4 0 l 1,12,-1
 54.9004 1493 l 1,0,-1
EndSplineSet
KernsSLIFO: 229 -73 2 0 230 -73 2 0 59 -63 2 0 242 -73 2 0 45 -92 2 0 46 -167 2 0 245 -73 2 0 235 -73 2 0 44 -167 2 0 224 -73 2 0 195 -92 2 0 234 -73 2 0 341 -36 2 0 232 -73 2 0 196 -92 2 0 193 -92 2 0 227 -73 2 0 194 -92 2 0 248 -73 2 0 244 -73 2 0 65 -92 2 0 97 -73 2 0 228 -73 2 0 246 -73 2 0 225 -73 2 0 345 -36 2 0 226 -73 2 0 233 -73 2 0 283 -73 2 0 101 -73 2 0 339 -73 2 0 111 -73 2 0 114 -36 2 0 192 -92 2 0 58 -63 2 0 243 -73 2 0
EndChar
StartChar: X
Encoding: 88 88 88
Width: 1421
Flags: W
AnchorPoint: "above" 709.2 1527 basechar 0
AnchorPoint: "below" 709.2 0 basechar 0
Fore
918 762 m 1,0,-1
 1384.2 0 l 1,1,-1
 1023.3 0 l 1,2,-1
 709.2 510 l 1,3,-1
 397.8 0 l 1,4,-1
 35.0996 0 l 1,5,-1
 501.3 762 l 1,6,-1
 53.0996 1493 l 1,7,-1
 414.9 1493 l 1,8,-1
 709.2 1012 l 1,9,-1
 1002.6 1493 l 1,10,-1
 1366.2 1493 l 1,11,-1
 918 762 l 1,0,-1
EndSplineSet
KernsSLIFO: 283 -55 2 0 268 -73 2 0 262 -73 2 0 210 -73 2 0 212 -73 2 0 211 -73 2 0 8222 38 2 0 8218 38 2 0 338 -73 2 0 213 -73 2 0 216 -73 2 0 235 -55 2 0 234 -55 2 0 232 -55 2 0 233 -55 2 0 214 -73 2 0 199 -73 2 0 101 -55 2 0 79 -73 2 0 67 -73 2 0 45 -167 2 0
EndChar
StartChar: Y
Encoding: 89 89 89
Width: 1334
Flags: W
AnchorPoint: "below" 666.9 0 basechar 0
AnchorPoint: "above" 666.9 1527 basechar 0
Fore
-18 1493 m 1,0,-1
 360.9 1493 l 1,1,-1
 666.9 961 l 1,2,-1
 972.9 1493 l 1,3,-1
 1352.7 1493 l 1,4,-1
 840.6 629 l 1,5,-1
 840.6 0 l 1,6,-1
 494.1 0 l 1,7,-1
 494.1 629 l 1,8,-1
 -18 1493 l 1,0,-1
EndSplineSet
KernsSLIFO: 367 -149 2 0 283 -188 2 0 268 -73 2 0 262 -73 2 0 210 -73 2 0 212 -73 2 0 211 -73 2 0 193 -196 2 0 194 -196 2 0 8222 -301 2 0 8218 -376 2 0 339 -188 2 0 338 -92 2 0 213 -73 2 0 195 -196 2 0 192 -196 2 0 248 -188 2 0 230 -188 2 0 216 -36 2 0 252 -149 2 0 251 -149 2 0 249 -149 2 0 250 -149 2 0 245 -188 2 0 246 -188 2 0 244 -188 2 0 242 -188 2 0 243 -188 2 0 235 -188 2 0 234 -188 2 0 232 -188 2 0 233 -188 2 0 229 -188 2 0 227 -188 2 0 228 -188 2 0 226 -188 2 0 224 -188 2 0 225 -188 2 0 214 -73 2 0 199 -73 2 0 196 -196 2 0 117 -149 2 0 111 -188 2 0 101 -188 2 0 97 -188 2 0 79 -73 2 0 67 -73 2 0 65 -196 2 0 59 -178 2 0 58 -178 2 0 46 -339 2 0 45 -301 2 0 44 -339 2 0
EndChar
StartChar: Z
Encoding: 90 90 90
Width: 1336
Flags: W
AnchorPoint: "below" 667.8 -12 basechar 0
AnchorPoint: "above" 667.8 1520 basechar 0
Fore
103.5 1493 m 1,0,-1
 1233 1493 l 1,1,-1
 1233 1260 l 1,2,-1
 512.1 291 l 1,3,-1
 1253.7 291 l 1,4,-1
 1253.7 0 l 1,5,-1
 82.7998 0 l 1,6,-1
 82.7998 233 l 1,7,-1
 803.7 1202 l 1,8,-1
 103.5 1202 l 1,9,-1
 103.5 1493 l 1,0,-1
EndSplineSet
KernsSLIFO: 45 -36 2 0
EndChar
StartChar: bracketleft
Encoding: 91 91 91
Width: 842
Flags: W
Fore
158.4 1556 m 1,0,-1
 717.3 1556 l 1,1,-1
 717.3 1331 l 1,2,-1
 464.4 1331 l 1,3,-1
 464.4 -45 l 1,4,-1
 717.3 -45 l 1,5,-1
 717.3 -270 l 1,6,-1
 158.4 -270 l 1,7,-1
 158.4 1556 l 1,0,-1
EndSplineSet
EndChar
StartChar: backslash
Encoding: 92 92 92
Width: 673
Flags: W
Fore
473.4 -190 m 1,0,-1
 0 1493 l 1,1,-1
 198.9 1493 l 1,2,-1
 673.2 -190 l 1,3,-1
 473.4 -190 l 1,0,-1
EndSplineSet
EndChar
StartChar: bracketright
Encoding: 93 93 93
Width: 842
Flags: W
Fore
684 -270 m 1,0,-1
 125.1 -270 l 1,1,-1
 125.1 -45 l 1,2,-1
 378 -45 l 1,3,-1
 378 1331 l 1,4,-1
 125.1 1331 l 1,5,-1
 125.1 1556 l 1,6,-1
 684 1556 l 1,7,-1
 684 -270 l 1,0,-1
EndSplineSet
EndChar
StartChar: asciicircum
Encoding: 94 94 94
Width: 1544
Flags: W
Fore
882.9 1493 m 1,0,-1
 1358.1 936 l 1,1,-1
 1141.2 936 l 1,2,-1
 772.2 1237 l 1,3,-1
 404.1 936 l 1,4,-1
 186.3 936 l 1,5,-1
 661.5 1493 l 1,6,-1
 882.9 1493 l 1,0,-1
EndSplineSet
EndChar
StartChar: underscore
Encoding: 95 95 95
Width: 921
Flags: W
Fore
921.6 -293 m 1,0,-1
 921.6 -483 l 1,1,-1
 0 -483 l 1,2,-1
 0 -293 l 1,3,-1
 921.6 -293 l 1,0,-1
EndSplineSet
EndChar
StartChar: grave
Encoding: 96 96 96
Width: 921
Flags: W
Fore
339.3 1638 m 1,0,-1
 593.1 1262 l 1,1,-1
 416.7 1262 l 1,2,-1
 84.5996 1638 l 1,3,-1
 339.3 1638 l 1,0,-1
EndSplineSet
EndChar
StartChar: a
Encoding: 97 97 97
Width: 1243
Flags: W
AnchorPoint: "below" 628.2 0 basechar 0
AnchorPoint: "above" 628.2 1147 basechar 0
Fore
606.6 504 m 2,0,1
 505.8 504 505.8 504 454.95 466 c 128,-1,2
 404.1 428 404.1 428 404.1 354 c 0,3,4
 404.1 286 404.1 286 445.05 247.5 c 128,-1,5
 486 209 486 209 558.9 209 c 0,6,7
 649.8 209 649.8 209 711.9 281.5 c 128,-1,8
 774 354 774 354 774 463 c 2,9,-1
 774 504 l 1,10,-1
 606.6 504 l 2,0,1
1098.9 639 m 2,11,-1
 1098.9 0 l 1,12,-1
 774 0 l 1,13,-1
 774 166 l 1,14,15
 709.2 64 709.2 64 628.2 17.5 c 128,-1,16
 547.2 -29 547.2 -29 431.1 -29 c 0,17,18
 274.5 -29 274.5 -29 176.85 72.5 c 128,-1,19
 79.2002 174 79.2002 174 79.2002 336 c 0,20,21
 79.2002 533 79.2002 533 201.15 625 c 128,-1,22
 323.1 717 323.1 717 584.1 717 c 2,23,-1
 774 717 l 1,24,-1
 774 745 l 2,25,26
 774 830 774 830 713.7 869.5 c 128,-1,27
 653.4 909 653.4 909 525.6 909 c 0,28,29
 422.1 909 422.1 909 333 886 c 128,-1,30
 243.9 863 243.9 863 167.4 817 c 1,31,-1
 167.4 1090 l 1,32,33
 270.9 1118 270.9 1118 375.3 1132.5 c 128,-1,34
 479.7 1147 479.7 1147 584.1 1147 c 0,35,36
 856.8 1147 856.8 1147 977.85 1027.5 c 128,-1,37
 1098.9 908 1098.9 908 1098.9 639 c 2,11,-1
EndSplineSet
KernsSLIFO: 253 -63 2 0 255 -63 2 0 121 -63 2 0
Substitution: 0 2 'salt' uni0251
Substitution: 0 2 'aalt' uni0251
EndChar
StartChar: b
Encoding: 98 98 98
Width: 1319
Flags: W
AnchorPoint: "below" 628.2 0 basechar 0
AnchorPoint: "above" 320.4 1520 basechar 0
Fore
691.2 231 m 0,0,1
 794.7 231 794.7 231 849.15 315 c 128,-1,2
 903.6 399 903.6 399 903.6 559 c 0,3,4
 903.6 719 903.6 719 849.15 803 c 128,-1,5
 794.7 887 794.7 887 691.2 887 c 0,6,7
 587.7 887 587.7 887 532.35 802.5 c 128,-1,8
 477 718 477 718 477 559 c 0,9,10
 477 400 477 400 532.35 315.5 c 128,-1,11
 587.7 231 587.7 231 691.2 231 c 0,0,1
477 956 m 1,12,13
 543.6 1054 543.6 1054 624.6 1100.5 c 128,-1,14
 705.6 1147 705.6 1147 810.9 1147 c 0,15,16
 997.2 1147 997.2 1147 1116.9 982.5 c 128,-1,17
 1236.6 818 1236.6 818 1236.6 559 c 0,18,19
 1236.6 300 1236.6 300 1116.9 135.5 c 128,-1,20
 997.2 -29 997.2 -29 810.9 -29 c 0,21,22
 705.6 -29 705.6 -29 624.6 17.5 c 128,-1,23
 543.6 64 543.6 64 477 162 c 1,24,-1
 477 0 l 1,25,-1
 154.8 0 l 1,26,-1
 154.8 1556 l 1,27,-1
 477 1556 l 1,28,-1
 477 956 l 1,12,13
EndSplineSet
EndChar
StartChar: c
Encoding: 99 99 99
Width: 1092
Flags: W
AnchorPoint: "below" 659.7 0 basechar 0
AnchorPoint: "above" 659.7 1147 basechar 0
Fore
969.3 1085 m 1,0,-1
 969.3 793 l 1,1,2
 903.6 843 903.6 843 837.45 867 c 128,-1,3
 771.3 891 771.3 891 700.2 891 c 0,4,5
 565.2 891 565.2 891 490.05 803.5 c 128,-1,6
 414.9 716 414.9 716 414.9 559 c 0,7,8
 414.9 402 414.9 402 490.05 314.5 c 128,-1,9
 565.2 227 565.2 227 700.2 227 c 0,10,11
 775.8 227 775.8 227 843.75 252 c 128,-1,12
 911.7 277 911.7 277 969.3 326 c 1,13,-1
 969.3 33 l 1,14,15
 893.7 2 893.7 2 815.85 -13.5 c 128,-1,16
 738 -29 738 -29 659.7 -29 c 0,17,18
 387 -29 387 -29 233.1 126.5 c 128,-1,19
 79.2002 282 79.2002 282 79.2002 559 c 0,20,21
 79.2002 836 79.2002 836 233.1 991.5 c 128,-1,22
 387 1147 387 1147 659.7 1147 c 0,23,24
 738.9 1147 738.9 1147 815.85 1131.5 c 128,-1,25
 892.8 1116 892.8 1116 969.3 1085 c 1,0,-1
EndSplineSet
EndChar
StartChar: d
Encoding: 100 100 100
Width: 1319
Flags: W
AnchorPoint: "below" 656.1 0 basechar 0
AnchorPoint: "above" 1002.6 1520 basechar 0
Fore
840.6 956 m 1,0,-1
 840.6 1556 l 1,1,-1
 1164.6 1556 l 1,2,-1
 1164.6 0 l 1,3,-1
 840.6 0 l 1,4,-1
 840.6 162 l 1,5,6
 774 63 774 63 693.9 17 c 128,-1,7
 613.8 -29 613.8 -29 508.5 -29 c 0,8,9
 322.2 -29 322.2 -29 202.5 135.5 c 128,-1,10
 82.7998 300 82.7998 300 82.7998 559 c 0,11,12
 82.7998 818 82.7998 818 202.5 982.5 c 128,-1,13
 322.2 1147 322.2 1147 508.5 1147 c 0,14,15
 612.9 1147 612.9 1147 693.45 1100.5 c 128,-1,16
 774 1054 774 1054 840.6 956 c 1,0,-1
628.2 231 m 0,17,18
 731.7 231 731.7 231 786.15 315 c 128,-1,19
 840.6 399 840.6 399 840.6 559 c 0,20,21
 840.6 719 840.6 719 786.15 803 c 128,-1,22
 731.7 887 731.7 887 628.2 887 c 0,23,24
 525.6 887 525.6 887 471.15 803 c 128,-1,25
 416.7 719 416.7 719 416.7 559 c 0,26,27
 416.7 399 416.7 399 471.15 315 c 128,-1,28
 525.6 231 525.6 231 628.2 231 c 0,17,18
EndSplineSet
EndChar
StartChar: e
Encoding: 101 101 101
Width: 1250
Flags: W
AnchorPoint: "below" 656.1 0 basechar 0
AnchorPoint: "above" 656.1 1147 basechar 0
Fore
1161 563 m 2,0,-1
 1161 461 l 1,1,-1
 407.7 461 l 1,2,3
 419.4 335 419.4 335 489.6 272 c 128,-1,4
 559.8 209 559.8 209 685.8 209 c 0,5,6
 787.5 209 787.5 209 894.15 242.5 c 128,-1,7
 1000.8 276 1000.8 276 1113.3 344 c 1,8,-1
 1113.3 68 l 1,9,10
 999 20 999 20 884.7 -4.5 c 128,-1,11
 770.4 -29 770.4 -29 656.1 -29 c 0,12,13
 382.5 -29 382.5 -29 230.85 125.5 c 128,-1,14
 79.2002 280 79.2002 280 79.2002 559 c 0,15,16
 79.2002 833 79.2002 833 228.15 990 c 128,-1,17
 377.1 1147 377.1 1147 638.1 1147 c 0,18,19
 875.7 1147 875.7 1147 1018.35 988 c 128,-1,20
 1161 829 1161 829 1161 563 c 2,0,-1
829.8 682 m 1,21,22
 829.8 784 829.8 784 776.25 846.5 c 128,-1,23
 722.7 909 722.7 909 636.3 909 c 0,24,25
 542.7 909 542.7 909 484.2 850.5 c 128,-1,26
 425.7 792 425.7 792 411.3 682 c 1,27,-1
 829.8 682 l 1,21,22
EndSplineSet
EndChar
StartChar: f
Encoding: 102 102 102
Width: 801
Flags: W
AnchorPoint: "below" 354.6 0 basechar 0
AnchorPoint: "above" 354.6 1520 basechar 0
Fore
818.1 1556 m 1,0,-1
 818.1 1321 l 1,1,-1
 639.9 1321 l 2,2,3
 571.5 1321 571.5 1321 544.5 1293.5 c 128,-1,4
 517.5 1266 517.5 1266 517.5 1198 c 2,5,-1
 517.5 1120 l 1,6,-1
 792.9 1120 l 1,7,-1
 792.9 864 l 1,8,-1
 517.5 864 l 1,9,-1
 517.5 0 l 1,10,-1
 195.3 0 l 1,11,-1
 195.3 864 l 1,12,-1
 35.0996 864 l 1,13,-1
 35.0996 1120 l 1,14,-1
 195.3 1120 l 1,15,-1
 195.3 1198 l 2,16,17
 195.3 1381 195.3 1381 287.1 1468.5 c 128,-1,18
 378.9 1556 378.9 1556 571.5 1556 c 2,19,-1
 818.1 1556 l 1,0,-1
EndSplineSet
KernsSLIFO: 8217 141 2 0 8221 86 2 0 46 -112 2 0 45 -36 2 0 44 -112 2 0
EndChar
StartChar: g
Encoding: 103 103 103
Width: 1319
Flags: W
AnchorPoint: "below" 628.2 -430 basechar 0
AnchorPoint: "above" 628.2 1147 basechar 0
Fore
840.6 190 m 1,0,1
 774 92 774 92 693.9 46 c 128,-1,2
 613.8 0 613.8 0 508.5 0 c 0,3,4
 324 0 324 0 203.4 161.5 c 128,-1,5
 82.7998 323 82.7998 323 82.7998 573 c 0,6,7
 82.7998 824 82.7998 824 203.4 984.5 c 128,-1,8
 324 1145 324 1145 508.5 1145 c 0,9,10
 613.8 1145 613.8 1145 693.9 1099 c 128,-1,11
 774 1053 774 1053 840.6 954 c 1,12,-1
 840.6 1120 l 1,13,-1
 1164.6 1120 l 1,14,-1
 1164.6 113 l 2,15,16
 1164.6 -157 1164.6 -157 1011.15 -299.5 c 128,-1,17
 857.7 -442 857.7 -442 566.1 -442 c 0,18,19
 471.6 -442 471.6 -442 383.4 -426 c 128,-1,20
 295.2 -410 295.2 -410 206.1 -377 c 1,21,-1
 206.1 -98 l 1,22,23
 290.7 -152 290.7 -152 371.7 -178.5 c 128,-1,24
 452.7 -205 452.7 -205 534.6 -205 c 0,25,26
 693 -205 693 -205 766.8 -128 c 128,-1,27
 840.6 -51 840.6 -51 840.6 113 c 2,28,-1
 840.6 190 l 1,0,1
628.2 887 m 0,29,30
 528.3 887 528.3 887 472.5 805 c 128,-1,31
 416.7 723 416.7 723 416.7 573 c 0,32,33
 416.7 419 416.7 419 470.7 339.5 c 128,-1,34
 524.7 260 524.7 260 628.2 260 c 0,35,36
 729 260 729 260 784.8 342 c 128,-1,37
 840.6 424 840.6 424 840.6 573 c 0,38,39
 840.6 723 840.6 723 784.8 805 c 128,-1,40
 729 887 729 887 628.2 887 c 0,29,30
EndSplineSet
EndChar
StartChar: h
Encoding: 104 104 104
Width: 1312
Flags: W
AnchorPoint: "below" 628.2 0 basechar 0
AnchorPoint: "above" 320.4 1520 basechar 0
Fore
1168.2 682 m 2,0,-1
 1168.2 0 l 1,1,-1
 844.2 0 l 1,2,-1
 844.2 111 l 1,3,-1
 844.2 520 l 2,4,5
 844.2 667 844.2 667 838.35 722 c 128,-1,6
 832.5 777 832.5 777 818.1 803 c 0,7,8
 799.2 838 799.2 838 766.8 857.5 c 128,-1,9
 734.4 877 734.4 877 693 877 c 0,10,11
 592.2 877 592.2 877 534.6 790.5 c 128,-1,12
 477 704 477 704 477 551 c 2,13,-1
 477 0 l 1,14,-1
 154.8 0 l 1,15,-1
 154.8 1556 l 1,16,-1
 477 1556 l 1,17,-1
 477 956 l 1,18,19
 549.9 1054 549.9 1054 631.8 1100.5 c 128,-1,20
 713.7 1147 713.7 1147 812.7 1147 c 0,21,22
 987.3 1147 987.3 1147 1077.75 1028 c 128,-1,23
 1168.2 909 1168.2 909 1168.2 682 c 2,0,-1
EndSplineSet
EndChar
StartChar: i
Encoding: 105 105 105
Width: 631
Flags: W
AnchorPoint: "below" 315 0 basechar 0
AnchorPoint: "above" 315 1583 basechar 0
Fore
154.8 1120 m 1,0,-1
 477 1120 l 1,1,-1
 477 0 l 1,2,-1
 154.8 0 l 1,3,-1
 154.8 1120 l 1,0,-1
154.8 1556 m 1,4,-1
 477 1556 l 1,5,-1
 477 1264 l 1,6,-1
 154.8 1264 l 1,7,-1
 154.8 1556 l 1,4,-1
EndSplineSet
Substitution: 0 65534 's001' dotlessi
EndChar
StartChar: j
Encoding: 106 106 106
Width: 631
Flags: W
AnchorPoint: "below" 315.9 -430 basechar 0
AnchorPoint: "above" 315.9 1583 basechar 0
Fore
154.8 1120 m 1,0,-1
 477 1120 l 1,1,-1
 477 20 l 2,2,3
 477 -205 477 -205 379.8 -323.5 c 128,-1,4
 282.6 -442 282.6 -442 98.0996 -442 c 2,5,-1
 -61.2002 -442 l 1,6,-1
 -61.2002 -207 l 1,7,-1
 -5.40039 -207 l 2,8,9
 86.4004 -207 86.4004 -207 120.6 -161 c 128,-1,10
 154.8 -115 154.8 -115 154.8 20 c 2,11,-1
 154.8 1120 l 1,0,-1
154.8 1556 m 1,12,-1
 477 1556 l 1,13,-1
 477 1264 l 1,14,-1
 154.8 1264 l 1,15,-1
 154.8 1556 l 1,12,-1
EndSplineSet
Substitution: 0 65534 's001' dotlessj
EndChar
StartChar: k
Encoding: 107 107 107
Width: 1225
Flags: W
AnchorPoint: "below" 628.2 0 basechar 0
AnchorPoint: "above" 320.4 1520 basechar 0
Fore
154.8 1556 m 1,0,-1
 477 1556 l 1,1,-1
 477 709 l 1,2,-1
 847.8 1120 l 1,3,-1
 1222.2 1120 l 1,4,-1
 729.9 606 l 1,5,-1
 1260.9 0 l 1,6,-1
 870.3 0 l 1,7,-1
 477 467 l 1,8,-1
 477 0 l 1,9,-1
 154.8 0 l 1,10,-1
 154.8 1556 l 1,0,-1
EndSplineSet
KernsSLIFO: 283 -55 2 0 339 -55 2 0 248 -45 2 0 245 -55 2 0 246 -55 2 0 244 -55 2 0 242 -55 2 0 243 -55 2 0 235 -55 2 0 234 -55 2 0 232 -55 2 0 233 -55 2 0 111 -55 2 0 101 -55 2 0
EndChar
StartChar: l
Encoding: 108 108 108
Width: 631
Flags: W
AnchorPoint: "below" 320.4 0 basechar 0
AnchorPoint: "above" 320.4 1520 basechar 0
Fore
154.8 1556 m 1,0,-1
 477 1556 l 1,1,-1
 477 0 l 1,2,-1
 154.8 0 l 1,3,-1
 154.8 1556 l 1,0,-1
EndSplineSet
AlternateSubs: 0 2 'aalt' l.alt
Substitution: 0 2 'salt' l.alt
EndChar
StartChar: m
Encoding: 109 109 109
Width: 1920
Flags: W
AnchorPoint: "below" 963.9 0 basechar 0
AnchorPoint: "above" 963.9 1147 basechar 0
Fore
1089 934 m 1,0,1
 1150.2 1038 1150.2 1038 1234.35 1092.5 c 128,-1,2
 1318.5 1147 1318.5 1147 1419.3 1147 c 0,3,4
 1593 1147 1593 1147 1683.9 1028 c 128,-1,5
 1774.8 909 1774.8 909 1774.8 682 c 2,6,-1
 1774.8 0 l 1,7,-1
 1450.8 0 l 1,8,-1
 1450.8 584 l 1,9,10
 1451.7 597 1451.7 597 1452.15 611 c 128,-1,11
 1452.6 625 1452.6 625 1452.6 651 c 0,12,13
 1452.6 770 1452.6 770 1421.1 823.5 c 128,-1,14
 1389.6 877 1389.6 877 1319.4 877 c 0,15,16
 1227.6 877 1227.6 877 1177.65 793 c 128,-1,17
 1127.7 709 1127.7 709 1125.9 550 c 1,18,-1
 1125.9 0 l 1,19,-1
 801.9 0 l 1,20,-1
 801.9 584 l 2,21,22
 801.9 770 801.9 770 773.1 823.5 c 128,-1,23
 744.3 877 744.3 877 670.5 877 c 0,24,25
 577.8 877 577.8 877 527.4 792.5 c 128,-1,26
 477 708 477 708 477 551 c 2,27,-1
 477 0 l 1,28,-1
 153 0 l 1,29,-1
 153 1120 l 1,30,-1
 477 1120 l 1,31,-1
 477 956 l 1,32,33
 536.4 1051 536.4 1051 613.35 1099 c 128,-1,34
 690.3 1147 690.3 1147 783 1147 c 0,35,36
 887.4 1147 887.4 1147 967.5 1091 c 128,-1,37
 1047.6 1035 1047.6 1035 1089 934 c 1,0,1
EndSplineSet
EndChar
StartChar: n
Encoding: 110 110 110
Width: 1312
Flags: W
AnchorPoint: "below" 612.9 0 basechar 0
AnchorPoint: "above" 612.9 1147 basechar 0
Fore
1168.2 682 m 2,0,-1
 1168.2 0 l 1,1,-1
 844.2 0 l 1,2,-1
 844.2 111 l 1,3,-1
 844.2 522 l 2,4,5
 844.2 667 844.2 667 838.35 722 c 128,-1,6
 832.5 777 832.5 777 818.1 803 c 0,7,8
 799.2 838 799.2 838 766.8 857.5 c 128,-1,9
 734.4 877 734.4 877 693 877 c 0,10,11
 592.2 877 592.2 877 534.6 790.5 c 128,-1,12
 477 704 477 704 477 551 c 2,13,-1
 477 0 l 1,14,-1
 154.8 0 l 1,15,-1
 154.8 1120 l 1,16,-1
 477 1120 l 1,17,-1
 477 956 l 1,18,19
 549.9 1054 549.9 1054 631.8 1100.5 c 128,-1,20
 713.7 1147 713.7 1147 812.7 1147 c 0,21,22
 987.3 1147 987.3 1147 1077.75 1028 c 128,-1,23
 1168.2 909 1168.2 909 1168.2 682 c 2,0,-1
EndSplineSet
EndChar
StartChar: o
Encoding: 111 111 111
Width: 1266
Flags: W
AnchorPoint: "below" 634.5 0 basechar 0
AnchorPoint: "above" 634.5 1147 basechar 0
Fore
634.5 891 m 0,0,1
 527.4 891 527.4 891 471.15 805.5 c 128,-1,2
 414.9 720 414.9 720 414.9 559 c 0,3,4
 414.9 398 414.9 398 471.15 312.5 c 128,-1,5
 527.4 227 527.4 227 634.5 227 c 0,6,7
 739.8 227 739.8 227 795.6 312.5 c 128,-1,8
 851.4 398 851.4 398 851.4 559 c 0,9,10
 851.4 720 851.4 720 795.6 805.5 c 128,-1,11
 739.8 891 739.8 891 634.5 891 c 0,0,1
634.5 1147 m 0,12,13
 894.6 1147 894.6 1147 1040.85 991 c 128,-1,14
 1187.1 835 1187.1 835 1187.1 559 c 0,15,16
 1187.1 283 1187.1 283 1040.85 127 c 128,-1,17
 894.6 -29 894.6 -29 634.5 -29 c 0,18,19
 373.5 -29 373.5 -29 226.35 127 c 128,-1,20
 79.2002 283 79.2002 283 79.2002 559 c 0,21,22
 79.2002 835 79.2002 835 226.35 991 c 128,-1,23
 373.5 1147 373.5 1147 634.5 1147 c 0,12,13
EndSplineSet
EndChar
StartChar: p
Encoding: 112 112 112
Width: 1319
Flags: W
AnchorPoint: "below" 656.1 -430 basechar 0
AnchorPoint: "above" 656.1 1147 basechar 0
Fore
477 162 m 1,0,-1
 477 -426 l 1,1,-1
 154.8 -426 l 1,2,-1
 154.8 1120 l 1,3,-1
 477 1120 l 1,4,-1
 477 956 l 1,5,6
 543.6 1054 543.6 1054 624.6 1100.5 c 128,-1,7
 705.6 1147 705.6 1147 810.9 1147 c 0,8,9
 997.2 1147 997.2 1147 1116.9 982.5 c 128,-1,10
 1236.6 818 1236.6 818 1236.6 559 c 0,11,12
 1236.6 300 1236.6 300 1116.9 135.5 c 128,-1,13
 997.2 -29 997.2 -29 810.9 -29 c 0,14,15
 705.6 -29 705.6 -29 624.6 17.5 c 128,-1,16
 543.6 64 543.6 64 477 162 c 1,0,-1
691.2 887 m 0,17,18
 587.7 887 587.7 887 532.35 802.5 c 128,-1,19
 477 718 477 718 477 559 c 0,20,21
 477 400 477 400 532.35 315.5 c 128,-1,22
 587.7 231 587.7 231 691.2 231 c 0,23,24
 794.7 231 794.7 231 849.15 315 c 128,-1,25
 903.6 399 903.6 399 903.6 559 c 0,26,27
 903.6 719 903.6 719 849.15 803 c 128,-1,28
 794.7 887 794.7 887 691.2 887 c 0,17,18
EndSplineSet
EndChar
StartChar: q
Encoding: 113 113 113
Width: 1319
Flags: W
AnchorPoint: "below" 656.1 -430 basechar 0
AnchorPoint: "above" 656.1 1147 basechar 0
Fore
628.2 887 m 0,0,1
 525.6 887 525.6 887 471.15 803 c 128,-1,2
 416.7 719 416.7 719 416.7 559 c 0,3,4
 416.7 399 416.7 399 471.15 315 c 128,-1,5
 525.6 231 525.6 231 628.2 231 c 0,6,7
 731.7 231 731.7 231 786.15 315 c 128,-1,8
 840.6 399 840.6 399 840.6 559 c 0,9,10
 840.6 719 840.6 719 786.15 803 c 128,-1,11
 731.7 887 731.7 887 628.2 887 c 0,0,1
840.6 162 m 1,12,13
 774 63 774 63 693.9 17 c 128,-1,14
 613.8 -29 613.8 -29 508.5 -29 c 0,15,16
 322.2 -29 322.2 -29 202.5 135.5 c 128,-1,17
 82.7998 300 82.7998 300 82.7998 559 c 0,18,19
 82.7998 818 82.7998 818 202.5 981.5 c 128,-1,20
 322.2 1145 322.2 1145 508.5 1145 c 0,21,22
 613.8 1145 613.8 1145 693.9 1099 c 128,-1,23
 774 1053 774 1053 840.6 954 c 1,24,-1
 840.6 1120 l 1,25,-1
 1164.6 1120 l 1,26,-1
 1164.6 -426 l 1,27,-1
 840.6 -426 l 1,28,-1
 840.6 162 l 1,12,13
EndSplineSet
EndChar
StartChar: r
Encoding: 114 114 114
Width: 909
Flags: W
AnchorPoint: "below" 315 0 basechar 0
AnchorPoint: "above" 537.3 1147 basechar 0
Fore
903.6 815 m 1,0,1
 861.3 837 861.3 837 819.45 847.5 c 128,-1,2
 777.6 858 777.6 858 735.3 858 c 0,3,4
 611.1 858 611.1 858 544.05 769.5 c 128,-1,5
 477 681 477 681 477 516 c 2,6,-1
 477 0 l 1,7,-1
 154.8 0 l 1,8,-1
 154.8 1120 l 1,9,-1
 477 1120 l 1,10,-1
 477 936 l 1,11,12
 539.1 1046 539.1 1046 619.65 1096.5 c 128,-1,13
 700.2 1147 700.2 1147 812.7 1147 c 0,14,15
 828.9 1147 828.9 1147 847.8 1145.5 c 128,-1,16
 866.7 1144 866.7 1144 902.7 1139 c 1,17,-1
 903.6 815 l 1,0,1
EndSplineSet
KernsSLIFO: 8217 86 2 0 8221 38 2 0 46 -292 2 0 44 -301 2 0
EndChar
StartChar: s
Encoding: 115 115 115
Width: 1097
Flags: W
AnchorPoint: "below" 541.8 0 basechar 0
AnchorPoint: "above" 541.8 1147 basechar 0
Fore
942.3 1085 m 1,0,-1
 942.3 813 l 1,1,2
 838.8 861 838.8 861 742.5 885 c 128,-1,3
 646.2 909 646.2 909 560.7 909 c 0,4,5
 468.9 909 468.9 909 424.35 883.5 c 128,-1,6
 379.8 858 379.8 858 379.8 805 c 0,7,8
 379.8 762 379.8 762 413.55 739 c 128,-1,9
 447.3 716 447.3 716 534.6 705 c 1,10,-1
 591.3 696 l 2,11,12
 838.8 661 838.8 661 924.3 581 c 128,-1,13
 1009.8 501 1009.8 501 1009.8 330 c 0,14,15
 1009.8 151 1009.8 151 891 61 c 128,-1,16
 772.2 -29 772.2 -29 536.4 -29 c 0,17,18
 436.5 -29 436.5 -29 329.85 -11.5 c 128,-1,19
 223.2 6 223.2 6 110.7 41 c 1,20,-1
 110.7 313 l 1,21,22
 207 261 207 261 308.25 235 c 128,-1,23
 409.5 209 409.5 209 513.9 209 c 0,24,25
 608.4 209 608.4 209 656.1 238 c 128,-1,26
 703.8 267 703.8 267 703.8 324 c 0,27,28
 703.8 372 703.8 372 670.95 395.5 c 128,-1,29
 638.1 419 638.1 419 540 432 c 2,30,-1
 483.3 440 l 2,31,32
 268.2 470 268.2 470 181.8 551 c 128,-1,33
 95.4004 632 95.4004 632 95.4004 797 c 0,34,35
 95.4004 975 95.4004 975 205.2 1061 c 128,-1,36
 315 1147 315 1147 541.8 1147 c 0,37,38
 630.9 1147 630.9 1147 729 1132 c 128,-1,39
 827.1 1117 827.1 1117 942.3 1085 c 1,0,-1
EndSplineSet
EndChar
StartChar: t
Encoding: 116 116 116
Width: 881
Flags: W
AnchorPoint: "below" 354.6 0 basechar 0
AnchorPoint: "above" 354.6 1520 basechar 0
Fore
506.7 1438 m 1,0,-1
 506.7 1120 l 1,1,-1
 838.8 1120 l 1,2,-1
 838.8 864 l 1,3,-1
 506.7 864 l 1,4,-1
 506.7 389 l 2,5,6
 506.7 311 506.7 311 534.6 283.5 c 128,-1,7
 562.5 256 562.5 256 645.3 256 c 2,8,-1
 810.9 256 l 1,9,-1
 810.9 0 l 1,10,-1
 534.6 0 l 2,11,12
 343.8 0 343.8 0 264.15 88.5 c 128,-1,13
 184.5 177 184.5 177 184.5 389 c 2,14,-1
 184.5 864 l 1,15,-1
 24.2998 864 l 1,16,-1
 24.2998 1120 l 1,17,-1
 184.5 1120 l 1,18,-1
 184.5 1438 l 1,19,-1
 506.7 1438 l 1,0,-1
EndSplineSet
EndChar
StartChar: u
Encoding: 117 117 117
Width: 1312
Flags: W
AnchorPoint: "below" 651.6 0 basechar 0
AnchorPoint: "above" 651.6 1147 basechar 0
Fore
144 436 m 2,0,-1
 144 1120 l 1,1,-1
 468 1120 l 1,2,-1
 468 1008 l 2,3,4
 468 917 468 917 467.1 779.5 c 128,-1,5
 466.2 642 466.2 642 466.2 596 c 0,6,7
 466.2 461 466.2 461 472.5 401.5 c 128,-1,8
 478.8 342 478.8 342 494.1 315 c 0,9,10
 513.9 280 513.9 280 545.85 261 c 128,-1,11
 577.8 242 577.8 242 619.2 242 c 0,12,13
 720 242 720 242 777.6 328 c 128,-1,14
 835.2 414 835.2 414 835.2 567 c 2,15,-1
 835.2 1120 l 1,16,-1
 1157.4 1120 l 1,17,-1
 1157.4 0 l 1,18,-1
 835.2 0 l 1,19,-1
 835.2 162 l 1,20,21
 762.3 64 762.3 64 680.85 17.5 c 128,-1,22
 599.4 -29 599.4 -29 501.3 -29 c 0,23,24
 326.7 -29 326.7 -29 235.35 90 c 128,-1,25
 144 209 144 209 144 436 c 2,0,-1
EndSplineSet
EndChar
StartChar: v
Encoding: 118 118 118
Width: 1201
Flags: W
AnchorPoint: "below" 601.2 0 basechar 0
AnchorPoint: "above" 601.2 1147 basechar 0
Fore
27.9004 1120 m 1,0,-1
 350.1 1120 l 1,1,-1
 601.2 346 l 1,2,-1
 851.4 1120 l 1,3,-1
 1174.5 1120 l 1,4,-1
 777.6 0 l 1,5,-1
 423.9 0 l 1,6,-1
 27.9004 1120 l 1,0,-1
EndSplineSet
KernsSLIFO: 46 -167 2 0 44 -167 2 0
EndChar
StartChar: w
Encoding: 119 119 119
Width: 1702
Flags: W
AnchorPoint: "below" 851.4 0 basechar 0
AnchorPoint: "above" 851.4 1147 basechar 0
Fore
64.7998 1120 m 1,0,-1
 378 1120 l 1,1,-1
 547.2 348 l 1,2,-1
 717.3 1120 l 1,3,-1
 986.4 1120 l 1,4,-1
 1155.6 356 l 1,5,-1
 1325.7 1120 l 1,6,-1
 1638.9 1120 l 1,7,-1
 1373.4 0 l 1,8,-1
 1021.5 0 l 1,9,-1
 851.4 770 l 1,10,-1
 682.2 0 l 1,11,-1
 330.3 0 l 1,12,-1
 64.7998 1120 l 1,0,-1
EndSplineSet
KernsSLIFO: 46 -131 2 0 44 -131 2 0
EndChar
StartChar: x
Encoding: 120 120 120
Width: 1188
Flags: W
AnchorPoint: "below" 593.1 0 basechar 0
AnchorPoint: "above" 593.1 1147 basechar 0
Fore
409.5 573 m 1,0,-1
 45.9004 1120 l 1,1,-1
 387 1120 l 1,2,-1
 593.1 788 l 1,3,-1
 801.9 1120 l 1,4,-1
 1143 1120 l 1,5,-1
 779.4 575 l 1,6,-1
 1161 0 l 1,7,-1
 819.9 0 l 1,8,-1
 593.1 354 l 1,9,-1
 369 0 l 1,10,-1
 27.9004 0 l 1,11,-1
 409.5 573 l 1,0,-1
EndSplineSet
EndChar
StartChar: y
Encoding: 121 121 121
Width: 1201
Flags: W
AnchorPoint: "below" 594.9 -430 basechar 0
AnchorPoint: "above" 594.9 1147 basechar 0
Fore
22.5 1120 m 1,0,-1
 344.7 1120 l 1,1,-1
 615.6 360 l 1,2,-1
 846 1120 l 1,3,-1
 1168.2 1120 l 1,4,-1
 744.3 -106 l 1,5,6
 680.4 -293 680.4 -293 595.35 -367.5 c 128,-1,7
 510.3 -442 510.3 -442 370.8 -442 c 2,8,-1
 184.5 -442 l 1,9,-1
 184.5 -207 l 1,10,-1
 285.3 -207 l 2,11,12
 367.2 -207 367.2 -207 404.55 -178 c 128,-1,13
 441.9 -149 441.9 -149 462.6 -74 c 1,14,-1
 471.6 -43 l 1,15,-1
 22.5 1120 l 1,0,-1
EndSplineSet
KernsSLIFO: 46 -188 2 0 44 -159 2 0
EndChar
StartChar: z
Encoding: 122 122 122
Width: 1072
Flags: W
AnchorPoint: "below" 536.4 0 basechar 0
AnchorPoint: "above" 536.4 1147 basechar 0
Fore
105.3 1120 m 1,0,-1
 984.6 1120 l 1,1,-1
 984.6 870 l 1,2,-1
 453.6 256 l 1,3,-1
 984.6 256 l 1,4,-1
 984.6 0 l 1,5,-1
 82.7998 0 l 1,6,-1
 82.7998 250 l 1,7,-1
 613.8 864 l 1,8,-1
 105.3 864 l 1,9,-1
 105.3 1120 l 1,0,-1
EndSplineSet
EndChar
StartChar: braceleft
Encoding: 123 123 123
Width: 1312
Flags: W
Fore
1081.8 -109 m 1,0,-1
 1081.8 -334 l 1,1,-1
 886.5 -334 l 2,2,3
 690.3 -334 690.3 -334 600.3 -246 c 128,-1,4
 510.3 -158 510.3 -158 510.3 35 c 2,5,-1
 510.3 227 l 2,6,7
 510.3 377 510.3 377 461.7 435.5 c 128,-1,8
 413.1 494 413.1 494 285.3 494 c 2,9,-1
 230.4 494 l 1,10,-1
 230.4 717 l 1,11,-1
 285.3 717 l 2,12,13
 413.1 717 413.1 717 461.7 775 c 128,-1,14
 510.3 833 510.3 833 510.3 983 c 2,15,-1
 510.3 1188 l 2,16,17
 510.3 1381 510.3 1381 600.3 1468.5 c 128,-1,18
 690.3 1556 690.3 1556 886.5 1556 c 2,19,-1
 1081.8 1556 l 1,20,-1
 1081.8 1331 l 1,21,-1
 1019.7 1331 l 2,22,23
 892.8 1331 892.8 1331 854.55 1287.5 c 128,-1,24
 816.3 1244 816.3 1244 816.3 1102 c 2,25,-1
 816.3 936 l 2,26,27
 816.3 779 816.3 779 775.8 708 c 128,-1,28
 735.3 637 735.3 637 636.3 612 c 1,29,30
 736.2 585 736.2 585 776.25 514 c 128,-1,31
 816.3 443 816.3 443 816.3 287 c 2,32,-1
 816.3 121 l 2,33,34
 816.3 -22 816.3 -22 854.55 -65.5 c 128,-1,35
 892.8 -109 892.8 -109 1019.7 -109 c 2,36,-1
 1081.8 -109 l 1,0,-1
EndSplineSet
EndChar
StartChar: bar
Encoding: 124 124 124
Width: 673
Flags: W
Fore
438.3 1565 m 1,0,-1
 438.3 -483 l 1,1,-1
 234 -483 l 1,2,-1
 234 1565 l 1,3,-1
 438.3 1565 l 1,0,-1
EndSplineSet
EndChar
StartChar: braceright
Encoding: 125 125 125
Width: 1312
Flags: W
Fore
230.4 -109 m 1,0,-1
 293.4 -109 l 2,1,2
 419.4 -109 419.4 -109 457.65 -65.5 c 128,-1,3
 495.9 -22 495.9 -22 495.9 121 c 2,4,-1
 495.9 287 l 2,5,6
 495.9 443 495.9 443 536.4 514 c 128,-1,7
 576.9 585 576.9 585 676.8 612 c 1,8,9
 576.9 637 576.9 637 536.4 708 c 128,-1,10
 495.9 779 495.9 779 495.9 936 c 2,11,-1
 495.9 1102 l 2,12,13
 495.9 1244 495.9 1244 457.65 1287.5 c 128,-1,14
 419.4 1331 419.4 1331 293.4 1331 c 2,15,-1
 230.4 1331 l 1,16,-1
 230.4 1556 l 1,17,-1
 425.7 1556 l 2,18,19
 621.9 1556 621.9 1556 711.9 1468.5 c 128,-1,20
 801.9 1381 801.9 1381 801.9 1188 c 2,21,-1
 801.9 983 l 2,22,23
 801.9 833 801.9 833 850.5 775 c 128,-1,24
 899.1 717 899.1 717 1026.9 717 c 2,25,-1
 1081.8 717 l 1,26,-1
 1081.8 494 l 1,27,-1
 1026.9 494 l 2,28,29
 899.1 494 899.1 494 850.5 435.5 c 128,-1,30
 801.9 377 801.9 377 801.9 227 c 2,31,-1
 801.9 35 l 2,32,33
 801.9 -158 801.9 -158 711.9 -246 c 128,-1,34
 621.9 -334 621.9 -334 425.7 -334 c 2,35,-1
 230.4 -334 l 1,36,-1
 230.4 -109 l 1,0,-1
EndSplineSet
EndChar
StartChar: asciitilde
Encoding: 126 126 126
Width: 1544
Flags: W
Fore
1349.1 850 m 1,0,-1
 1349.1 606 l 1,1,2
 1253.7 526 1253.7 526 1173.15 491.5 c 128,-1,3
 1092.6 457 1092.6 457 1006.2 457 c 0,4,5
 909.9 457 909.9 457 781.2 515 c 0,6,7
 768.6 521 768.6 521 761.4 524 c 0,8,9
 755.1 527 755.1 527 741.6 533 c 0,10,11
 602.1 594 602.1 594 517.5 594 c 0,12,13
 438.3 594 438.3 594 360.9 555.5 c 128,-1,14
 283.5 517 283.5 517 195.3 434 c 1,15,-1
 195.3 678 l 1,16,17
 291.6 758 291.6 758 371.7 792.5 c 128,-1,18
 451.8 827 451.8 827 538.2 827 c 0,19,20
 634.5 827 634.5 827 763.2 769 c 0,21,22
 776.7 763 776.7 763 783 760 c 0,23,24
 789.3 757 789.3 757 802.8 751 c 0,25,26
 942.3 690 942.3 690 1026.9 690 c 0,27,28
 1104.3 690 1104.3 690 1180.35 727.5 c 128,-1,29
 1256.4 765 1256.4 765 1349.1 850 c 1,0,-1
EndSplineSet
EndChar
StartChar: exclamdown
Encoding: 161 161 161
Width: 840
Flags: W
Fore
258.3 0 m 1,0,-1
 258.3 573 l 1,1,-1
 304.2 991 l 1,2,-1
 536.4 991 l 1,3,-1
 582.3 573 l 1,4,-1
 582.3 0 l 1,5,-1
 258.3 0 l 1,0,-1
258.3 1137 m 1,6,-1
 258.3 1493 l 1,7,-1
 582.3 1493 l 1,8,-1
 582.3 1137 l 1,9,-1
 258.3 1137 l 1,6,-1
EndSplineSet
EndChar
StartChar: cent
Encoding: 162 162 162
Width: 1282
Flags: W
Fore
631.8 858 m 1,0,1
 561.6 814 561.6 814 526.95 740.5 c 128,-1,2
 492.3 667 492.3 667 492.3 559 c 0,3,4
 492.3 450 492.3 450 526.95 376 c 128,-1,5
 561.6 302 561.6 302 631.8 260 c 1,6,-1
 631.8 858 l 1,0,1
1044.9 1085 m 1,7,-1
 1044.9 793 l 1,8,9
 978.3 841 978.3 841 913.95 866 c 128,-1,10
 849.6 891 849.6 891 791.1 891 c 2,11,-1
 777.6 891 l 1,12,-1
 777.6 228 l 1,13,14
 857.7 229 857.7 229 925.65 254 c 128,-1,15
 993.6 279 993.6 279 1044.9 326 c 1,16,-1
 1044.9 33 l 1,17,18
 970.2 3 970.2 3 904.5 -13 c 128,-1,19
 838.8 -29 838.8 -29 786.6 -29 c 2,20,-1
 777.6 -29 l 1,21,-1
 777.6 -313 l 1,22,-1
 631.8 -313 l 1,23,-1
 631.8 -25 l 1,24,25
 396 15 396 15 276.3 166 c 128,-1,26
 156.6 317 156.6 317 156.6 575 c 0,27,28
 156.6 819 156.6 819 278.1 964.5 c 128,-1,29
 399.6 1110 399.6 1110 631.8 1145 c 1,30,-1
 631.8 1432 l 1,31,-1
 777.6 1432 l 1,32,-1
 778.5 1145 l 1,33,34
 842.4 1142 842.4 1142 908.55 1127.5 c 128,-1,35
 974.7 1113 974.7 1113 1044.9 1085 c 1,7,-1
EndSplineSet
EndChar
StartChar: sterling
Encoding: 163 163 163
Width: 1282
Flags: W
Fore
1118.7 1466 m 1,0,-1
 1118.7 1180 l 1,1,2
 1055.7 1219 1055.7 1219 989.1 1238 c 128,-1,3
 922.5 1257 922.5 1257 853.2 1257 c 0,4,5
 747 1257 747 1257 696.15 1194.5 c 128,-1,6
 645.3 1132 645.3 1132 645.3 1001 c 2,7,-1
 645.3 831 l 1,8,-1
 981 831 l 1,9,-1
 981 592 l 1,10,-1
 645.3 592 l 1,11,-1
 645.3 266 l 1,12,-1
 1129.5 266 l 1,13,-1
 1129.5 0 l 1,14,-1
 112.5 0 l 1,15,-1
 112.5 266 l 1,16,-1
 316.8 266 l 1,17,-1
 316.8 592 l 1,18,-1
 142.2 592 l 1,19,-1
 142.2 831 l 1,20,-1
 316.8 831 l 1,21,-1
 316.8 1001 l 2,22,23
 316.8 1272 316.8 1272 431.1 1396 c 128,-1,24
 545.4 1520 545.4 1520 792.9 1520 c 0,25,26
 875.7 1520 875.7 1520 957.15 1506.5 c 128,-1,27
 1038.6 1493 1038.6 1493 1118.7 1466 c 1,0,-1
EndSplineSet
EndChar
StartChar: currency
Encoding: 164 164 164
Width: 1172
Flags: W
Fore
390.6 268 m 1,0,-1
 204.3 61 l 1,1,-1
 66.5996 215 l 1,2,-1
 252.9 422 l 1,3,4
 227.7 471 227.7 471 215.1 524.5 c 128,-1,5
 202.5 578 202.5 578 202.5 641 c 0,6,7
 202.5 704 202.5 704 216 758 c 128,-1,8
 229.5 812 229.5 812 256.5 858 c 1,9,-1
 68.4004 1063 l 1,10,-1
 206.1 1217 l 1,11,-1
 392.4 1010 l 1,12,13
 435.6 1040 435.6 1040 484.2 1054.5 c 128,-1,14
 532.8 1069 532.8 1069 587.7 1069 c 0,15,16
 636.3 1069 636.3 1069 684.9 1055.5 c 128,-1,17
 733.5 1042 733.5 1042 784.8 1014 c 1,18,-1
 971.1 1221 l 1,19,-1
 1107.9 1067 l 1,20,-1
 921.6 860 l 1,21,22
 947.7 805 947.7 805 960.3 750 c 128,-1,23
 972.9 695 972.9 695 972.9 641 c 0,24,25
 972.9 578 972.9 578 959.85 525.5 c 128,-1,26
 946.8 473 946.8 473 919.8 426 c 1,27,-1
 1106.1 219 l 1,28,-1
 967.5 66 l 1,29,-1
 781.2 272 l 1,30,31
 739.8 242 739.8 242 692.1 227.5 c 128,-1,32
 644.4 213 644.4 213 587.7 213 c 0,33,34
 535.5 213 535.5 213 486.9 226.5 c 128,-1,35
 438.3 240 438.3 240 390.6 268 c 1,0,-1
587.7 422 m 0,36,37
 669.6 422 669.6 422 727.2 485.5 c 128,-1,38
 784.8 549 784.8 549 784.8 641 c 0,39,40
 784.8 733 784.8 733 727.65 796.5 c 128,-1,41
 670.5 860 670.5 860 587.7 860 c 0,42,43
 505.8 860 505.8 860 448.2 796.5 c 128,-1,44
 390.6 733 390.6 733 390.6 641 c 0,45,46
 390.6 548 390.6 548 447.3 485 c 128,-1,47
 504 422 504 422 587.7 422 c 0,36,37
EndSplineSet
EndChar
StartChar: yen
Encoding: 165 165 165
Width: 1282
Flags: W
Fore
1222.2 416 m 1,0,-1
 812.7 416 l 1,1,-1
 812.7 0 l 1,2,-1
 469.8 0 l 1,3,-1
 469.8 416 l 1,4,-1
 61.2002 416 l 1,5,-1
 61.2002 610 l 1,6,-1
 469.8 610 l 1,7,-1
 469.8 676 l 1,8,-1
 425.7 762 l 1,9,-1
 61.2002 762 l 1,10,-1
 61.2002 954 l 1,11,-1
 324 954 l 1,12,-1
 22.5 1493 l 1,13,-1
 381.6 1493 l 1,14,-1
 641.7 1032 l 1,15,-1
 900.9 1493 l 1,16,-1
 1260.9 1493 l 1,17,-1
 958.5 954 l 1,18,-1
 1222.2 954 l 1,19,-1
 1222.2 762 l 1,20,-1
 856.8 762 l 1,21,-1
 812.7 676 l 1,22,-1
 812.7 610 l 1,23,-1
 1222.2 610 l 1,24,-1
 1222.2 416 l 1,0,-1
EndSplineSet
EndChar
StartChar: brokenbar
Encoding: 166 166 166
Width: 673
Flags: W
Fore
438.3 1432 m 1,0,-1
 438.3 674 l 1,1,-1
 234 674 l 1,2,-1
 234 1432 l 1,3,-1
 438.3 1432 l 1,0,-1
438.3 408 m 1,4,-1
 438.3 -350 l 1,5,-1
 234 -350 l 1,6,-1
 234 408 l 1,7,-1
 438.3 408 l 1,4,-1
EndSplineSet
EndChar
StartChar: section
Encoding: 167 167 167
Width: 921
Flags: W
Fore
796.5 1462 m 1,0,-1
 796.5 1235 l 1,1,2
 707.4 1274 707.4 1274 636.3 1293.5 c 128,-1,3
 565.2 1313 565.2 1313 513.9 1313 c 0,4,5
 446.4 1313 446.4 1313 412.2 1288.5 c 128,-1,6
 378 1264 378 1264 378 1217 c 0,7,8
 378 1150 378 1150 547.2 1071 c 0,9,10
 570.6 1060 570.6 1060 582.3 1055 c 0,11,12
 771.3 966 771.3 966 842.85 879.5 c 128,-1,13
 914.4 793 914.4 793 914.4 668 c 0,14,15
 914.4 551 914.4 551 863.55 471.5 c 128,-1,16
 812.7 392 812.7 392 707.4 344 c 1,17,18
 776.7 303 776.7 303 810.45 246.5 c 128,-1,19
 844.2 190 844.2 190 844.2 117 c 0,20,21
 844.2 -28 844.2 -28 735.3 -111.5 c 128,-1,22
 626.4 -195 626.4 -195 434.7 -195 c 0,23,24
 358.2 -195 358.2 -195 276.75 -180.5 c 128,-1,25
 195.3 -166 195.3 -166 103.5 -137 c 1,26,-1
 103.5 100 l 1,27,28
 207 59 207 59 288.9 37.5 c 128,-1,29
 370.8 16 370.8 16 422.1 16 c 0,30,31
 480.6 16 480.6 16 515.7 41 c 128,-1,32
 550.8 66 550.8 66 550.8 106 c 0,33,34
 550.8 176 550.8 176 388.8 250 c 0,35,36
 356.4 264 356.4 264 339.3 272 c 0,37,38
 156.6 359 156.6 359 84.5996 448.5 c 128,-1,39
 12.5996 538 12.5996 538 12.5996 668 c 0,40,41
 12.5996 772 12.5996 772 62.5498 849 c 128,-1,42
 112.5 926 112.5 926 214.2 977 c 1,43,44
 146.7 1028 146.7 1028 117.45 1083.5 c 128,-1,45
 88.2002 1139 88.2002 1139 88.2002 1214 c 0,46,47
 88.2002 1358 88.2002 1358 191.25 1439 c 128,-1,48
 294.3 1520 294.3 1520 475.2 1520 c 0,49,50
 550.8 1520 550.8 1520 631.8 1505.5 c 128,-1,51
 712.8 1491 712.8 1491 796.5 1462 c 1,0,-1
390.6 856 m 1,52,53
 329.4 828 329.4 828 299.25 790 c 128,-1,54
 269.1 752 269.1 752 269.1 702 c 0,55,56
 269.1 635 269.1 635 324.45 586 c 128,-1,57
 379.8 537 379.8 537 543.6 471 c 1,58,59
 602.1 494 602.1 494 633.6 533.5 c 128,-1,60
 665.1 573 665.1 573 665.1 625 c 0,61,62
 665.1 692 665.1 692 603 745 c 128,-1,63
 540.9 798 540.9 798 390.6 856 c 1,52,53
EndSplineSet
EndChar
StartChar: dieresis
Encoding: 168 168 168
Width: 921
Flags: W
Fore
177.3 1585 m 1,0,-1
 388.8 1585 l 1,1,-1
 388.8 1339 l 1,2,-1
 177.3 1339 l 1,3,-1
 177.3 1585 l 1,0,-1
532.8 1585 m 1,4,-1
 744.3 1585 l 1,5,-1
 744.3 1339 l 1,6,-1
 532.8 1339 l 1,7,-1
 532.8 1585 l 1,4,-1
EndSplineSet
Ligature: 0 1 'liga' space uni0308
EndChar
StartChar: copyright
Encoding: 169 169 169
Width: 1843
Flags: W
Fore
1190.7 1126 m 1,0,-1
 1190.7 911 l 1,1,2
 1139.4 948 1139.4 948 1089.45 965.5 c 128,-1,3
 1039.5 983 1039.5 983 988.2 983 c 0,4,5
 886.5 983 886.5 983 829.35 919 c 128,-1,6
 772.2 855 772.2 855 772.2 741 c 0,7,8
 772.2 626 772.2 626 828.9 563 c 128,-1,9
 885.6 500 885.6 500 988.2 500 c 0,10,11
 1045.8 500 1045.8 500 1097.55 518 c 128,-1,12
 1149.3 536 1149.3 536 1190.7 571 c 1,13,-1
 1190.7 358 l 1,14,15
 1132.2 336 1132.2 336 1073.25 324.5 c 128,-1,16
 1014.3 313 1014.3 313 958.5 313 c 0,17,18
 768.6 313 768.6 313 654.3 430 c 128,-1,19
 540 547 540 547 540 741 c 0,20,21
 540 936 540 936 654.3 1052.5 c 128,-1,22
 768.6 1169 768.6 1169 958.5 1169 c 0,23,24
 1020.6 1169 1020.6 1169 1078.2 1158.5 c 128,-1,25
 1135.8 1148 1135.8 1148 1190.7 1126 c 1,0,-1
921.6 1331 m 0,26,27
 812.7 1331 812.7 1331 719.1 1287.5 c 128,-1,28
 625.5 1244 625.5 1244 547.2 1157 c 0,29,30
 468.9 1070 468.9 1070 429.75 966.5 c 128,-1,31
 390.6 863 390.6 863 390.6 741 c 0,32,33
 390.6 620 390.6 620 429.75 516.5 c 128,-1,34
 468.9 413 468.9 413 547.2 326 c 0,35,36
 624.6 240 624.6 240 718.65 197 c 128,-1,37
 812.7 154 812.7 154 921.6 154 c 0,38,39
 1032.3 154 1032.3 154 1125 196.5 c 128,-1,40
 1217.7 239 1217.7 239 1296 326 c 0,41,42
 1374.3 413 1374.3 413 1413.45 516.5 c 128,-1,43
 1452.6 620 1452.6 620 1452.6 741 c 0,44,45
 1452.6 863 1452.6 863 1413.45 966.5 c 128,-1,46
 1374.3 1070 1374.3 1070 1296 1157 c 0,47,48
 1216.8 1245 1216.8 1245 1123.65 1288 c 128,-1,49
 1030.5 1331 1030.5 1331 921.6 1331 c 0,26,27
921.6 1485 m 0,50,51
 1058.4 1485 1058.4 1485 1176.75 1430 c 128,-1,52
 1295.1 1375 1295.1 1375 1393.2 1266 c 0,53,54
 1491.3 1157 1491.3 1157 1539.9 1026 c 128,-1,55
 1588.5 895 1588.5 895 1588.5 741 c 0,56,57
 1588.5 589 1588.5 589 1539.9 458.5 c 128,-1,58
 1491.3 328 1491.3 328 1393.2 219 c 0,59,60
 1295.1 110 1295.1 110 1176.75 55 c 128,-1,61
 1058.4 0 1058.4 0 921.6 0 c 0,62,63
 784.8 0 784.8 0 666.45 55 c 128,-1,64
 548.1 110 548.1 110 450 219 c 0,65,66
 351.9 328 351.9 328 303.3 458.5 c 128,-1,67
 254.7 589 254.7 589 254.7 741 c 0,68,69
 254.7 895 254.7 895 303.3 1026 c 128,-1,70
 351.9 1157 351.9 1157 450 1266 c 0,71,72
 548.1 1375 548.1 1375 666.45 1430 c 128,-1,73
 784.8 1485 784.8 1485 921.6 1485 c 0,50,51
EndSplineSet
EndChar
StartChar: ordfeminine
Encoding: 170 170 170
Width: 1039
Flags: W
Fore
158.4 573 m 1,0,-1
 890.1 573 l 1,1,-1
 890.1 373 l 1,2,-1
 158.4 373 l 1,3,-1
 158.4 573 l 1,0,-1
578.7 1081 m 2,4,5
 459 1081 459 1081 412.2 1055 c 128,-1,6
 365.4 1029 365.4 1029 365.4 967 c 0,7,8
 365.4 916 365.4 916 395.1 887 c 128,-1,9
 424.8 858 424.8 858 477 858 c 0,10,11
 557.1 858 557.1 858 608.4 915 c 128,-1,12
 659.7 972 659.7 972 659.7 1059 c 2,13,-1
 659.7 1081 l 1,14,-1
 578.7 1081 l 2,4,5
900.9 1165 m 2,15,-1
 900.9 717 l 1,16,-1
 680.4 717 l 1,17,-1
 680.4 844 l 1,18,19
 630.9 768 630.9 768 567.9 732 c 128,-1,20
 504.9 696 504.9 696 420.3 696 c 0,21,22
 289.8 696 289.8 696 216 763 c 128,-1,23
 142.2 830 142.2 830 142.2 946 c 0,24,25
 142.2 1087 142.2 1087 236.7 1153 c 128,-1,26
 331.2 1219 331.2 1219 534.6 1219 c 2,27,-1
 657.9 1219 l 1,28,-1
 657.9 1239 l 2,29,30
 657.9 1295 657.9 1295 617.85 1324.5 c 128,-1,31
 577.8 1354 577.8 1354 501.3 1354 c 0,32,33
 423 1354 423 1354 348.3 1336.5 c 128,-1,34
 273.6 1319 273.6 1319 202.5 1284 c 1,35,-1
 202.5 1464 l 1,36,37
 285.3 1492 285.3 1492 361.35 1506 c 128,-1,38
 437.4 1520 437.4 1520 504.9 1520 c 0,39,40
 706.5 1520 706.5 1520 803.7 1432.5 c 128,-1,41
 900.9 1345 900.9 1345 900.9 1165 c 2,15,-1
EndSplineSet
EndChar
StartChar: guillemotleft
Encoding: 171 171 171
Width: 1190
Flags: W
Fore
585.9 1063 m 1,0,-1
 585.9 821 l 1,1,-1
 322.2 600 l 1,2,-1
 585.9 379 l 1,3,-1
 585.9 137 l 1,4,-1
 142.2 506 l 1,5,-1
 142.2 692 l 1,6,-1
 585.9 1063 l 1,0,-1
1017 1063 m 1,7,-1
 1017 821 l 1,8,-1
 754.2 600 l 1,9,-1
 1017 379 l 1,10,-1
 1017 137 l 1,11,-1
 573.3 506 l 1,12,-1
 573.3 692 l 1,13,-1
 1017 1063 l 1,7,-1
EndSplineSet
EndChar
StartChar: logicalnot
Encoding: 172 172 172
Width: 1544
Flags: W
Fore
195.3 909 m 1,0,-1
 1349.1 909 l 1,1,-1
 1349.1 287 l 1,2,-1
 1137.6 287 l 1,3,-1
 1137.6 672 l 1,4,-1
 195.3 672 l 1,5,-1
 195.3 909 l 1,0,-1
EndSplineSet
EndChar
StartChar: sfthyphen
Encoding: 173 173 173
Width: 765
Flags: W
Fore
99.9004 735 m 1,0,-1
 665.1 735 l 1,1,-1
 665.1 444 l 1,2,-1
 99.9004 444 l 1,3,-1
 99.9004 735 l 1,0,-1
EndSplineSet
EndChar
StartChar: registered
Encoding: 174 174 174
Width: 1843
Flags: W
Fore
921.6 1331 m 0,0,1
 812.7 1331 812.7 1331 719.1 1287.5 c 128,-1,2
 625.5 1244 625.5 1244 547.2 1157 c 0,3,4
 468.9 1070 468.9 1070 429.75 966.5 c 128,-1,5
 390.6 863 390.6 863 390.6 741 c 0,6,7
 390.6 620 390.6 620 429.75 516.5 c 128,-1,8
 468.9 413 468.9 413 547.2 326 c 0,9,10
 624.6 240 624.6 240 718.65 197 c 128,-1,11
 812.7 154 812.7 154 921.6 154 c 0,12,13
 1032.3 154 1032.3 154 1125 196.5 c 128,-1,14
 1217.7 239 1217.7 239 1296 326 c 0,15,16
 1374.3 413 1374.3 413 1413.45 516.5 c 128,-1,17
 1452.6 620 1452.6 620 1452.6 741 c 0,18,19
 1452.6 863 1452.6 863 1413.45 966.5 c 128,-1,20
 1374.3 1070 1374.3 1070 1296 1157 c 0,21,22
 1216.8 1245 1216.8 1245 1123.65 1288 c 128,-1,23
 1030.5 1331 1030.5 1331 921.6 1331 c 0,0,1
870.3 1036 m 2,24,-1
 838.8 1036 l 1,25,-1
 838.8 829 l 1,26,-1
 870.3 829 l 2,27,28
 940.5 829 940.5 829 976.05 855.5 c 128,-1,29
 1011.6 882 1011.6 882 1011.6 934 c 0,30,31
 1011.6 986 1011.6 986 976.95 1011 c 128,-1,32
 942.3 1036 942.3 1036 870.3 1036 c 2,24,-1
903.6 1174 m 2,33,34
 1062 1174 1062 1174 1140.3 1114.5 c 128,-1,35
 1218.6 1055 1218.6 1055 1218.6 934 c 0,36,37
 1218.6 848 1218.6 848 1171.35 792 c 128,-1,38
 1124.1 736 1124.1 736 1037.7 719 c 1,39,40
 1074.6 697 1074.6 697 1106.55 657 c 128,-1,41
 1138.5 617 1138.5 617 1164.6 559 c 2,42,-1
 1264.5 338 l 1,43,-1
 1058.4 338 l 1,44,-1
 962.1 551 l 1,45,46
 927.9 629 927.9 629 901.8 661.5 c 128,-1,47
 875.7 694 875.7 694 849.6 694 c 2,48,-1
 838.8 694 l 1,49,-1
 838.8 338 l 1,50,-1
 647.1 338 l 1,51,-1
 647.1 1174 l 1,52,-1
 903.6 1174 l 2,33,34
921.6 1485 m 0,53,54
 1058.4 1485 1058.4 1485 1176.75 1430 c 128,-1,55
 1295.1 1375 1295.1 1375 1393.2 1266 c 0,56,57
 1491.3 1157 1491.3 1157 1539.9 1026 c 128,-1,58
 1588.5 895 1588.5 895 1588.5 741 c 0,59,60
 1588.5 589 1588.5 589 1539.9 458.5 c 128,-1,61
 1491.3 328 1491.3 328 1393.2 219 c 0,62,63
 1295.1 110 1295.1 110 1176.75 55 c 128,-1,64
 1058.4 0 1058.4 0 921.6 0 c 0,65,66
 784.8 0 784.8 0 666.45 55 c 128,-1,67
 548.1 110 548.1 110 450 219 c 0,68,69
 351.9 328 351.9 328 303.3 458.5 c 128,-1,70
 254.7 589 254.7 589 254.7 741 c 0,71,72
 254.7 895 254.7 895 303.3 1026 c 128,-1,73
 351.9 1157 351.9 1157 450 1266 c 0,74,75
 548.1 1375 548.1 1375 666.45 1430 c 128,-1,76
 784.8 1485 784.8 1485 921.6 1485 c 0,53,54
EndSplineSet
EndChar
StartChar: macron
Encoding: 175 175 175
Width: 921
Flags: W
Fore
177.3 1556 m 1,0,-1
 744.3 1556 l 1,1,-1
 744.3 1368 l 1,2,-1
 177.3 1368 l 1,3,-1
 177.3 1556 l 1,0,-1
EndSplineSet
LCarets: 0 65535 '    ' 1 0 
Ligature: 0 1 'liga' space uni0304
EndChar
StartChar: degree
Encoding: 176 176 176
Width: 921
Flags: W
Fore
460.8 1372 m 0,0,1
 396 1372 396 1372 351 1322 c 128,-1,2
 306 1272 306 1272 306 1200 c 0,3,4
 306 1128 306 1128 350.55 1079 c 128,-1,5
 395.1 1030 395.1 1030 460.8 1030 c 0,6,7
 525.6 1030 525.6 1030 570.6 1079.5 c 128,-1,8
 615.6 1129 615.6 1129 615.6 1200 c 0,9,10
 615.6 1272 615.6 1272 570.15 1322 c 128,-1,11
 524.7 1372 524.7 1372 460.8 1372 c 0,0,1
460.8 1534 m 0,12,13
 520.2 1534 520.2 1534 575.1 1508.5 c 128,-1,14
 630 1483 630 1483 673.2 1436 c 1,15,16
 715.5 1388 715.5 1388 737.55 1328 c 128,-1,17
 759.6 1268 759.6 1268 759.6 1200 c 0,18,19
 759.6 1133 759.6 1133 737.55 1072.5 c 128,-1,20
 715.5 1012 715.5 1012 675 967 c 0,21,22
 631.8 919 631.8 919 576 893.5 c 128,-1,23
 520.2 868 520.2 868 459 868 c 0,24,25
 332.1 868 332.1 868 246.15 963.5 c 128,-1,26
 160.2 1059 160.2 1059 160.2 1200 c 0,27,28
 160.2 1341 160.2 1341 247.05 1437.5 c 128,-1,29
 333.9 1534 333.9 1534 460.8 1534 c 0,12,13
EndSplineSet
EndChar
StartChar: plusminus
Encoding: 177 177 177
Width: 1544
Flags: W
Fore
879.3 1284 m 1,0,-1
 879.3 930 l 1,1,-1
 1349.1 930 l 1,2,-1
 1349.1 694 l 1,3,-1
 879.3 694 l 1,4,-1
 879.3 340 l 1,5,-1
 665.1 340 l 1,6,-1
 665.1 694 l 1,7,-1
 195.3 694 l 1,8,-1
 195.3 930 l 1,9,-1
 665.1 930 l 1,10,-1
 665.1 1284 l 1,11,-1
 879.3 1284 l 1,0,-1
195.3 238 m 1,12,-1
 1349.1 238 l 1,13,-1
 1349.1 0 l 1,14,-1
 195.3 0 l 1,15,-1
 195.3 238 l 1,12,-1
EndSplineSet
EndChar
StartChar: twosuperior
Encoding: 178 178 178
Width: 807
Flags: W
Fore
370.8 836 m 1,0,-1
 703.8 836 l 1,1,-1
 703.8 668 l 1,2,-1
 98.0996 668 l 1,3,-1
 98.0996 821 l 1,4,-1
 379.8 1087 l 2,5,6
 434.7 1140 434.7 1140 458.1 1180 c 128,-1,7
 481.5 1220 481.5 1220 481.5 1260 c 0,8,9
 481.5 1310 481.5 1310 448.65 1341 c 128,-1,10
 415.8 1372 415.8 1372 362.7 1372 c 0,11,12
 306.9 1372 306.9 1372 243 1349.5 c 128,-1,13
 179.1 1327 179.1 1327 103.5 1280 c 1,14,-1
 103.5 1466 l 1,15,16
 181.8 1493 181.8 1493 255.15 1506.5 c 128,-1,17
 328.5 1520 328.5 1520 396 1520 c 0,18,19
 538.2 1520 538.2 1520 619.2 1455.5 c 128,-1,20
 700.2 1391 700.2 1391 700.2 1280 c 0,21,22
 700.2 1208 700.2 1208 668.25 1147.5 c 128,-1,23
 636.3 1087 636.3 1087 545.4 1001 c 2,24,-1
 370.8 836 l 1,0,-1
EndSplineSet
EndChar
StartChar: threesuperior
Encoding: 179 179 179
Width: 807
Flags: W
Fore
532.8 1120 m 1,0,1
 615.6 1102 615.6 1102 661.5 1047 c 128,-1,2
 707.4 992 707.4 992 707.4 911 c 0,3,4
 707.4 782 707.4 782 618.3 717.5 c 128,-1,5
 529.2 653 529.2 653 348.3 653 c 0,6,7
 275.4 653 275.4 653 208.8 664.5 c 128,-1,8
 142.2 676 142.2 676 81 698 c 1,9,-1
 81 872 l 1,10,11
 140.4 836 140.4 836 198 817.5 c 128,-1,12
 255.6 799 255.6 799 309.6 799 c 0,13,14
 395.1 799 395.1 799 441.9 831 c 128,-1,15
 488.7 863 488.7 863 488.7 922 c 0,16,17
 488.7 986 488.7 986 440.55 1016.5 c 128,-1,18
 392.4 1047 392.4 1047 289.8 1047 c 2,19,-1
 223.2 1047 l 1,20,-1
 223.2 1184 l 1,21,-1
 298.8 1184 l 2,22,23
 387 1184 387 1184 427.5 1207.5 c 128,-1,24
 468 1231 468 1231 468 1282 c 0,25,26
 468 1327 468 1327 432.9 1349.5 c 128,-1,27
 397.8 1372 397.8 1372 325.8 1372 c 0,28,29
 279 1372 279 1372 223.65 1359 c 128,-1,30
 168.3 1346 168.3 1346 105.3 1319 c 1,31,-1
 105.3 1485 l 1,32,33
 163.8 1502 163.8 1502 231.75 1511 c 128,-1,34
 299.7 1520 299.7 1520 378 1520 c 0,35,36
 528.3 1520 528.3 1520 607.95 1464 c 128,-1,37
 687.6 1408 687.6 1408 687.6 1303 c 0,38,39
 687.6 1234 687.6 1234 647.1 1186 c 128,-1,40
 606.6 1138 606.6 1138 532.8 1120 c 1,0,1
EndSplineSet
EndChar
StartChar: acute
Encoding: 180 180 180
Width: 921
Flags: W
Fore
582.3 1638 m 1,0,-1
 837 1638 l 1,1,-1
 504.9 1262 l 1,2,-1
 328.5 1262 l 1,3,-1
 582.3 1638 l 1,0,-1
EndSplineSet
LCarets: 0 65535 '    ' 1 0 
Ligature: 0 1 'liga' space acutecomb
EndChar
StartChar: mu
Encoding: 181 181 181
Width: 1356
Flags: W
Fore
156.6 -428 m 1,0,-1
 156.6 1120 l 1,1,-1
 481.5 1120 l 1,2,-1
 481.5 469 l 2,3,4
 481.5 353 481.5 353 526.5 296.5 c 128,-1,5
 571.5 240 571.5 240 663.3 240 c 0,6,7
 756 240 756 240 801 296.5 c 128,-1,8
 846 353 846 353 846 469 c 2,9,-1
 846 1120 l 1,10,-1
 1170 1120 l 1,11,-1
 1170 371 l 2,12,13
 1170 300 1170 300 1184.85 272 c 128,-1,14
 1199.7 244 1199.7 244 1234.8 244 c 0,15,16
 1251 244 1251 244 1265.85 249 c 128,-1,17
 1280.7 254 1280.7 254 1297.8 266 c 1,18,-1
 1297.8 16 l 1,19,20
 1250.1 -7 1250.1 -7 1208.25 -18 c 128,-1,21
 1166.4 -29 1166.4 -29 1125.9 -29 c 0,22,23
 1045.8 -29 1045.8 -29 994.95 8.5 c 128,-1,24
 944.1 46 944.1 46 912.6 129 c 1,25,26
 870.3 50 870.3 50 809.55 10.5 c 128,-1,27
 748.8 -29 748.8 -29 668.7 -29 c 0,28,29
 602.1 -29 602.1 -29 555.3 -5.5 c 128,-1,30
 508.5 18 508.5 18 481.5 66 c 1,31,-1
 481.5 -428 l 1,32,-1
 156.6 -428 l 1,0,-1
EndSplineSet
EndChar
StartChar: paragraph
Encoding: 182 182 182
Width: 1172
Flags: W
Fore
543.6 1493 m 2,0,-1
 1011.6 1493 l 1,1,-1
 1011.6 -197 l 1,2,-1
 840.6 -197 l 1,3,-1
 840.6 1346 l 1,4,-1
 670.5 1346 l 1,5,-1
 670.5 -197 l 1,6,-1
 499.5 -197 l 1,7,-1
 499.5 649 l 1,8,9
 315.9 674 315.9 674 216 783.5 c 128,-1,10
 116.1 893 116.1 893 116.1 1071 c 0,11,12
 116.1 1261 116.1 1261 233.1 1377 c 128,-1,13
 350.1 1493 350.1 1493 543.6 1493 c 2,0,-1
EndSplineSet
EndChar
StartChar: periodcentered
Encoding: 183 183 183
Width: 700
Flags: W
Fore
188.1 905 m 1,0,-1
 512.1 905 l 1,1,-1
 512.1 518 l 1,2,-1
 188.1 518 l 1,3,-1
 188.1 905 l 1,0,-1
EndSplineSet
EndChar
StartChar: cedilla
Encoding: 184 184 184
Width: 921
Flags: W
Fore
541.8 0 m 1,0,1
 594 -62 594 -62 618.75 -115 c 128,-1,2
 643.5 -168 643.5 -168 643.5 -215 c 0,3,4
 643.5 -310 643.5 -310 588.15 -355.5 c 128,-1,5
 532.8 -401 532.8 -401 418.5 -401 c 0,6,7
 375.3 -401 375.3 -401 329.4 -394.5 c 128,-1,8
 283.5 -388 283.5 -388 236.7 -375 c 1,9,-1
 235.8 -223 l 1,10,11
 280.8 -239 280.8 -239 318.15 -246.5 c 128,-1,12
 355.5 -254 355.5 -254 385.2 -254 c 0,13,14
 437.4 -254 437.4 -254 466.65 -231 c 128,-1,15
 495.9 -208 495.9 -208 495.9 -168 c 0,16,17
 495.9 -142 495.9 -142 476.55 -101 c 128,-1,18
 457.2 -60 457.2 -60 416.7 0 c 1,19,-1
 541.8 0 l 1,0,1
EndSplineSet
LCarets: 0 65535 '    ' 1 0 
Ligature: 0 1 'liga' space uni0327
EndChar
StartChar: onesuperior
Encoding: 185 185 185
Width: 807
Flags: W
Fore
126.9 825 m 1,0,-1
 313.2 825 l 1,1,-1
 313.2 1346 l 1,2,-1
 110.7 1294 l 1,3,-1
 110.7 1454 l 1,4,-1
 316.8 1503 l 1,5,-1
 520.2 1503 l 1,6,-1
 520.2 825 l 1,7,-1
 703.8 825 l 1,8,-1
 703.8 668 l 1,9,-1
 126.9 668 l 1,10,-1
 126.9 825 l 1,0,-1
EndSplineSet
EndChar
StartChar: ordmasculine
Encoding: 186 186 186
Width: 1039
Flags: W
Fore
520.2 1520 m 0,0,1
 711.9 1520 711.9 1520 823.05 1409 c 128,-1,2
 934.2 1298 934.2 1298 934.2 1108 c 0,3,4
 934.2 918 934.2 918 823.5 808 c 128,-1,5
 712.8 698 712.8 698 520.2 698 c 0,6,7
 327.6 698 327.6 698 216.45 808 c 128,-1,8
 105.3 918 105.3 918 105.3 1108 c 0,9,10
 105.3 1298 105.3 1298 216.45 1409 c 128,-1,11
 327.6 1520 327.6 1520 520.2 1520 c 0,0,1
149.4 573 m 1,12,-1
 890.1 573 l 1,13,-1
 890.1 373 l 1,14,-1
 149.4 373 l 1,15,-1
 149.4 573 l 1,12,-1
520.2 1350 m 0,16,17
 444.6 1350 444.6 1350 403.65 1287 c 128,-1,18
 362.7 1224 362.7 1224 362.7 1108 c 0,19,20
 362.7 992 362.7 992 403.65 930 c 128,-1,21
 444.6 868 444.6 868 520.2 868 c 0,22,23
 594.9 868 594.9 868 635.85 930 c 128,-1,24
 676.8 992 676.8 992 676.8 1108 c 0,25,26
 676.8 1224 676.8 1224 635.85 1287 c 128,-1,27
 594.9 1350 594.9 1350 520.2 1350 c 0,16,17
EndSplineSet
EndChar
StartChar: guillemotright
Encoding: 187 187 187
Width: 1190
Flags: W
Fore
604.8 1063 m 1,0,-1
 1048.5 692 l 1,1,-1
 1048.5 506 l 1,2,-1
 604.8 137 l 1,3,-1
 604.8 379 l 1,4,-1
 868.5 600 l 1,5,-1
 604.8 821 l 1,6,-1
 604.8 1063 l 1,0,-1
173.7 1063 m 1,7,-1
 615.6 692 l 1,8,-1
 615.6 506 l 1,9,-1
 173.7 137 l 1,10,-1
 173.7 379 l 1,11,-1
 436.5 600 l 1,12,-1
 173.7 821 l 1,13,-1
 173.7 1063 l 1,7,-1
EndSplineSet
EndChar
StartChar: questiondown
Encoding: 191 191 191
Width: 1069
Flags: W
Fore
438.3 987 m 1,0,-1
 763.2 987 l 1,1,-1
 763.2 938 l 2,2,3
 763.2 857 763.2 857 733.95 794 c 128,-1,4
 704.7 731 704.7 731 606.6 631 c 2,5,-1
 549 573 l 2,6,7
 498.6 522 498.6 522 475.2 476 c 128,-1,8
 451.8 430 451.8 430 451.8 383 c 0,9,10
 451.8 313 451.8 313 495 273 c 128,-1,11
 538.2 233 538.2 233 615.6 233 c 0,12,13
 688.5 233 688.5 233 773.55 267 c 128,-1,14
 858.6 301 858.6 301 949.5 367 c 1,15,-1
 949.5 53 l 1,16,17
 842.4 11 842.4 11 751.05 -9 c 128,-1,18
 659.7 -29 659.7 -29 576.9 -29 c 0,19,20
 357.3 -29 357.3 -29 242.1 70.5 c 128,-1,21
 126.9 170 126.9 170 126.9 360 c 0,22,23
 126.9 459 126.9 459 162 536.5 c 128,-1,24
 197.1 614 197.1 614 281.7 702 c 1,25,-1
 339.3 760 l 2,26,27
 400.5 821 400.5 821 419.4 859 c 128,-1,28
 438.3 897 438.3 897 438.3 942 c 2,29,-1
 438.3 987 l 1,0,-1
763.2 1137 m 1,30,-1
 438.3 1137 l 1,31,-1
 438.3 1493 l 1,32,-1
 763.2 1493 l 1,33,-1
 763.2 1137 l 1,30,-1
EndSplineSet
EndChar
StartChar: Aring
Encoding: 197 197 197
Width: 1426
Flags: W
Fore
928.8 1464 m 1,0,-1
 1417.5 0 l 1,1,-1
 1069.2 0 l 1,2,-1
 984.6 272 l 1,3,-1
 442.8 272 l 1,4,-1
 357.3 0 l 1,5,-1
 9 0 l 1,6,-1
 497.7 1464 l 1,7,8
 477 1498 477 1498 467.1 1535.5 c 128,-1,9
 457.2 1573 457.2 1573 457.2 1616 c 0,10,11
 457.2 1733 457.2 1733 532.35 1817 c 128,-1,12
 607.5 1901 607.5 1901 713.7 1901 c 0,13,14
 818.1 1901 818.1 1901 893.7 1817 c 128,-1,15
 969.3 1733 969.3 1733 969.3 1616 c 0,16,17
 969.3 1569 969.3 1569 959.4 1531 c 128,-1,18
 949.5 1493 949.5 1493 928.8 1464 c 1,0,-1
595.8 1616 m 0,19,20
 595.8 1562 595.8 1562 630.45 1523.5 c 128,-1,21
 665.1 1485 665.1 1485 713.7 1485 c 0,22,23
 762.3 1485 762.3 1485 796.95 1523.5 c 128,-1,24
 831.6 1562 831.6 1562 831.6 1616 c 0,25,26
 831.6 1670 831.6 1670 796.5 1708.5 c 128,-1,27
 761.4 1747 761.4 1747 713.7 1747 c 0,28,29
 665.1 1747 665.1 1747 630.45 1708.5 c 128,-1,30
 595.8 1670 595.8 1670 595.8 1616 c 0,19,20
529.2 549 m 1,31,-1
 897.3 549 l 1,32,-1
 713.7 1143 l 1,33,-1
 529.2 549 l 1,31,-1
EndSplineSet
EndChar
StartChar: AE
Encoding: 198 198 198
Width: 1999
Flags: W
Fore
801.9 1237 m 1,0,-1
 571.5 627 l 1,1,-1
 910.8 627 l 1,2,-1
 910.8 1237 l 1,3,-1
 801.9 1237 l 1,0,-1
562.5 1493 m 1,4,-1
 1845 1493 l 1,5,-1
 1845 1202 l 1,6,-1
 1257.3 1202 l 1,7,-1
 1257.3 924 l 1,8,-1
 1809.9 924 l 1,9,-1
 1809.9 633 l 1,10,-1
 1257.3 633 l 1,11,-1
 1257.3 291 l 1,12,-1
 1865.7 291 l 1,13,-1
 1865.7 0 l 1,14,-1
 910.8 0 l 1,15,-1
 910.8 350 l 1,16,-1
 466.2 350 l 1,17,-1
 333.9 0 l 1,18,-1
 0 0 l 1,19,-1
 562.5 1493 l 1,4,-1
EndSplineSet
KernsSLIFO: 45 -36 2 0
EndChar
StartChar: Eth
Encoding: 208 208 208
Width: 1544
Flags: W
Fore
532.8 1202 m 1,0,-1
 532.8 881 l 1,1,-1
 744.3 881 l 1,2,-1
 744.3 621 l 1,3,-1
 532.8 621 l 1,4,-1
 532.8 291 l 1,5,-1
 656.1 291 l 2,6,7
 868.5 291 868.5 291 980.55 408 c 128,-1,8
 1092.6 525 1092.6 525 1092.6 748 c 0,9,10
 1092.6 970 1092.6 970 981 1086 c 128,-1,11
 869.4 1202 869.4 1202 656.1 1202 c 2,12,-1
 532.8 1202 l 1,0,-1
186.3 1493 m 1,13,-1
 550.8 1493 l 2,14,15
 857.7 1493 857.7 1493 1007.1 1444.5 c 128,-1,16
 1156.5 1396 1156.5 1396 1264.5 1280 c 0,17,18
 1358.1 1179 1358.1 1179 1404.45 1047 c 128,-1,19
 1450.8 915 1450.8 915 1450.8 748 c 0,20,21
 1450.8 579 1450.8 579 1404.45 446.5 c 128,-1,22
 1358.1 314 1358.1 314 1264.5 213 c 0,23,24
 1155.6 97 1155.6 97 1004.4 48.5 c 128,-1,25
 853.2 0 853.2 0 550.8 0 c 2,26,-1
 186.3 0 l 1,27,-1
 186.3 621 l 1,28,-1
 29.7002 621 l 1,29,-1
 29.7002 881 l 1,30,-1
 186.3 881 l 1,31,-1
 186.3 1493 l 1,13,-1
EndSplineSet
KernsSLIFO: 7922 -149 2 0 562 -149 2 0 374 -149 2 0 221 -149 2 0 8222 -36 2 0 8218 -36 2 0 376 -149 2 0 89 -149 2 0 45 38 2 0
EndChar
StartChar: multiply
Encoding: 215 215 215
Width: 1544
Flags: W
Fore
1314 1075 m 1,0,-1
 923.4 641 l 1,1,-1
 1314 209 l 1,2,-1
 1162.8 41 l 1,3,-1
 772.2 473 l 1,4,-1
 381.6 41 l 1,5,-1
 230.4 209 l 1,6,-1
 621 641 l 1,7,-1
 230.4 1075 l 1,8,-1
 381.6 1243 l 1,9,-1
 772.2 809 l 1,10,-1
 1162.8 1243 l 1,11,-1
 1314 1075 l 1,0,-1
EndSplineSet
EndChar
StartChar: Oslash
Encoding: 216 216 216
Width: 1566
Flags: W
AnchorPoint: "above" 759.6 1520 basechar 0
Fore
543.6 371 m 1,0,1
 590.4 309 590.4 309 649.35 279.5 c 128,-1,2
 708.3 250 708.3 250 783 250 c 0,3,4
 942.3 250 942.3 250 1029.6 380 c 128,-1,5
 1116.9 510 1116.9 510 1116.9 745 c 0,6,7
 1116.9 813 1116.9 813 1110.15 871.5 c 128,-1,8
 1103.4 930 1103.4 930 1089 979 c 1,9,-1
 543.6 371 l 1,0,1
1019.7 1126 m 1,10,11
 973.8 1184 973.8 1184 915.3 1212.5 c 128,-1,12
 856.8 1241 856.8 1241 783 1241 c 0,13,14
 624.6 1241 624.6 1241 537.3 1111 c 128,-1,15
 450 981 450 981 450 745 c 0,16,17
 450 681 450 681 456.3 624.5 c 128,-1,18
 462.6 568 462.6 568 475.2 522 c 1,19,-1
 1019.7 1126 l 1,10,11
225 244 m 1,20,21
 158.4 344 158.4 344 125.1 469 c 128,-1,22
 91.7998 594 91.7998 594 91.7998 745 c 0,23,24
 91.7998 1108 91.7998 1108 275.85 1314 c 128,-1,25
 459.9 1520 459.9 1520 783 1520 c 0,26,27
 921.6 1520 921.6 1520 1033.2 1482.5 c 128,-1,28
 1144.8 1445 1144.8 1445 1236.6 1368 c 1,29,-1
 1415.7 1567 l 1,30,-1
 1517.4 1452 l 1,31,-1
 1336.5 1253 l 1,32,33
 1405.8 1154 1405.8 1154 1440 1026.5 c 128,-1,34
 1474.2 899 1474.2 899 1474.2 745 c 0,35,36
 1474.2 383 1474.2 383 1290.6 177 c 128,-1,37
 1107 -29 1107 -29 783 -29 c 0,38,39
 645.3 -29 645.3 -29 530.55 10.5 c 128,-1,40
 415.8 50 415.8 50 324 129 c 1,41,-1
 142.2 -74 l 1,42,-1
 40.5 39 l 1,43,-1
 225 244 l 1,20,21
EndSplineSet
KernsSLIFO: 221 -36 2 0 193 -36 2 0 194 -36 2 0 376 -36 2 0 195 -36 2 0 192 -36 2 0 196 -36 2 0 89 -36 2 0 88 -73 2 0 86 -36 2 0 65 -36 2 0 46 -45 2 0 45 38 2 0 44 -45 2 0
EndChar
StartChar: Thorn
Encoding: 222 222 222
Width: 1359
Flags: W
Fore
515.7 258 m 1,0,-1
 515.7 0 l 1,1,-1
 169.2 0 l 1,2,-1
 169.2 1493 l 1,3,-1
 515.7 1493 l 1,4,-1
 515.7 1233 l 1,5,-1
 744.3 1233 l 2,6,7
 1000.8 1233 1000.8 1233 1138.05 1106.5 c 128,-1,8
 1275.3 980 1275.3 980 1275.3 745 c 0,9,10
 1275.3 511 1275.3 511 1138.05 384.5 c 128,-1,11
 1000.8 258 1000.8 258 744.3 258 c 2,12,-1
 515.7 258 l 1,0,-1
515.7 956 m 1,13,-1
 515.7 537 l 1,14,-1
 707.4 537 l 2,15,16
 808.2 537 808.2 537 863.1 591.5 c 128,-1,17
 918 646 918 646 918 745 c 0,18,19
 918 846 918 846 863.1 901 c 128,-1,20
 808.2 956 808.2 956 707.4 956 c 2,21,-1
 515.7 956 l 1,13,-1
EndSplineSet
EndChar
StartChar: germandbls
Encoding: 223 223 223
Width: 1325
Flags: W
Fore
154.8 1114 m 2,0,1
 154.8 1336 154.8 1336 276.3 1446 c 128,-1,2
 397.8 1556 397.8 1556 643.5 1556 c 0,3,4
 879.3 1556 879.3 1556 999.9 1444 c 128,-1,5
 1120.5 1332 1120.5 1332 1120.5 1114 c 2,6,-1
 1120.5 1043 l 1,7,8
 984.6 1033 984.6 1033 919.8 994 c 128,-1,9
 855 955 855 955 855 881 c 0,10,11
 855 844 855 844 877.05 815.5 c 128,-1,12
 899.1 787 899.1 787 982.8 735 c 2,13,-1
 1044.9 698 l 2,14,15
 1149.3 634 1149.3 634 1197.45 549.5 c 128,-1,16
 1245.6 465 1245.6 465 1245.6 348 c 0,17,18
 1245.6 159 1245.6 159 1142.55 65 c 128,-1,19
 1039.5 -29 1039.5 -29 831.6 -29 c 0,20,21
 773.1 -29 773.1 -29 711 -16.5 c 128,-1,22
 648.9 -4 648.9 -4 582.3 20 c 1,23,-1
 582.3 264 l 1,24,25
 632.7 237 632.7 237 684.45 223 c 128,-1,26
 736.2 209 736.2 209 784.8 209 c 0,27,28
 849.6 209 849.6 209 889.2 245 c 128,-1,29
 928.8 281 928.8 281 928.8 338 c 0,30,31
 928.8 385 928.8 385 904.05 419 c 128,-1,32
 879.3 453 879.3 453 791.1 508 c 2,33,-1
 728.1 547 l 2,34,35
 648.9 596 648.9 596 611.1 663.5 c 128,-1,36
 573.3 731 573.3 731 573.3 821 c 0,37,38
 573.3 937 573.3 937 635.85 1016 c 128,-1,39
 698.4 1095 698.4 1095 828.9 1145 c 1,40,41
 828 1230 828 1230 784.8 1274.5 c 128,-1,42
 741.6 1319 741.6 1319 659.7 1319 c 0,43,44
 568.8 1319 568.8 1319 522.9 1264 c 128,-1,45
 477 1209 477 1209 477 1100 c 2,46,-1
 477 0 l 1,47,-1
 154.8 0 l 1,48,-1
 154.8 1114 l 2,0,1
EndSplineSet
EndChar
StartChar: ae
Encoding: 230 230 230
Width: 1931
Flags: W
AnchorPoint: "below" 956.7 0 basechar 0
AnchorPoint: "above" 956.7 1147 basechar 0
Fore
1511.1 682 m 1,0,1
 1511.1 784 1511.1 784 1457.55 846.5 c 128,-1,2
 1404 909 1404 909 1317.6 909 c 0,3,4
 1224.9 909 1224.9 909 1167.3 850.5 c 128,-1,5
 1109.7 792 1109.7 792 1095.3 682 c 1,6,-1
 1511.1 682 l 1,0,1
606.6 504 m 2,7,8
 505.8 504 505.8 504 454.95 466 c 128,-1,9
 404.1 428 404.1 428 404.1 354 c 0,10,11
 404.1 286 404.1 286 445.05 247.5 c 128,-1,12
 486 209 486 209 558.9 209 c 0,13,14
 649.8 209 649.8 209 711.9 281.5 c 128,-1,15
 774 354 774 354 774 463 c 2,16,-1
 774 504 l 1,17,-1
 606.6 504 l 2,7,8
167.4 1090 m 1,18,19
 274.5 1118 274.5 1118 374.85 1132.5 c 128,-1,20
 475.2 1147 475.2 1147 562.5 1147 c 0,21,22
 697.5 1147 697.5 1147 795.15 1108.5 c 128,-1,23
 892.8 1070 892.8 1070 956.7 991 c 1,24,25
 1026 1068 1026 1068 1117.8 1107.5 c 128,-1,26
 1209.6 1147 1209.6 1147 1319.4 1147 c 0,27,28
 1557.9 1147 1557.9 1147 1700.55 988 c 128,-1,29
 1843.2 829 1843.2 829 1843.2 563 c 2,30,-1
 1843.2 461 l 1,31,-1
 1089 461 l 1,32,33
 1101.6 335 1101.6 335 1171.35 272 c 128,-1,34
 1241.1 209 1241.1 209 1368 209 c 0,35,36
 1469.7 209 1469.7 209 1576.35 242.5 c 128,-1,37
 1683 276 1683 276 1795.5 344 c 1,38,-1
 1795.5 68 l 1,39,40
 1681.2 20 1681.2 20 1566.45 -4.5 c 128,-1,41
 1451.7 -29 1451.7 -29 1338.3 -29 c 0,42,43
 1177.2 -29 1177.2 -29 1057.95 24.5 c 128,-1,44
 938.7 78 938.7 78 873.9 178 c 1,45,46
 783 71 783 71 682.65 21 c 128,-1,47
 582.3 -29 582.3 -29 457.2 -29 c 0,48,49
 282.6 -29 282.6 -29 180.9 69.5 c 128,-1,50
 79.2002 168 79.2002 168 79.2002 336 c 0,51,52
 79.2002 533 79.2002 533 201.15 625 c 128,-1,53
 323.1 717 323.1 717 584.1 717 c 2,54,-1
 774 717 l 1,55,-1
 774 745 l 2,56,57
 774 830 774 830 713.7 869.5 c 128,-1,58
 653.4 909 653.4 909 525.6 909 c 0,59,60
 422.1 909 422.1 909 333 886 c 128,-1,61
 243.9 863 243.9 863 167.4 817 c 1,62,-1
 167.4 1090 l 1,18,19
EndSplineSet
EndChar
StartChar: eth
Encoding: 240 240 240
Width: 1266
Flags: W
AnchorPoint: "above" 634.5 1520 basechar 0
AnchorPoint: "below" 634.5 0 basechar 0
Fore
828 743 m 1,0,1
 778.5 770 778.5 770 729.9 783.5 c 128,-1,2
 681.3 797 681.3 797 634.5 797 c 0,3,4
 529.2 797 529.2 797 472.05 730.5 c 128,-1,5
 414.9 664 414.9 664 414.9 543 c 0,6,7
 414.9 395 414.9 395 473.4 311 c 128,-1,8
 531.9 227 531.9 227 634.5 227 c 0,9,10
 739.8 227 739.8 227 795.6 312.5 c 128,-1,11
 851.4 398 851.4 398 851.4 559 c 0,12,13
 851.4 604 851.4 604 845.55 650 c 128,-1,14
 839.7 696 839.7 696 828 743 c 1,0,1
986.4 1100 m 1,15,16
 1091.7 964 1091.7 964 1139.4 835.5 c 128,-1,17
 1187.1 707 1187.1 707 1187.1 559 c 0,18,19
 1187.1 283 1187.1 283 1040.85 127 c 128,-1,20
 894.6 -29 894.6 -29 634.5 -29 c 0,21,22
 373.5 -29 373.5 -29 226.35 127 c 128,-1,23
 79.2002 283 79.2002 283 79.2002 559 c 0,24,25
 79.2002 790 79.2002 790 214.65 922.5 c 128,-1,26
 350.1 1055 350.1 1055 587.7 1055 c 0,27,28
 629.1 1055 629.1 1055 664.2 1048.5 c 128,-1,29
 699.3 1042 699.3 1042 731.7 1028 c 1,30,-1
 560.7 1247 l 1,31,-1
 225 1128 l 1,32,-1
 191.7 1257 l 1,33,-1
 468 1354 l 1,34,-1
 298.8 1556 l 1,35,-1
 615.6 1556 l 1,36,-1
 715.5 1440 l 1,37,-1
 1053.9 1554 l 1,38,-1
 1085.4 1425 l 1,39,-1
 801.9 1329 l 1,40,-1
 986.4 1100 l 1,15,16
EndSplineSet
EndChar
StartChar: divide
Encoding: 247 247 247
Width: 1544
Flags: W
Fore
634.5 395 m 1,0,-1
 910.8 395 l 1,1,-1
 910.8 86 l 1,2,-1
 634.5 86 l 1,3,-1
 634.5 395 l 1,0,-1
634.5 1198 m 1,4,-1
 910.8 1198 l 1,5,-1
 910.8 889 l 1,6,-1
 634.5 889 l 1,7,-1
 634.5 1198 l 1,4,-1
195.3 760 m 1,8,-1
 1349.1 760 l 1,9,-1
 1349.1 524 l 1,10,-1
 195.3 524 l 1,11,-1
 195.3 760 l 1,8,-1
EndSplineSet
EndChar
StartChar: oslash
Encoding: 248 248 248
Width: 1266
Flags: W
AnchorPoint: "below" 634.5 0 basechar 0
AnchorPoint: "above" 634.5 1147 basechar 0
Fore
770.4 836 m 1,0,1
 744.3 864 744.3 864 710.55 877.5 c 128,-1,2
 676.8 891 676.8 891 634.5 891 c 0,3,4
 527.4 891 527.4 891 471.15 805.5 c 128,-1,5
 414.9 720 414.9 720 414.9 559 c 0,6,7
 414.9 518 414.9 518 418.05 485.5 c 128,-1,8
 421.2 453 421.2 453 427.5 426 c 1,9,-1
 770.4 836 l 1,0,1
492.3 287 m 1,10,11
 520.2 257 520.2 257 555.75 242 c 128,-1,12
 591.3 227 591.3 227 634.5 227 c 0,13,14
 739.8 227 739.8 227 795.6 312.5 c 128,-1,15
 851.4 398 851.4 398 851.4 559 c 0,16,17
 851.4 602 851.4 602 848.25 635.5 c 128,-1,18
 845.1 669 845.1 669 838.8 698 c 1,19,-1
 492.3 287 l 1,10,11
200.7 158 m 1,20,21
 140.4 236 140.4 236 109.8 336 c 128,-1,22
 79.2002 436 79.2002 436 79.2002 559 c 0,23,24
 79.2002 835 79.2002 835 226.35 991 c 128,-1,25
 373.5 1147 373.5 1147 634.5 1147 c 0,26,27
 729.9 1147 729.9 1147 810.45 1125 c 128,-1,28
 891 1103 891 1103 958.5 1059 c 1,29,-1
 1090.8 1217 l 1,30,-1
 1188.9 1116 l 1,31,-1
 1062 967 l 1,32,33
 1125 887 1125 887 1156.05 786 c 128,-1,34
 1187.1 685 1187.1 685 1187.1 559 c 0,35,36
 1187.1 283 1187.1 283 1040.85 127 c 128,-1,37
 894.6 -29 894.6 -29 634.5 -29 c 0,38,39
 537.3 -29 537.3 -29 455.4 -6.5 c 128,-1,40
 373.5 16 373.5 16 304.2 61 c 1,41,-1
 171 -94 l 1,42,-1
 70.2002 0 l 1,43,-1
 200.7 158 l 1,20,21
EndSplineSet
EndChar
StartChar: thorn
Encoding: 254 254 254
Width: 1319
Flags: W
Fore
477 162 m 1,0,-1
 477 -426 l 1,1,-1
 154.8 -426 l 1,2,-1
 154.8 1556 l 1,3,-1
 477 1556 l 1,4,-1
 477 956 l 1,5,6
 543.6 1054 543.6 1054 624.6 1100.5 c 128,-1,7
 705.6 1147 705.6 1147 810.9 1147 c 0,8,9
 997.2 1147 997.2 1147 1116.9 982.5 c 128,-1,10
 1236.6 818 1236.6 818 1236.6 559 c 0,11,12
 1236.6 300 1236.6 300 1116.9 135.5 c 128,-1,13
 997.2 -29 997.2 -29 810.9 -29 c 0,14,15
 705.6 -29 705.6 -29 624.6 17.5 c 128,-1,16
 543.6 64 543.6 64 477 162 c 1,0,-1
691.2 887 m 0,17,18
 587.7 887 587.7 887 532.35 802.5 c 128,-1,19
 477 718 477 718 477 559 c 0,20,21
 477 400 477 400 532.35 315.5 c 128,-1,22
 587.7 231 587.7 231 691.2 231 c 0,23,24
 794.7 231 794.7 231 849.15 315 c 128,-1,25
 903.6 399 903.6 399 903.6 559 c 0,26,27
 903.6 719 903.6 719 849.15 803 c 128,-1,28
 794.7 887 794.7 887 691.2 887 c 0,17,18
EndSplineSet
EndChar
StartChar: dcroat
Encoding: 273 273 273
Width: 1319
Flags: W
Fore
840.6 956 m 1,0,-1
 840.6 1237 l 1,1,-1
 547.2 1237 l 1,2,-1
 547.2 1442 l 1,3,-1
 840.6 1442 l 1,4,-1
 840.6 1556 l 1,5,-1
 1164.6 1556 l 1,6,-1
 1164.6 1442 l 1,7,-1
 1303.2 1442 l 1,8,-1
 1303.2 1237 l 1,9,-1
 1164.6 1237 l 1,10,-1
 1164.6 0 l 1,11,-1
 840.6 0 l 1,12,-1
 840.6 162 l 1,13,14
 774 63 774 63 693.9 17 c 128,-1,15
 613.8 -29 613.8 -29 508.5 -29 c 0,16,17
 322.2 -29 322.2 -29 202.5 135.5 c 128,-1,18
 82.7998 300 82.7998 300 82.7998 559 c 0,19,20
 82.7998 818 82.7998 818 202.5 982.5 c 128,-1,21
 322.2 1147 322.2 1147 508.5 1147 c 0,22,23
 612.9 1147 612.9 1147 693.45 1100.5 c 128,-1,24
 774 1054 774 1054 840.6 956 c 1,0,-1
628.2 231 m 0,25,26
 731.7 231 731.7 231 786.15 315 c 128,-1,27
 840.6 399 840.6 399 840.6 559 c 0,28,29
 840.6 719 840.6 719 786.15 803 c 128,-1,30
 731.7 887 731.7 887 628.2 887 c 0,31,32
 525.6 887 525.6 887 471.15 803 c 128,-1,33
 416.7 719 416.7 719 416.7 559 c 0,34,35
 416.7 399 416.7 399 471.15 315 c 128,-1,36
 525.6 231 525.6 231 628.2 231 c 0,25,26
EndSplineSet
EndChar
StartChar: Hbar
Encoding: 294 294 294
Width: 1794
Flags: W
AnchorPoint: "above" 895.5 1520 basechar 0
Fore
295.2 1493 m 1,0,-1
 641.7 1493 l 1,1,-1
 641.7 1306 l 1,2,-1
 1152.9 1306 l 1,3,-1
 1152.9 1493 l 1,4,-1
 1499.4 1493 l 1,5,-1
 1499.4 1306 l 1,6,-1
 1625.4 1306 l 1,7,-1
 1625.4 1112 l 1,8,-1
 1499.4 1112 l 1,9,-1
 1499.4 0 l 1,10,-1
 1152.9 0 l 1,11,-1
 1152.9 633 l 1,12,-1
 641.7 633 l 1,13,-1
 641.7 0 l 1,14,-1
 295.2 0 l 1,15,-1
 295.2 1112 l 1,16,-1
 169.2 1112 l 1,17,-1
 169.2 1306 l 1,18,-1
 295.2 1306 l 1,19,-1
 295.2 1493 l 1,0,-1
641.7 1112 m 1,20,-1
 641.7 924 l 1,21,-1
 1152.9 924 l 1,22,-1
 1152.9 1112 l 1,23,-1
 641.7 1112 l 1,20,-1
EndSplineSet
EndChar
StartChar: hbar
Encoding: 295 295 295
Width: 1456
Flags: W
AnchorPoint: "above" 459 1520 basechar 0
Fore
1306.8 682 m 2,0,-1
 1306.8 0 l 1,1,-1
 982.8 0 l 1,2,-1
 982.8 111 l 1,3,-1
 982.8 520 l 2,4,5
 982.8 667 982.8 667 976.95 722 c 128,-1,6
 971.1 777 971.1 777 956.7 803 c 0,7,8
 937.8 838 937.8 838 905.4 857.5 c 128,-1,9
 873 877 873 877 831.6 877 c 0,10,11
 730.8 877 730.8 877 673.2 790.5 c 128,-1,12
 615.6 704 615.6 704 615.6 551 c 2,13,-1
 615.6 0 l 1,14,-1
 293.4 0 l 1,15,-1
 293.4 1255 l 1,16,-1
 149.4 1255 l 1,17,-1
 149.4 1449 l 1,18,-1
 293.4 1449 l 1,19,-1
 293.4 1556 l 1,20,-1
 615.6 1556 l 1,21,-1
 615.6 1449 l 1,22,-1
 942.3 1449 l 1,23,-1
 942.3 1255 l 1,24,-1
 615.6 1255 l 1,25,-1
 615.6 956 l 1,26,27
 688.5 1054 688.5 1054 770.4 1100.5 c 128,-1,28
 852.3 1147 852.3 1147 951.3 1147 c 0,29,30
 1125.9 1147 1125.9 1147 1216.35 1028 c 128,-1,31
 1306.8 909 1306.8 909 1306.8 682 c 2,0,-1
EndSplineSet
EndChar
StartChar: dotlessi
Encoding: 305 305 305
Width: 631
Flags: W
AnchorPoint: "below" 315 0 basechar 0
AnchorPoint: "above" 315 1147 basechar 0
Fore
154.8 1120 m 1,0,-1
 477 1120 l 1,1,-1
 477 0 l 1,2,-1
 154.8 0 l 1,3,-1
 154.8 1120 l 1,0,-1
EndSplineSet
EndChar
StartChar: kgreenlandic
Encoding: 312 312 312
Width: 1225
Flags: W
Fore
154.8 1120 m 1,0,-1
 477 1120 l 1,1,-1
 477 709 l 1,2,-1
 847.8 1120 l 1,3,-1
 1222.2 1120 l 1,4,-1
 729.9 606 l 1,5,-1
 1260.9 0 l 1,6,-1
 870.3 0 l 1,7,-1
 477 467 l 1,8,-1
 477 0 l 1,9,-1
 154.8 0 l 1,10,-1
 154.8 1120 l 1,0,-1
EndSplineSet
EndChar
StartChar: Lslash
Encoding: 321 321 321
Width: 1183
Flags: W
Fore
179.1 1493 m 1,0,-1
 525.6 1493 l 1,1,-1
 525.6 1077 l 1,2,-1
 754.2 1262 l 1,3,-1
 882.9 1069 l 1,4,-1
 525.6 797 l 1,5,-1
 525.6 291 l 1,6,-1
 1134 291 l 1,7,-1
 1134 0 l 1,8,-1
 179.1 0 l 1,9,-1
 179.1 524 l 1,10,-1
 45.9004 418 l 1,11,-1
 -82.7998 608 l 1,12,-1
 179.1 805 l 1,13,-1
 179.1 1493 l 1,0,-1
EndSplineSet
KernsSLIFO: 366 -73 2 0 356 -339 2 0 253 -139 2 0 221 -319 2 0 217 -73 2 0 219 -73 2 0 218 -73 2 0 210 -73 2 0 212 -73 2 0 211 -73 2 0 376 -319 2 0 255 -139 2 0 8217 -339 2 0 8221 -376 2 0 338 -73 2 0 213 -73 2 0 216 -73 2 0 220 -73 2 0 214 -73 2 0 121 -139 2 0 89 -319 2 0 87 -159 2 0 86 -282 2 0 85 -73 2 0 84 -339 2 0 79 -73 2 0
EndChar
StartChar: lslash
Encoding: 322 322 322
Width: 684
Flags: W
Fore
179.1 1556 m 1,0,-1
 503.1 1556 l 1,1,-1
 503.1 1055 l 1,2,-1
 619.2 1143 l 1,3,-1
 719.1 989 l 1,4,-1
 503.1 825 l 1,5,-1
 503.1 0 l 1,6,-1
 179.1 0 l 1,7,-1
 179.1 641 l 1,8,-1
 66.5996 555 l 1,9,-1
 -33.2998 709 l 1,10,-1
 179.1 872 l 1,11,-1
 179.1 1556 l 1,0,-1
EndSplineSet
EndChar
StartChar: Eng
Encoding: 330 330 330
Width: 1542
Flags: W
AnchorPoint: "above" 791.1 1520 basechar 0
Fore
186.3 1493 m 1,0,-1
 497.7 1493 l 1,1,-1
 1044.9 529 l 1,2,-1
 1044.9 1493 l 1,3,-1
 1357.2 1493 l 1,4,-1
 1357.2 20 l 2,5,6
 1357.2 -203 1357.2 -203 1258.2 -324 c 0,7,8
 1161 -442 1161 -442 976.5 -442 c 2,9,-1
 723.6 -442 l 1,10,-1
 723.6 -207 l 1,11,-1
 873 -207 l 2,12,13
 964.8 -207 964.8 -207 999 -161 c 128,-1,14
 1033.2 -115 1033.2 -115 1033.2 20 c 1,15,-1
 497.7 964 l 1,16,-1
 497.7 0 l 1,17,-1
 186.3 0 l 1,18,-1
 186.3 1493 l 1,0,-1
EndSplineSet
Substitution: 0 2 'salt' Eng.alt
Substitution: 0 5 'locl' Eng.alt
Substitution: 0 2 'aalt' Eng.alt
EndChar
StartChar: eng
Encoding: 331 331 331
Width: 1312
Flags: W
Fore
1168.2 682 m 2,0,-1
 1168.2 20 l 2,1,2
 1168.2 -203 1168.2 -203 1069.2 -324 c 0,3,4
 972 -442 972 -442 787.5 -442 c 2,5,-1
 534.6 -442 l 1,6,-1
 534.6 -207 l 1,7,-1
 684 -207 l 2,8,9
 775.8 -207 775.8 -207 810 -161 c 128,-1,10
 844.2 -115 844.2 -115 844.2 20 c 2,11,-1
 844.2 522 l 2,12,13
 844.2 667 844.2 667 838.8 722 c 0,14,15
 832.5 777 832.5 777 818.1 803 c 0,16,17
 799.2 838 799.2 838 766.8 858 c 0,18,19
 734.4 877 734.4 877 693 877 c 0,20,21
 592.2 877 592.2 877 534.6 790 c 0,22,23
 477 704 477 704 477 551 c 2,24,-1
 477 0 l 1,25,-1
 154.8 0 l 1,26,-1
 154.8 1120 l 1,27,-1
 477 1120 l 1,28,-1
 477 956 l 1,29,30
 549.9 1054 549.9 1054 631.8 1100 c 0,31,32
 713.7 1147 713.7 1147 812.7 1147 c 0,33,34
 987.3 1147 987.3 1147 1078.2 1028 c 0,35,36
 1168.2 909 1168.2 909 1168.2 682 c 2,0,-1
EndSplineSet
EndChar
StartChar: OE
Encoding: 338 338 338
Width: 2151
Flags: W
Fore
1062 1202 m 1,0,-1
 967.5 1202 l 2,1,2
 707.4 1202 707.4 1202 578.7 1089 c 128,-1,3
 450 976 450 976 450 748 c 0,4,5
 450 519 450 519 579.15 405 c 128,-1,6
 708.3 291 708.3 291 967.5 291 c 2,7,-1
 1062 291 l 1,8,-1
 1062 1202 l 1,0,-1
981 1493 m 2,9,-1
 1996.2 1493 l 1,10,-1
 1996.2 1202 l 1,11,-1
 1408.5 1202 l 1,12,-1
 1408.5 924 l 1,13,-1
 1961.1 924 l 1,14,-1
 1961.1 633 l 1,15,-1
 1408.5 633 l 1,16,-1
 1408.5 291 l 1,17,-1
 2016.9 291 l 1,18,-1
 2016.9 0 l 1,19,-1
 981 0 l 2,20,21
 969.3 0 969.3 0 948.15 -1 c 128,-1,22
 927 -2 927 -2 916.2 -2 c 0,23,24
 518.4 -2 518.4 -2 305.1 192.5 c 128,-1,25
 91.7998 387 91.7998 387 91.7998 748 c 0,26,27
 91.7998 1108 91.7998 1108 305.1 1301.5 c 128,-1,28
 518.4 1495 518.4 1495 916.2 1495 c 0,29,30
 926.1 1495 926.1 1495 947.7 1494 c 128,-1,31
 969.3 1493 969.3 1493 981 1493 c 2,9,-1
EndSplineSet
EndChar
StartChar: oe
Encoding: 339 339 339
Width: 2016
Flags: W
AnchorPoint: "above" 1017 1147 basechar 0
AnchorPoint: "below" 1017 0 basechar 0
Fore
1596.6 682 m 1,0,1
 1596.6 784 1596.6 784 1543.05 846.5 c 128,-1,2
 1489.5 909 1489.5 909 1403.1 909 c 0,3,4
 1309.5 909 1309.5 909 1251 850.5 c 128,-1,5
 1192.5 792 1192.5 792 1178.1 682 c 1,6,-1
 1596.6 682 l 1,0,1
1927.8 563 m 2,7,-1
 1927.8 461 l 1,8,-1
 1174.5 461 l 1,9,10
 1186.2 335 1186.2 335 1256.4 272 c 128,-1,11
 1326.6 209 1326.6 209 1452.6 209 c 0,12,13
 1554.3 209 1554.3 209 1660.95 242.5 c 128,-1,14
 1767.6 276 1767.6 276 1880.1 344 c 1,15,-1
 1880.1 68 l 1,16,17
 1766.7 20 1766.7 20 1651.5 -4.5 c 128,-1,18
 1536.3 -29 1536.3 -29 1422.9 -29 c 0,19,20
 1274.4 -29 1274.4 -29 1178.1 11.5 c 128,-1,21
 1081.8 52 1081.8 52 1017 139 c 1,22,23
 943.2 55 943.2 55 847.35 13 c 128,-1,24
 751.5 -29 751.5 -29 634.5 -29 c 0,25,26
 373.5 -29 373.5 -29 226.35 127 c 128,-1,27
 79.2002 283 79.2002 283 79.2002 559 c 0,28,29
 79.2002 835 79.2002 835 226.35 991 c 128,-1,30
 373.5 1147 373.5 1147 634.5 1147 c 0,31,32
 755.1 1147 755.1 1147 847.8 1106 c 128,-1,33
 940.5 1065 940.5 1065 1013.4 979 c 1,34,35
 1087.2 1066 1087.2 1066 1176.75 1106.5 c 128,-1,36
 1266.3 1147 1266.3 1147 1387.8 1147 c 0,37,38
 1638 1147 1638 1147 1782.9 990 c 128,-1,39
 1927.8 833 1927.8 833 1927.8 563 c 2,7,-1
634.5 891 m 0,40,41
 527.4 891 527.4 891 471.15 805.5 c 128,-1,42
 414.9 720 414.9 720 414.9 559 c 0,43,44
 414.9 398 414.9 398 471.15 312.5 c 128,-1,45
 527.4 227 527.4 227 634.5 227 c 0,46,47
 739.8 227 739.8 227 795.6 312.5 c 128,-1,48
 851.4 398 851.4 398 851.4 559 c 0,49,50
 851.4 720 851.4 720 795.6 805.5 c 128,-1,51
 739.8 891 739.8 891 634.5 891 c 0,40,41
EndSplineSet
EndChar
StartChar: Tbar
Encoding: 358 358 358
Width: 1257
Flags: W
TeX: 0 0 0 0
Fore
9 1493 m 1,0,-1
 1247.4 1493 l 1,1,-1
 1247.4 1202 l 1,2,-1
 801.9 1202 l 1,3,-1
 801.9 697 l 1,4,-1
 1024.2 697 l 1,5,-1
 1024.2 505 l 1,6,-1
 801.9 505 l 1,7,-1
 801.9 0 l 1,8,-1
 455.4 0 l 1,9,-1
 455.4 505 l 1,10,-1
 233.1 505 l 1,11,-1
 233.1 697 l 1,12,-1
 455.4 697 l 1,13,-1
 455.4 1202 l 1,14,-1
 9 1202 l 1,15,-1
 9 1493 l 1,0,-1
EndSplineSet
EndChar
StartChar: tbar
Encoding: 359 359 359
Width: 881
Flags: W
TeX: 0 0 0 0
Fore
506.7 1438 m 1,0,-1
 506.7 1120 l 1,1,-1
 838.8 1120 l 1,2,-1
 838.8 864 l 1,3,-1
 506.7 864 l 1,4,-1
 506.7 722 l 1,5,-1
 672.3 722 l 1,6,-1
 672.3 530 l 1,7,-1
 506.7 530 l 1,8,-1
 506.7 389 l 2,9,10
 506.7 311 506.7 311 534.6 284 c 0,11,12
 562.5 256 562.5 256 645.3 256 c 2,13,-1
 810.9 256 l 1,14,-1
 810.9 0 l 1,15,-1
 534.6 0 l 2,16,17
 343.8 0 343.8 0 264.6 88 c 0,18,19
 184.5 177 184.5 177 184.5 389 c 2,20,-1
 184.5 530 l 1,21,-1
 24.2998 530 l 1,22,-1
 24.2998 722 l 1,23,-1
 184.5 722 l 1,24,-1
 184.5 864 l 1,25,-1
 24.2998 864 l 1,26,-1
 24.2998 1120 l 1,27,-1
 184.5 1120 l 1,28,-1
 184.5 1438 l 1,29,-1
 506.7 1438 l 1,0,-1
EndSplineSet
EndChar
StartChar: longs
Encoding: 383 383 383
Width: 801
Flags: W
TeX: 0 0 0 0
Fore
517.5 0 m 1,0,-1
 195.3 0 l 1,1,-1
 195.3 864 l 1,2,-1
 35.0996 864 l 1,3,-1
 35.0996 1120 l 1,4,-1
 195.3 1120 l 1,5,-1
 195.3 1198 l 2,6,7
 195.3 1381 195.3 1381 287.1 1468.5 c 128,-1,8
 378.9 1556 378.9 1556 571.5 1556 c 2,9,-1
 818.1 1556 l 1,10,-1
 818.1 1321 l 1,11,-1
 639.9 1321 l 2,12,13
 571.5 1321 571.5 1321 544.5 1293.5 c 0,14,15
 517.5 1265.29 517.5 1265.29 517.5 1198 c 2,16,-1
 517.5 0 l 1,0,-1
EndSplineSet
EndChar
StartChar: uni0180
Encoding: 384 384 384
Width: 1319
Flags: W
TeX: 117 0 0 0
AnchorPoint: "above" 320.4 1520 basechar 0
Fore
477 956 m 1,0,1
 543.6 1054 543.6 1054 624.6 1100 c 0,2,3
 705.6 1147 705.6 1147 810.9 1147 c 0,4,5
 997.2 1147 997.2 1147 1116.9 982 c 0,6,7
 1236.6 818 1236.6 818 1236.6 559 c 0,8,9
 1236.6 300 1236.6 300 1116.9 136 c 0,10,11
 997.2 -29 997.2 -29 810.9 -29 c 0,12,13
 705.6 -29 705.6 -29 624.6 18 c 0,14,15
 543.6 64 543.6 64 477 162 c 1,16,-1
 477 0 l 1,17,-1
 154.8 0 l 1,18,-1
 154.8 1237 l 1,19,-1
 16.2002 1237 l 1,20,-1
 16.2002 1442 l 1,21,-1
 154.8 1442 l 1,22,-1
 154.8 1556 l 1,23,-1
 477 1556 l 1,24,-1
 477 1442 l 1,25,-1
 772.2 1442 l 1,26,-1
 772.2 1237 l 1,27,-1
 477 1237 l 1,28,-1
 477 956 l 1,0,1
691.2 231 m 0,29,30
 794.7 231 794.7 231 849.6 315 c 0,31,32
 903.6 399 903.6 399 903.6 559 c 0,33,34
 903.6 719 903.6 719 849.6 803 c 0,35,36
 794.7 887 794.7 887 691.2 887 c 0,37,38
 587.7 887 587.7 887 532.8 802 c 0,39,40
 477 718 477 718 477 559 c 0,41,42
 477 400 477 400 532.8 316 c 0,43,44
 587.7 231 587.7 231 691.2 231 c 0,29,30
EndSplineSet
EndChar
StartChar: uni0181
Encoding: 385 385 385
Width: 1494
Flags: W
TeX: 117 0 0 0
AnchorPoint: "above" 789.3 1520 basechar 0
Fore
797.4 915 m 2,0,1
 879.3 915 879.3 915 921.6 955 c 0,2,3
 963.9 995 963.9 995 963.9 1073 c 0,4,5
 963.9 1150 963.9 1150 921.6 1190 c 0,6,7
 879.3 1231 879.3 1231 797.4 1231 c 2,8,-1
 605.7 1231 l 1,9,-1
 605.7 915 l 1,10,-1
 797.4 915 l 2,0,1
809.1 262 m 2,11,12
 913.5 262 913.5 262 966.6 311 c 0,13,14
 1018.8 360 1018.8 360 1018.8 459 c 0,15,16
 1018.8 556 1018.8 556 966.6 604 c 0,17,18
 914.4 653 914.4 653 809.1 653 c 2,19,-1
 605.7 653 l 1,20,-1
 605.7 262 l 1,21,-1
 809.1 262 l 2,11,12
1131.3 799 m 1,22,23
 1242.9 763 1242.9 763 1304.1 666 c 0,24,25
 1365.3 569 1365.3 569 1365.3 428 c 0,26,27
 1365.3 212 1365.3 212 1233.9 106 c 0,28,29
 1102.5 0 1102.5 0 834.3 0 c 2,30,-1
 259.2 0 l 1,31,-1
 259.2 1231 l 1,32,33
 193.5 1231 193.5 1231 188.1 1230 c 0,34,35
 147.6 1226 147.6 1226 134.1 1210 c 0,36,37
 107.1 1176 107.1 1176 104.4 1126 c 0,38,39
 103.5 1112 103.5 1112 103.5 1079 c 1,40,-1
 -126 1079 l 1,41,-1
 -126 1156 l 2,42,43
 -126 1294 -126 1294 -82.7998 1359 c 0,44,45
 -66.5996 1383 -66.5996 1383 -36.9004 1412 c 0,46,47
 30.5996 1475 30.5996 1475 154.8 1488 c 0,48,49
 200.7 1493 200.7 1493 259.2 1493 c 2,50,-1
 779.4 1493 l 2,51,52
 1059.3 1493 1059.3 1493 1184.4 1399 c 0,53,54
 1310.4 1305 1310.4 1305 1310.4 1098 c 0,55,56
 1310.4 989 1310.4 989 1264.5 912 c 0,57,58
 1218.6 836 1218.6 836 1131.3 799 c 1,22,23
EndSplineSet
EndChar
StartChar: uni0183
Encoding: 387 387 387
Width: 1319
Flags: W
TeX: 117 0 0 0
Fore
477 956 m 1,0,1
 543.6 1054 543.6 1054 624.6 1100 c 0,2,3
 705.6 1147 705.6 1147 810.9 1147 c 0,4,5
 997.2 1147 997.2 1147 1116.9 982 c 0,6,7
 1236.6 818 1236.6 818 1236.6 559 c 0,8,9
 1236.6 300 1236.6 300 1116.9 136 c 0,10,11
 997.2 -29 997.2 -29 810.9 -29 c 0,12,13
 705.6 -29 705.6 -29 624.6 18 c 0,14,15
 543.6 64 543.6 64 477 162 c 1,16,-1
 477 0 l 1,17,-1
 154.8 0 l 1,18,-1
 154.8 1556 l 1,19,-1
 1080.9 1556 l 1,20,-1
 1080.9 1265 l 1,21,-1
 477 1265 l 1,22,-1
 477 956 l 1,0,1
691.2 231 m 0,23,24
 794.7 231 794.7 231 849.6 315 c 0,25,26
 903.6 399 903.6 399 903.6 559 c 0,27,28
 903.6 719 903.6 719 849.6 803 c 0,29,30
 794.7 887 794.7 887 691.2 887 c 0,31,32
 587.7 887 587.7 887 532.8 802 c 0,33,34
 477 718 477 718 477 559 c 0,35,36
 477 400 477 400 532.8 316 c 0,37,38
 587.7 231 587.7 231 691.2 231 c 0,23,24
EndSplineSet
EndChar
StartChar: uni0184
Encoding: 388 388 388
Width: 1404
Flags: W
TeX: 117 0 0 0
Fore
792 262 m 2,0,1
 900.9 262 900.9 262 949.5 307 c 0,2,3
 1001.7 356 1001.7 356 1001.7 449 c 0,4,5
 1001.7 540 1001.7 540 949.5 588 c 0,6,7
 901.8 633 901.8 633 792 633 c 2,8,-1
 588.6 633 l 1,9,-1
 588.6 262 l 1,10,-1
 792 262 l 2,0,1
817.2 0 m 10,11,-1
 242.1 0 l 17,12,-1
 242.1 924 l 1,0,0
 72.9004 1104 l 1,0,0
 588.6 1493 l 25,14,-1
 588.6 924 l 1,17,-1
 817.2 924 l 2,18,19
 1071.9 924 1071.9 924 1216.8 807 c 0,20,21
 1348.2 701 1348.2 701 1348.2 461 c 24,22,23
 1348.2 223 1348.2 223 1216.8 117 c 0,24,25
 1071.9 0 1071.9 0 817.2 0 c 10,11,-1
EndSplineSet
EndChar
StartChar: uni0185
Encoding: 389 389 389
Width: 1319
Flags: W
TeX: 117 0 0 0
Fore
523.8 956 m 1,0,1
 590.4 1054 590.4 1054 671.4 1100 c 0,2,3
 752.4 1147 752.4 1147 857.7 1147 c 0,4,5
 1044 1147 1044 1147 1163.7 982 c 0,6,7
 1283.4 818 1283.4 818 1283.4 559 c 0,8,9
 1283.4 300 1283.4 300 1163.7 136 c 0,10,11
 1044 -29 1044 -29 857.7 -29 c 0,12,13
 752.4 -29 752.4 -29 671.4 18 c 0,14,15
 590.4 64 590.4 64 523.8 162 c 1,16,-1
 523.8 0 l 1,17,-1
 201.6 0 l 1,18,-1
 201.6 924 l 1,0,0
 46.7998 1104 l 1,19,-1
 523.8 1556 l 1,20,-1
 523.8 956 l 1,0,1
738 231 m 0,23,24
 841.5 231 841.5 231 896.4 315 c 0,25,26
 950.4 399 950.4 399 950.4 559 c 0,27,28
 950.4 719 950.4 719 896.4 803 c 0,29,30
 841.5 887 841.5 887 738 887 c 0,31,32
 634.5 887 634.5 887 579.6 802 c 0,33,34
 523.8 718 523.8 718 523.8 559 c 0,35,36
 523.8 400 523.8 400 579.6 316 c 0,37,38
 634.5 231 634.5 231 738 231 c 0,23,24
EndSplineSet
EndChar
StartChar: uni0186
Encoding: 390 390 390
Width: 1352
Flags: W
TeX: 117 0 0 0
AnchorPoint: "above" 544.5 1520 basechar 0
Fore
91.7998 1409 m 1,0,1
 187.2 1464 187.2 1464 290.7 1492 c 128,-1,2
 394.2 1520 394.2 1520 506.7 1520 c 0,3,4
 842.4 1520 842.4 1520 1038.6 1311.5 c 128,-1,5
 1234.8 1103 1234.8 1103 1234.8 745 c 0,6,7
 1234.8 388 1234.8 388 1038.6 179.5 c 128,-1,8
 842.4 -29 842.4 -29 506.7 -29 c 0,9,10
 394.2 -29 394.2 -29 290.7 -1 c 128,-1,11
 187.2 27 187.2 27 91.7998 82 c 1,12,-1
 91.7998 391 l 1,13,14
 188.1 318 188.1 318 281.7 284 c 128,-1,15
 375.3 250 375.3 250 478.8 250 c 0,16,17
 664.2 250 664.2 250 770.4 382 c 128,-1,18
 876.6 514 876.6 514 876.6 745 c 0,19,20
 876.6 977 876.6 977 770.4 1109 c 128,-1,21
 664.2 1241 664.2 1241 478.8 1241 c 0,22,23
 375.3 1241 375.3 1241 281.7 1207 c 128,-1,24
 188.1 1173 188.1 1173 91.7998 1100 c 1,25,-1
 91.7998 1409 l 1,0,1
EndSplineSet
EndChar
StartChar: uni0187
Encoding: 391 391 391
Width: 1352
Flags: W
TeX: 117 0 0 0
AnchorPoint: "above" 818.1 1520 basechar 0
Fore
1234.8 82 m 1,0,1
 1139.4 27 1139.4 27 1035.9 -1 c 0,2,3
 932.4 -29 932.4 -29 819.9 -29 c 0,4,5
 484.2 -29 484.2 -29 288 180 c 0,6,7
 91.7998 388 91.7998 388 91.7998 745 c 0,8,9
 91.7998 1103 91.7998 1103 288 1312 c 0,10,11
 484.2 1520 484.2 1520 819.9 1520 c 0,12,13
 863.1 1520 863.1 1520 905.4 1516 c 1,14,15
 936 1665 936 1665 1024.2 1754 c 0,16,17
 1161 1892 1161 1892 1437.3 1892 c 2,18,-1
 1507.5 1892 l 1,19,-1
 1507.5 1601 l 1,20,-1
 1453.5 1601 l 2,21,22
 1345.5 1601 1345.5 1601 1290.6 1534 c 0,23,24
 1234.8 1467 1234.8 1467 1234.8 1337 c 2,25,-1
 1234.8 1100 l 1,26,27
 1138.5 1173 1138.5 1173 1044.9 1207 c 0,28,29
 951.3 1241 951.3 1241 847.8 1241 c 0,30,31
 662.4 1241 662.4 1241 556.2 1109 c 0,32,33
 450 977 450 977 450 745 c 0,34,35
 450 514 450 514 556.2 382 c 0,36,37
 662.4 250 662.4 250 847.8 250 c 0,38,39
 951.3 250 951.3 250 1044.9 284 c 0,40,41
 1138.5 318 1138.5 318 1234.8 391 c 1,42,-1
 1234.8 82 l 1,0,1
EndSplineSet
EndChar
StartChar: uni0188
Encoding: 392 392 392
Width: 1092
Flags: W
TeX: 117 0 0 0
AnchorPoint: "above" 659.7 1147 basechar 0
Fore
969.3 1021 m 2,0,-1
 969.3 793 l 1,1,2
 903.6 843 903.6 843 837 867 c 0,3,4
 771.3 891 771.3 891 700.2 891 c 0,5,6
 565.2 891 565.2 891 489.6 804 c 0,7,8
 414.9 716 414.9 716 414.9 559 c 0,9,10
 414.9 402 414.9 402 489.6 314 c 0,11,12
 565.2 227 565.2 227 700.2 227 c 0,13,14
 775.8 227 775.8 227 844.2 252 c 0,15,16
 911.7 277 911.7 277 969.3 326 c 1,17,-1
 969.3 33 l 1,18,19
 893.7 2 893.7 2 815.4 -14 c 0,20,21
 738 -29 738 -29 659.7 -29 c 0,22,23
 387 -29 387 -29 233.1 126 c 0,24,25
 79.2002 282 79.2002 282 79.2002 559 c 0,26,27
 79.2002 836 79.2002 836 233.1 992 c 0,28,29
 386.1 1146 386.1 1146 656.1 1147 c 1,30,31
 676.8 1282 676.8 1282 744.3 1364 c 0,32,33
 841.5 1483 841.5 1483 1026 1483 c 2,34,-1
 1185.3 1483 l 1,35,-1
 1185.3 1248 l 1,36,-1
 1129.5 1248 l 2,37,38
 1037.7 1248 1037.7 1248 1003.5 1202 c 0,39,40
 969.3 1156 969.3 1156 969.3 1021 c 2,0,-1
EndSplineSet
EndChar
StartChar: uni018A
Encoding: 394 394 394
Width: 1620
Flags: W
TeX: 117 0 0 0
AnchorPoint: "above" 789.3 1520 basechar 0
Fore
605.7 1202 m 1,0,-1
 605.7 291 l 1,1,-1
 729.9 291 l 2,2,3
 942.3 291 942.3 291 1054.8 408 c 0,4,5
 1166.4 525 1166.4 525 1166.4 748 c 0,6,7
 1166.4 970 1166.4 970 1054.8 1086 c 0,8,9
 943.2 1202 943.2 1202 729.9 1202 c 2,10,-1
 605.7 1202 l 1,0,-1
259.2 1231 m 1,11,12
 193.5 1231 193.5 1231 188.1 1230 c 0,13,14
 147.6 1226 147.6 1226 134.1 1210 c 0,15,16
 107.1 1176 107.1 1176 104.4 1126 c 0,17,18
 103.5 1112 103.5 1112 103.5 1079 c 1,19,-1
 -126 1079 l 1,20,-1
 -126 1156 l 2,21,22
 -126 1294 -126 1294 -82.7998 1359 c 0,23,24
 -66.5996 1383 -66.5996 1383 -36.9004 1412 c 0,25,26
 30.5996 1475 30.5996 1475 154.8 1488 c 0,27,28
 200.7 1493 200.7 1493 259.2 1493 c 2,29,-1
 624.6 1493 l 2,30,31
 930.6 1493 930.6 1493 1080 1444 c 0,32,33
 1229.4 1396 1229.4 1396 1337.4 1280 c 0,34,35
 1431.9 1178 1431.9 1178 1477.8 1047 c 0,36,37
 1523.7 915 1523.7 915 1523.7 748 c 0,38,39
 1523.7 579 1523.7 579 1477.8 446 c 0,40,41
 1431.9 314 1431.9 314 1337.4 213 c 0,42,43
 1229.4 97 1229.4 97 1078.2 48 c 0,44,45
 927 0 927 0 624.6 0 c 2,46,-1
 259.2 0 l 1,47,-1
 259.2 1231 l 1,11,12
EndSplineSet
EndChar
StartChar: uni018B
Encoding: 395 395 395
Width: 1404
Flags: W
TeX: 117 0 0 0
Fore
725.4 262 m 2,0,-1
 928.8 262 l 1,1,-1
 928.8 633 l 1,2,-1
 725.4 633 l 2,3,4
 615.6 633 615.6 633 567.9 588 c 0,5,6
 515.7 540 515.7 540 515.7 449 c 0,7,8
 515.7 356 515.7 356 567.9 307 c 0,9,10
 616.5 262 616.5 262 725.4 262 c 2,0,-1
700.2 0 m 18,11,12
 445.5 0 445.5 0 300.6 117 c 0,13,14
 169.2 223 169.2 223 169.2 461 c 0,15,16
 169.2 701 169.2 701 300.6 807 c 0,17,18
 445.5 924 445.5 924 700.2 924 c 2,19,-1
 928.8 924 l 1,20,-1
 928.8 1202 l 1,21,-1
 349.2 1202 l 1,22,-1
 349.2 1493 l 1,23,-1
 1275.3 1493 l 1,24,-1
 1275.3 0 l 1,25,-1
 700.2 0 l 18,11,12
EndSplineSet
EndChar
StartChar: uni018C
Encoding: 396 396 396
Width: 1319
Flags: W
TeX: 117 0 0 0
Fore
840.6 956 m 1,0,-1
 840.6 1265 l 1,1,-1
 238.5 1265 l 1,2,-1
 238.5 1556 l 1,3,-1
 1164.6 1556 l 1,4,-1
 1164.6 0 l 1,5,-1
 842.4 0 l 1,6,-1
 842.4 162 l 1,7,8
 775.8 64 775.8 64 694.8 18 c 0,9,10
 613.8 -29 613.8 -29 508.5 -29 c 0,11,12
 322.2 -29 322.2 -29 202.5 136 c 0,13,14
 82.7998 300 82.7998 300 82.7998 559 c 0,15,16
 82.7998 818 82.7998 818 202.5 982 c 0,17,18
 322.2 1147 322.2 1147 508.5 1147 c 0,19,20
 613.8 1147 613.8 1147 694.8 1100 c 0,21,22
 773.1 1056 773.1 1056 840.6 956 c 1,0,-1
628.2 231 m 0,23,24
 731.7 231 731.7 231 786.6 315 c 0,25,26
 840.6 399 840.6 399 840.6 559 c 0,27,28
 840.6 719 840.6 719 786.6 803 c 0,29,30
 731.7 887 731.7 887 628.2 887 c 0,31,32
 525.6 887 525.6 887 471.6 803 c 0,33,34
 416.7 719 416.7 719 416.7 559 c 0,35,36
 416.7 399 416.7 399 471.6 315 c 0,37,38
 525.6 231 525.6 231 628.2 231 c 0,23,24
EndSplineSet
EndChar
StartChar: uni018D
Encoding: 397 397 397
Width: 1266
Flags: W
TeX: 117 0 0 0
AnchorPoint: "above" 634.5 1520 basechar 0
Fore
227.7 -118 m 17,0,1
 337.5 -188 337.5 -188 594.9 -188 c 0,2,3
 777.6 -188 777.6 -188 777.6 -115 c 0,4,5
 777.6 -49 777.6 -49 583.2 -16 c 0,6,7
 359.1 21 359.1 21 233.1 133 c 0,8,9
 80.0996 268 80.0996 268 80.0996 545 c 0,10,11
 80.0996 810 80.0996 810 227.7 966 c 0,12,13
 375.3 1123 375.3 1123 633.6 1123 c 0,14,15
 891 1123 891 1123 1040.4 966 c 0,16,17
 1188 810 1188 810 1188 535 c 0,18,19
 1188 330 1188 330 1040.4 166 c 0,20,21
 994.5 116 994.5 116 936.9 84 c 1,22,23
 1070.1 5 1070.1 5 1070.1 -154 c 0,24,25
 1070.1 -426 1070.1 -426 594.9 -426 c 0,26,27
 356.4 -426 356.4 -426 227.7 -356 c 1,28,-1
 227.7 -118 l 17,0,1
710.1 214 m 1,29,30
 757.8 236 757.8 236 795.6 292 c 0,31,32
 855 379 855 379 855 536 c 0,33,34
 855 693 855 693 795.6 781 c 0,35,36
 737.1 869 737.1 869 633.6 869 c 0,37,38
 532.8 869 532.8 869 473.4 780 c 0,39,40
 414 690 414 690 414 544 c 0,41,42
 414 391 414 391 477 317 c 0,43,44
 541.8 240 541.8 240 630.9 229 c 0,45,46
 672.3 224 672.3 224 710.1 214 c 1,29,30
EndSplineSet
EndChar
StartChar: uni018E
Encoding: 398 398 398
Width: 1259
Flags: W
TeX: 117 0 0 0
AnchorPoint: "above" 621 1520 basechar 0
Fore
1124.1 1493 m 1,0,-1
 1124.1 0 l 1,1,-1
 169.2 0 l 1,2,-1
 169.2 291 l 1,3,-1
 777.6 291 l 1,4,-1
 777.6 633 l 1,5,-1
 224.1 633 l 1,6,-1
 224.1 924 l 1,7,-1
 777.6 924 l 1,8,-1
 777.6 1202 l 1,9,-1
 189 1202 l 1,10,-1
 189 1493 l 1,11,-1
 1124.1 1493 l 1,0,-1
EndSplineSet
EndChar
StartChar: uni018F
Encoding: 399 399 399
Width: 1566
Flags: W
TeX: 117 0 0 0
Fore
1113.88 829 m 8,0,-1
 94.3955 829 l 17,1,2
 91.7998 381.5 91.7998 381.5 275.85 177 c 0,3,4
 459.9 -29 459.9 -29 783 -29 c 0,5,6
 1107 -29 1107 -29 1290.6 177 c 128,-1,7
 1474.2 383 1474.2 383 1474.2 745 c 24,8,9
 1474.2 1106 1474.2 1106 1274.4 1313 c 128,-1,10
 1074.6 1520 1074.6 1520 727.2 1520 c 0,11,12
 593.1 1520 593.1 1520 470.25 1492 c 128,-1,13
 347.4 1464 347.4 1464 238.5 1409 c 1,14,-1
 238.5 1100 l 1,15,16
 351 1171 351 1171 462.15 1206 c 128,-1,17
 573.3 1241 573.3 1241 684.9 1241 c 0,18,19
 891.9 1241 891.9 1241 1003.95 1112.5 c 0,20,21
 1113.88 986.421 1113.88 986.421 1113.88 829 c 8,0,-1
1102.42 571 m 17,22,23
 1081.34 457.055 1081.34 457.055 1029.6 380 c 0,24,25
 942.3 250 942.3 250 783 250 c 0,26,27
 624.6 250 624.6 250 537.3 380 c 0,28,29
 485.555 457.056 485.555 457.056 464.48 571 c 9,30,-1
 1102.42 571 l 17,22,23
EndSplineSet
EndChar
StartChar: uni0190
Encoding: 400 400 400
Width: 1282
Flags: W
TeX: 117 0 0 0
AnchorPoint: "above" 711 1520 basechar 0
Fore
400.5 805 m 1,0,1
 279 839 279 839 216.9 922.5 c 128,-1,2
 154.8 1006 154.8 1006 154.8 1137 c 0,3,4
 154.8 1329 154.8 1329 284.85 1424.5 c 128,-1,5
 414.9 1520 414.9 1520 676.8 1520 c 0,6,7
 774 1520 774 1520 874.8 1504 c 128,-1,8
 975.6 1488 975.6 1488 1078.2 1456 c 1,9,-1
 1078.2 1174 l 1,10,11
 993.6 1215 993.6 1215 908.1 1236 c 128,-1,12
 822.6 1257 822.6 1257 738.9 1257 c 0,13,14
 625.5 1257 625.5 1257 563.4 1210 c 128,-1,15
 501.3 1163 501.3 1163 501.3 1077 c 0,16,17
 501.3 984 501.3 984 565.2 938.5 c 128,-1,18
 629.1 893 629.1 893 759.6 893 c 2,19,-1
 905.4 893 l 1,20,-1
 905.4 645 l 1,21,-1
 766.8 645 l 2,22,23
 620.1 645 620.1 645 544.95 592.5 c 128,-1,24
 469.8 540 469.8 540 469.8 438 c 0,25,26
 469.8 339 469.8 339 543.15 286 c 128,-1,27
 616.5 233 616.5 233 754.2 233 c 0,28,29
 846.9 233 846.9 233 942.75 260.5 c 128,-1,30
 1038.6 288 1038.6 288 1135.8 342 c 1,31,-1
 1135.8 45 l 1,32,33
 1034.1 8 1034.1 8 930.15 -10.5 c 128,-1,34
 826.2 -29 826.2 -29 722.7 -29 c 0,35,36
 429.3 -29 429.3 -29 276.3 86.5 c 128,-1,37
 123.3 202 123.3 202 123.3 424 c 0,38,39
 123.3 573 123.3 573 193.95 669.5 c 128,-1,40
 264.6 766 264.6 766 400.5 805 c 1,0,1
EndSplineSet
EndChar
StartChar: uni0191
Encoding: 401 401 401
Width: 1259
Flags: W
TeX: 117 0 0 0
Fore
169.2 145 m 2,0,-1
 169.2 1493 l 1,1,-1
 1104.3 1493 l 1,2,-1
 1104.3 1202 l 1,3,-1
 515.7 1202 l 1,4,-1
 515.7 924 l 1,5,-1
 1069.2 924 l 1,6,-1
 1069.2 633 l 1,7,-1
 515.7 633 l 1,8,-1
 515.7 145 l 2,9,10
 515.7 -134 515.7 -134 379.8 -272 c 0,11,12
 243 -410 243 -410 -33.2998 -410 c 2,13,-1
 -103.5 -410 l 1,14,-1
 -103.5 -119 l 1,15,-1
 -49.5 -119 l 2,16,17
 58.5 -119 58.5 -119 113.4 -52 c 0,18,19
 169.2 15 169.2 15 169.2 145 c 2,0,-1
EndSplineSet
EndChar
StartChar: florin
Encoding: 402 402 402
Width: 801
Flags: W
AnchorPoint: "above" 354.6 1520 basechar 0
Fore
818.1 1556 m 1,0,-1
 818.1 1321 l 1,1,-1
 639.9 1321 l 2,2,3
 571.5 1321 571.5 1321 544.5 1294 c 0,4,5
 517.5 1266 517.5 1266 517.5 1198 c 2,6,-1
 517.5 1120 l 1,7,-1
 792.9 1120 l 1,8,-1
 792.9 864 l 1,9,-1
 517.5 864 l 1,10,-1
 517.5 -68 l 2,11,12
 517.5 -251 517.5 -251 425.7 -338 c 0,13,14
 333.9 -426 333.9 -426 141.3 -426 c 2,15,-1
 -105.3 -426 l 1,16,-1
 -105.3 -191 l 1,17,-1
 72.9004 -191 l 2,18,19
 141.3 -191 141.3 -191 168.3 -164 c 0,20,21
 195.3 -136 195.3 -136 195.3 -68 c 2,22,-1
 195.3 864 l 1,23,-1
 35.0996 864 l 1,24,-1
 35.0996 1120 l 1,25,-1
 195.3 1120 l 1,26,-1
 195.3 1198 l 2,27,28
 195.3 1381 195.3 1381 287.1 1468 c 0,29,30
 378.9 1556 378.9 1556 571.5 1556 c 2,31,-1
 818.1 1556 l 1,0,-1
EndSplineSet
EndChar
StartChar: uni0193
Encoding: 403 403 403
Width: 1512
Flags: W
TeX: 117 0 0 0
AnchorPoint: "above" 837 1520 basechar 0
Fore
1377 111 m 1,0,1
 1247.4 41 1247.4 41 1107.9 6 c 0,2,3
 968.4 -29 968.4 -29 819.9 -29 c 0,4,5
 484.2 -29 484.2 -29 288 180 c 0,6,7
 91.7998 388 91.7998 388 91.7998 745 c 0,8,9
 91.7998 1106 91.7998 1106 291.6 1313 c 0,10,11
 491.4 1520 491.4 1520 838.8 1520 c 0,12,13
 919.8 1520 919.8 1520 996.3 1510 c 1,14,15
 1026.9 1663 1026.9 1663 1117.8 1754 c 0,16,17
 1253.7 1892 1253.7 1892 1530 1892 c 2,18,-1
 1600.2 1892 l 1,19,-1
 1600.2 1601 l 1,20,-1
 1546.2 1601 l 2,21,22
 1438.2 1601 1438.2 1601 1382.4 1534 c 0,23,24
 1327.5 1467 1327.5 1467 1327.5 1337 c 2,25,-1
 1327.5 1100 l 1,26,27
 1215 1171 1215 1171 1103.4 1206 c 0,28,29
 992.7 1241 992.7 1241 881.1 1241 c 0,30,31
 674.1 1241 674.1 1241 561.6 1112 c 0,32,33
 450 984 450 984 450 745 c 0,34,35
 450 508 450 508 558 379 c 0,36,37
 666 250 666 250 864.9 250 c 0,38,39
 918.9 250 918.9 250 964.8 258 c 0,40,41
 1011.6 265 1011.6 265 1048.5 281 c 1,42,-1
 1048.5 571 l 1,43,-1
 837 571 l 1,44,-1
 837 829 l 1,45,-1
 1377 829 l 1,46,-1
 1377 111 l 1,0,1
EndSplineSet
EndChar
StartChar: uni0194
Encoding: 404 404 404
Width: 1461
Flags: W
TeX: 0 0 0 0
Fore
730.8 818 m 1,0,-1
 1104.3 1493 l 1,1,-1
 1457.1 1493 l 1,2,-1
 908.1 497 l 1,3,-1
 959.4 405 l 2,4,5
 1073.7 198 1073.7 198 1110.6 73 c 128,-1,6
 1147.5 -52 1147.5 -52 1147.5 -114 c 0,7,8
 1149.3 -267 1149.3 -267 1064.7 -349 c 128,-1,9
 980.1 -430 980.1 -430 730.8 -430 c 128,-1,10
 481.5 -430 481.5 -430 396.9 -349 c 128,-1,11
 312.3 -267 312.3 -267 314.1 -114 c 0,12,13
 314.1 -52 314.1 -52 351 73 c 128,-1,14
 387.9 198 387.9 198 502.2 405 c 2,15,-1
 553.5 497 l 1,16,-1
 4.5 1493 l 1,17,-1
 357.3 1493 l 1,18,-1
 730.8 818 l 1,0,-1
716.4 150 m 2,19,20
 631.8 -4 631.8 -4 625.5 -45 c 128,-1,21
 618.3 -86 618.3 -86 617.4 -110 c 128,-1,22
 615.6 -133 615.6 -133 641.7 -162 c 128,-1,23
 666.9 -192 666.9 -192 728.1 -195 c 128,-1,24
 788.4 -198 788.4 -198 817.2 -165 c 128,-1,25
 846 -133 846 -133 844.2 -110 c 128,-1,26
 843.3 -86 843.3 -86 836.1 -45 c 128,-1,27
 829.8 -4 829.8 -4 745.2 150 c 2,28,-1
 730.8 175 l 1,29,-1
 716.4 150 l 2,19,20
EndSplineSet
EndChar
StartChar: uni0195
Encoding: 405 405 405
Width: 1926
Flags: W
TeX: 117 0 0 0
Fore
844.2 520 m 2,0,1
 844.2 667 844.2 667 838.8 722 c 0,2,3
 832.5 777 832.5 777 818.1 803 c 0,4,5
 799.2 838 799.2 838 766.8 858 c 0,6,7
 734.4 877 734.4 877 693 877 c 0,8,9
 592.2 877 592.2 877 534.6 790 c 0,10,11
 477 704 477 704 477 551 c 2,12,-1
 477 0 l 1,13,-1
 154.8 0 l 1,14,-1
 154.8 1556 l 1,15,-1
 477 1556 l 1,16,-1
 477 956 l 1,17,18
 549.9 1054 549.9 1054 631.8 1100 c 0,19,20
 713.7 1147 713.7 1147 812.7 1147 c 0,21,22
 987.3 1147 987.3 1147 1078.2 1028 c 0,23,24
 1168.2 909 1168.2 909 1168.2 682 c 2,25,-1
 1168.2 460 l 2,26,27
 1168.2 291 1168.2 291 1177.2 279 c 0,28,29
 1214.1 227 1214.1 227 1255.5 231 c 2,30,-1
 1274.4 233 l 2,31,32
 1380.6 233 1380.6 233 1454.4 330 c 0,33,34
 1521.9 418 1521.9 418 1521.9 560 c 0,35,36
 1521.9 667 1521.9 667 1470.6 782 c 0,37,38
 1434.6 866 1434.6 866 1359 938 c 1,39,-1
 1357.2 1120 l 1,40,41
 1484.1 1117 1484.1 1117 1568.7 1076 c 0,42,43
 1606.5 1058 1606.5 1058 1653.3 1027 c 0,44,45
 1710 990 1710 990 1746.9 923 c 0,46,47
 1749.6 918 1749.6 918 1790.1 835 c 0,48,49
 1843.2 727 1843.2 727 1843.2 569 c 0,50,51
 1843.2 315 1843.2 315 1705.5 158 c 0,52,53
 1566.9 0 1566.9 0 1348.2 0 c 2,54,-1
 1224.9 -2 l 2,55,56
 1044 -5 1044 -5 943.2 116 c 0,57,58
 844.2 236 844.2 236 844.2 460 c 2,59,-1
 844.2 520 l 2,0,1
EndSplineSet
EndChar
StartChar: uni0196
Encoding: 406 406 406
Width: 802
Flags: W
TeX: 117 0 0 0
AnchorPoint: "above" 340.2 1520 basechar 0
Fore
515.7 1493 m 1,0,-1
 515.7 555 l 2,1,2
 515.7 425 515.7 425 570.6 358 c 0,3,4
 626.4 291 626.4 291 734.4 291 c 2,5,-1
 788.4 291 l 1,6,-1
 788.4 0 l 1,7,-1
 718.2 0 l 2,8,9
 441.9 0 441.9 0 306 138 c 0,10,11
 169.2 276 169.2 276 169.2 555 c 2,12,-1
 169.2 1493 l 1,13,-1
 515.7 1493 l 1,0,-1
EndSplineSet
EndChar
StartChar: uni0197
Encoding: 407 407 407
Width: 717
Flags: W
TeX: 117 0 0 0
AnchorPoint: "above" 340.2 1520 basechar 0
Fore
180.9 1493 m 1,0,-1
 527.4 1493 l 1,1,-1
 527.4 881 l 1,2,-1
 708.3 881 l 1,3,-1
 708.3 621 l 1,4,-1
 527.4 621 l 1,5,-1
 527.4 0 l 1,6,-1
 180.9 0 l 1,7,-1
 180.9 621 l 1,8,-1
 9 621 l 1,9,-1
 9 881 l 1,10,-1
 180.9 881 l 1,11,-1
 180.9 1493 l 1,0,-1
EndSplineSet
EndChar
StartChar: uni0198
Encoding: 408 408 408
Width: 1428
Flags: W
TeX: 117 0 0 0
AnchorPoint: "below" 792.9 0 basechar 0
AnchorPoint: "above" 603 1520 basechar 0
Fore
1482.3 1222 m 1,0,-1
 1325.7 1055 l 1,1,-1
 1295.1 1091 l 2,2,3
 1230.3 1167 1230.3 1167 1175.4 1162 c 0,4,5
 1107 1155 1107 1155 1019.7 1059 c 2,6,-1
 770.4 786 l 1,7,-1
 1484.1 0 l 1,8,-1
 1050.3 0 l 1,9,-1
 515.7 588 l 1,10,-1
 515.7 0 l 1,11,-1
 169.2 0 l 1,12,-1
 169.2 1493 l 1,13,-1
 515.7 1493 l 1,14,-1
 515.7 948 l 1,15,-1
 874.8 1340 l 2,16,17
 1010.7 1487 1010.7 1487 1128.6 1494 c 0,18,19
 1237.5 1500 1237.5 1500 1353.6 1369 c 2,20,-1
 1482.3 1222 l 1,0,-1
EndSplineSet
EndChar
StartChar: uni0199
Encoding: 409 409 409
Width: 1225
Flags: W
TeX: 117 0 0 0
AnchorPoint: "above" 320.4 1520 basechar 0
Fore
477 709 m 1,0,-1
 847.8 1120 l 1,1,-1
 1222.2 1120 l 1,2,-1
 729.9 606 l 1,3,-1
 1260.9 0 l 1,4,-1
 870.3 0 l 1,5,-1
 477 467 l 1,6,-1
 477 0 l 1,7,-1
 154.8 0 l 1,8,-1
 154.8 1094 l 2,9,10
 154.8 1317 154.8 1317 253.8 1438 c 0,11,12
 351 1556 351 1556 535.5 1556 c 2,13,-1
 788.4 1556 l 1,14,-1
 788.4 1321 l 1,15,-1
 639 1321 l 2,16,17
 549 1321 549 1321 513 1275 c 0,18,19
 477 1229 477 1229 477 1094 c 2,20,-1
 477 709 l 1,0,-1
EndSplineSet
EndChar
StartChar: uni019A
Encoding: 410 410 410
Width: 664
Flags: W
TeX: 117 0 0 0
AnchorPoint: "above" 339.3 1520 basechar 0
Fore
173.7 1556 m 1,0,-1
 495.9 1556 l 1,1,-1
 495.9 881 l 1,2,-1
 655.2 881 l 1,3,-1
 655.2 621 l 1,4,-1
 495.9 621 l 1,5,-1
 495.9 0 l 1,6,-1
 173.7 0 l 1,7,-1
 173.7 621 l 1,8,-1
 9 621 l 1,9,-1
 9 881 l 1,10,-1
 173.7 881 l 1,11,-1
 173.7 1556 l 1,0,-1
EndSplineSet
EndChar
StartChar: uni019B
Encoding: 411 411 411
Width: 1090
Flags: W
TeX: 117 0 0 0
AnchorPoint: "above" 540.9 1520 basechar 0
Fore
54.9004 0 m 1,0,-1
 369 1020 l 1,1,-1
 299.7 1229 l 1,2,-1
 13.5 1128 l 1,3,-1
 -19.7998 1257 l 1,4,-1
 258.3 1354 l 1,5,-1
 190.8 1556 l 1,6,-1
 513 1556 l 1,7,-1
 547.2 1455 l 1,8,-1
 842.4 1554 l 1,9,-1
 873.9 1425 l 1,10,-1
 589.5 1328 l 1,11,-1
 1035.9 0 l 1,12,-1
 713.7 0 l 1,13,-1
 540.9 514 l 1,14,-1
 377.1 0 l 1,15,-1
 54.9004 0 l 1,0,-1
EndSplineSet
EndChar
StartChar: uni019C
Encoding: 412 412 412
Width: 1920
Flags: W
TeX: 117 0 0 0
Fore
838.8 186 m 1,0,1
 777.6 82 777.6 82 693 28 c 128,-1,2
 609.3 -27 609.3 -27 508.5 -27 c 0,3,4
 344.7 -27 344.7 -27 243.9 92 c 128,-1,5
 153 199 153 199 153 438 c 2,6,-1
 153 1493 l 1,7,-1
 477 1493 l 1,8,-1
 477 536 l 1,9,10
 476.1 523 476.1 523 475.2 509 c 128,-1,11
 475.2 495 475.2 495 475.2 469 c 0,12,13
 475.2 350 475.2 350 506.7 296 c 128,-1,14
 538.2 243 538.2 243 608.4 243 c 0,15,16
 700.2 243 700.2 243 750.6 327 c 128,-1,17
 800.1 411 800.1 411 801.9 570 c 1,18,-1
 801.9 1493 l 1,19,-1
 1125.9 1493 l 1,20,-1
 1125.9 536 l 2,21,22
 1125.9 350 1125.9 350 1154.7 296 c 128,-1,23
 1183.5 243 1183.5 243 1257.3 243 c 0,24,25
 1350.9 243 1350.9 243 1400.4 328 c 128,-1,26
 1450.8 413 1450.8 413 1450.8 569 c 2,27,-1
 1450.8 1493 l 1,28,-1
 1774.8 1493 l 1,29,-1
 1774.8 0 l 1,30,-1
 1450.8 0 l 1,31,-1
 1450.8 164 l 1,32,33
 1391.4 69 1391.4 69 1314 21 c 128,-1,34
 1237.5 -27 1237.5 -27 1144.8 -27 c 0,35,36
 1040.4 -27 1040.4 -27 960.3 29 c 128,-1,37
 880.2 85 880.2 85 838.8 186 c 1,0,1
EndSplineSet
EndChar
StartChar: uni019D
Encoding: 413 413 413
Width: 1542
Flags: W
TeX: 117 0 0 0
AnchorPoint: "above" 791.1 1520 basechar 0
Fore
169.2 145 m 2,0,-1
 169.2 1493 l 1,1,-1
 556.2 1493 l 1,2,-1
 1044.9 469 l 1,3,-1
 1044.9 1493 l 1,4,-1
 1373.4 1493 l 1,5,-1
 1373.4 0 l 1,6,-1
 986.4 0 l 1,7,-1
 497.7 1024 l 1,8,-1
 497.7 145 l 2,9,10
 497.7 -97 497.7 -97 423.9 -215 c 0,11,12
 404.1 -247 404.1 -247 379.8 -272 c 0,13,14
 243 -410 243 -410 -33.2998 -410 c 2,15,-1
 -103.5 -410 l 1,16,-1
 -103.5 -119 l 1,17,-1
 -49.5 -119 l 2,18,19
 58.5 -119 58.5 -119 113.4 -52 c 0,20,21
 169.2 15 169.2 15 169.2 145 c 2,0,-1
EndSplineSet
EndChar
StartChar: uni019F
Encoding: 415 415 415
Width: 1566
Flags: W
TeX: 117 0 0 0
Fore
783 1520 m 0,0,1
 1107 1520 1107 1520 1290.6 1314 c 0,2,3
 1474.2 1108 1474.2 1108 1474.2 745 c 0,4,5
 1474.2 383 1474.2 383 1290.6 177 c 0,6,7
 1107 -29 1107 -29 783 -29 c 0,8,9
 459.9 -29 459.9 -29 275.4 177 c 0,10,11
 91.7998 383 91.7998 383 91.7998 745 c 0,12,13
 91.7998 1108 91.7998 1108 275.4 1314 c 0,14,15
 459.9 1520 459.9 1520 783 1520 c 0,0,1
783 1241 m 0,16,17
 624.6 1241 624.6 1241 537.3 1111 c 0,18,19
 466.2 1005 466.2 1005 452.7 829 c 1,20,-1
 1114.2 829 l 1,21,22
 1100.7 1005 1100.7 1005 1029.6 1111 c 0,23,24
 942.3 1241 942.3 1241 783 1241 c 0,16,17
464.4 571 m 1,25,26
 486 457 486 457 537.3 380 c 0,27,28
 624.6 250 624.6 250 783 250 c 0,29,30
 942.3 250 942.3 250 1029.6 380 c 0,31,32
 1080.9 457 1080.9 457 1102.5 571 c 1,33,-1
 464.4 571 l 1,25,26
EndSplineSet
EndChar
StartChar: uni01A2
Encoding: 418 418 418
Width: 2052
Flags: W
TeX: 117 0 0 0
Fore
783 1241 m 0,0,1
 624.6 1241 624.6 1241 537.3 1111 c 0,2,3
 450 981 450 981 450 745 c 0,4,5
 450 510 450 510 537.3 380 c 0,6,7
 624.6 250 624.6 250 783 250 c 0,8,9
 942.3 250 942.3 250 1029.6 380 c 1,10,-1
 1029.6 1111 l 1,11,12
 942.3 1241 942.3 1241 783 1241 c 0,0,1
1566.9 0 m 1,13,-1
 1566.9 938 l 2,14,15
 1566.9 1068 1566.9 1068 1512 1135 c 0,16,17
 1456.2 1202 1456.2 1202 1348.2 1202 c 2,18,-1
 1290.6 1202 l 1,19,-1
 1290.6 177 l 1,20,21
 1107 -29 1107 -29 783 -29 c 0,22,23
 459.9 -29 459.9 -29 275.4 177 c 0,24,25
 91.7998 383 91.7998 383 91.7998 745 c 0,26,27
 91.7998 1108 91.7998 1108 275.4 1314 c 0,28,29
 459.9 1520 459.9 1520 783 1520 c 0,30,31
 900 1520 900 1520 999 1493 c 2,32,-1
 1364.4 1493 l 2,33,34
 1643.4 1493 1643.4 1493 1776.6 1355 c 0,35,36
 1913.4 1215 1913.4 1215 1913.4 938 c 2,37,-1
 1913.4 0 l 1,38,-1
 1566.9 0 l 1,13,-1
EndSplineSet
EndChar
StartChar: uni01A3
Encoding: 419 419 419
Width: 1773
Flags: W
TeX: 117 0 0 0
Fore
634.5 891 m 0,0,1
 527.4 891 527.4 891 471.6 806 c 0,2,3
 414.9 720 414.9 720 414.9 559 c 0,4,5
 414.9 398 414.9 398 471.6 312 c 0,6,7
 527.4 227 527.4 227 634.5 227 c 0,8,9
 739.8 227 739.8 227 795.6 312 c 1,10,-1
 795.6 806 l 1,11,12
 739.8 891 739.8 891 634.5 891 c 0,0,1
1266.3 -442 m 1,13,-1
 1266.3 658 l 2,14,15
 1266.3 793 1266.3 793 1232.1 839 c 0,16,17
 1197.9 885 1197.9 885 1106.1 885 c 2,18,-1
 1040.4 885 l 1,19,-1
 1040.4 127 l 1,20,21
 894.6 -29 894.6 -29 634.5 -29 c 0,22,23
 373.5 -29 373.5 -29 226.8 127 c 0,24,25
 79.2002 283 79.2002 283 79.2002 559 c 0,26,27
 79.2002 835 79.2002 835 226.8 991 c 0,28,29
 373.5 1147 373.5 1147 634.5 1147 c 0,30,31
 742.5 1147 742.5 1147 831.6 1120 c 2,32,-1
 1209.6 1120 l 2,33,34
 1394.1 1120 1394.1 1120 1491.3 1002 c 0,35,36
 1588.5 883 1588.5 883 1588.5 658 c 2,37,-1
 1588.5 -442 l 1,38,-1
 1266.3 -442 l 1,13,-1
EndSplineSet
EndChar
StartChar: uni01A4
Encoding: 420 420 420
Width: 1440
Flags: W
TeX: 117 0 0 0
AnchorPoint: "above" 789.3 1520 basechar 0
Fore
605.7 1214 m 1,0,-1
 605.7 797 l 1,1,-1
 797.4 797 l 2,2,3
 898.2 797 898.2 797 953.1 852 c 0,4,5
 1008 906 1008 906 1008 1006 c 0,6,7
 1008 1106 1008 1106 953.1 1160 c 0,8,9
 898.2 1214 898.2 1214 797.4 1214 c 2,10,-1
 605.7 1214 l 1,0,-1
259.2 1231 m 1,11,12
 193.5 1231 193.5 1231 188.1 1230 c 0,13,14
 147.6 1226 147.6 1226 134.1 1210 c 0,15,16
 107.1 1176 107.1 1176 104.4 1126 c 0,17,18
 103.5 1112 103.5 1112 103.5 1079 c 1,19,-1
 -126 1079 l 1,20,-1
 -126 1156 l 2,21,22
 -126 1294 -126 1294 -82.7998 1359 c 0,23,24
 -66.5996 1383 -66.5996 1383 -36.9004 1412 c 0,25,26
 30.5996 1475 30.5996 1475 154.8 1488 c 0,27,28
 200.7 1493 200.7 1493 259.2 1493 c 2,29,-1
 834.3 1493 l 2,30,31
 1090.8 1493 1090.8 1493 1227.6 1366 c 0,32,33
 1365.3 1240 1365.3 1240 1365.3 1006 c 0,34,35
 1365.3 771 1365.3 771 1227.6 644 c 0,36,37
 1090.8 518 1090.8 518 834.3 518 c 2,38,-1
 605.7 518 l 1,39,-1
 605.7 0 l 1,40,-1
 259.2 0 l 1,41,-1
 259.2 1231 l 1,11,12
EndSplineSet
EndChar
StartChar: uni01A5
Encoding: 421 421 421
Width: 1319
Flags: W
TeX: 117 0 0 0
Fore
477 1198 m 2,0,-1
 477 956 l 1,1,2
 543.6 1054 543.6 1054 624.6 1100 c 0,3,4
 705.6 1147 705.6 1147 810.9 1147 c 0,5,6
 997.2 1147 997.2 1147 1116.9 982 c 0,7,8
 1236.6 818 1236.6 818 1236.6 559 c 0,9,10
 1236.6 300 1236.6 300 1116.9 136 c 0,11,12
 997.2 -29 997.2 -29 810.9 -29 c 0,13,14
 705.6 -29 705.6 -29 624.6 18 c 0,15,16
 543.6 64 543.6 64 477 162 c 1,17,-1
 477 -426 l 1,18,-1
 154.8 -426 l 1,19,-1
 154.8 1198 l 2,20,21
 154.8 1366 154.8 1366 246.6 1468 c 0,22,23
 325.8 1556 325.8 1556 531 1556 c 2,24,-1
 777.6 1556 l 1,25,-1
 777.6 1321 l 1,26,-1
 599.4 1321 l 2,27,28
 531 1321 531 1321 504 1294 c 0,29,30
 477 1266 477 1266 477 1198 c 2,0,-1
691.2 887 m 0,31,32
 587.7 887 587.7 887 532.8 802 c 0,33,34
 477 718 477 718 477 559 c 0,35,36
 477 400 477 400 532.8 316 c 0,37,38
 587.7 231 587.7 231 691.2 231 c 0,39,40
 794.7 231 794.7 231 849.6 315 c 0,41,42
 903.6 399 903.6 399 903.6 559 c 0,43,44
 903.6 719 903.6 719 849.6 803 c 0,45,46
 794.7 887 794.7 887 691.2 887 c 0,31,32
EndSplineSet
EndChar
StartChar: uni01A6
Encoding: 422 422 422
Width: 1359
Flags: W
TeX: 117 0 0 0
Fore
515.7 258 m 1,0,-1
 515.7 0 l 1,1,-1
 169.2 0 l 1,2,-1
 169.2 1493 l 1,3,-1
 515.7 1493 l 1,4,-1
 515.7 1233 l 1,5,-1
 744.3 1233 l 2,6,7
 1000.8 1233 1000.8 1233 1137.6 1106 c 0,8,9
 1275.3 980 1275.3 980 1275.3 745 c 0,10,11
 1275.3 511 1275.3 511 1137.6 384 c 0,12,13
 1070.1 322 1070.1 322 972 290 c 1,14,-1
 1081.8 -74 l 2,15,16
 1105.2 -151 1105.2 -151 1139.4 -178 c 0,17,18
 1177.2 -207 1177.2 -207 1259.1 -207 c 2,19,-1
 1359.9 -207 l 1,20,-1
 1359.9 -442 l 1,21,-1
 1173.6 -442 l 2,22,23
 1034.1 -442 1034.1 -442 948.6 -368 c 0,24,25
 870.3 -299 870.3 -299 800.1 -106 c 2,26,-1
 720.9 111 l 2,27,28
 684 212 684 212 678.6 218 c 0,29,30
 652.5 247 652.5 247 608.4 258 c 2,31,-1
 515.7 258 l 1,0,-1
515.7 956 m 1,32,-1
 515.7 537 l 1,33,-1
 707.4 537 l 2,34,35
 808.2 537 808.2 537 863.1 592 c 0,36,37
 918 646 918 646 918 745 c 0,38,39
 918 846 918 846 863.1 901 c 0,40,41
 808.2 956 808.2 956 707.4 956 c 2,42,-1
 515.7 956 l 1,32,-1
EndSplineSet
EndChar
StartChar: uni01A7
Encoding: 423 423 423
Width: 1327
Flags: W
TeX: 117 0 0 0
AnchorPoint: "above" 632.7 1520 basechar 0
Fore
135.9 1446 m 1,0,-1
 135.9 1130 l 1,1,2
 246.6 1185 246.6 1185 351.9 1213 c 128,-1,3
 457.2 1241 457.2 1241 550.8 1241 c 0,4,5
 675 1241 675 1241 734.4 1203 c 128,-1,6
 793.8 1165 793.8 1165 793.8 1085 c 0,7,8
 793.8 1025 793.8 1025 754.2 992 c 0,9,10
 713.7 958 713.7 958 608.4 934 c 2,11,-1
 460.8 901 l 2,12,13
 236.7 851 236.7 851 142.2 749 c 128,-1,14
 47.7002 647 47.7002 647 47.7002 459 c 0,15,16
 47.7002 212 47.7002 212 180 92 c 0,17,18
 311.4 -29 311.4 -29 582.3 -29 c 0,19,20
 710.1 -29 710.1 -29 838.8 -2 c 128,-1,21
 967.5 25 967.5 25 1096.2 78 c 1,22,-1
 1096.2 403 l 1,23,24
 967.5 327 967.5 327 847.8 288 c 0,25,26
 727.2 250 727.2 250 615.6 250 c 0,27,28
 502.2 250 502.2 250 441.9 292 c 128,-1,29
 381.6 334 381.6 334 381.6 412 c 0,30,31
 381.6 482 381.6 482 423 520 c 0,32,33
 463.5 558 463.5 558 585.9 588 c 2,34,-1
 720 621 l 2,35,36
 921.6 669 921.6 669 1015.2 774 c 0,37,38
 1107.9 879 1107.9 879 1107.9 1057 c 0,39,40
 1107.9 1280 1107.9 1280 978.3 1400 c 128,-1,41
 848.7 1520 848.7 1520 605.7 1520 c 0,42,43
 495 1520 495 1520 378 1502 c 0,44,45
 261 1483 261 1483 135.9 1446 c 1,0,-1
EndSplineSet
EndChar
StartChar: uni01A8
Encoding: 424 424 424
Width: 1097
Flags: W
TeX: 117 0 0 0
AnchorPoint: "above" 541.8 1147 basechar 0
Fore
95.4004 1085 m 1,0,-1
 95.4004 813 l 1,1,2
 198.9 861 198.9 861 295.2 885 c 128,-1,3
 391.5 909 391.5 909 477 909 c 0,4,5
 568.8 909 568.8 909 613.8 884 c 0,6,7
 657.9 858 657.9 858 657.9 805 c 0,8,9
 657.9 762 657.9 762 624.6 739 c 0,10,11
 590.4 716 590.4 716 503.1 705 c 1,12,-1
 446.4 696 l 2,13,14
 198.9 661 198.9 661 113.4 581 c 128,-1,15
 27.9004 501 27.9004 501 27.9004 330 c 0,16,17
 27.9004 151 27.9004 151 146.7 61 c 128,-1,18
 265.5 -29 265.5 -29 501.3 -29 c 0,19,20
 601.2 -29 601.2 -29 707.4 -12 c 0,21,22
 814.5 6 814.5 6 927 41 c 1,23,-1
 927 313 l 1,24,25
 830.7 261 830.7 261 729 235 c 0,26,27
 628.2 209 628.2 209 523.8 209 c 0,28,29
 429.3 209 429.3 209 381.6 238 c 128,-1,30
 333.9 267 333.9 267 333.9 324 c 0,31,32
 333.9 372 333.9 372 367.2 396 c 0,33,34
 399.6 419 399.6 419 497.7 432 c 2,35,-1
 554.4 440 l 2,36,37
 769.5 470 769.5 470 855.9 551 c 128,-1,38
 942.3 632 942.3 632 942.3 797 c 0,39,40
 942.3 975 942.3 975 832.5 1061 c 128,-1,41
 722.7 1147 722.7 1147 495.9 1147 c 0,42,43
 406.8 1147 406.8 1147 308.7 1132 c 128,-1,44
 210.6 1117 210.6 1117 95.4004 1085 c 1,0,-1
EndSplineSet
EndChar
StartChar: uni01AA
Encoding: 426 426 426
Width: 1017
Flags: W
TeX: 117 0 0 0
Fore
252 1554 m 1,31,32
 353.7 1554 l 2,30,-1
 538.2 1554 538.2 1554 635.4 1436 c 0,28,29
 716.4 1337 716.4 1337 729.9 1180 c 1,26,27
 834.3 1179 834.3 1179 883.8 1179 c 1,24,25
 883.8 968 l 1,23,-1
 732.6 968 l 1,22,-1
 732.6 -86 l 2,21,-1
 732.6 -154 732.6 -154 759.6 -182 c 0,19,20
 786.6 -209 786.6 -209 855 -209 c 2,17,18
 1033.2 -209 l 1,16,-1
 1033.2 -444 l 1,15,-1
 786.6 -444 l 2,14,-1
 594 -444 594 -444 502.2 -356 c 0,12,13
 410.4 -269 410.4 -269 410.4 -86 c 2,10,11
 410.4 968 l 1,9,-1
 222.3 969 l 2,8,-1
 -54 970 -54 970 -57.5996 1245 c 0,6,7
 -61.2002 1528 -61.2002 1528 194.4 1553 c 1,4,5
 194.4 1554 l 1,3,-1
 199.8 1554 l 1,2,-1
 252 1554 l 1,31,32
405.9 1180 m 1,33,34
 397.8 1244 397.8 1244 376.2 1273 c 0,42,43
 342 1319 342 1319 250.2 1319 c 2,40,41
 211.5 1319 l 2,39,-1
 126.9 1312 126.9 1312 127.8 1254 c 0,37,38
 129.6 1179 129.6 1179 223.2 1179 c 0,35,36
 280.8 1179 280.8 1179 405.9 1180 c 1,33,34
EndSplineSet
EndChar
StartChar: uni01AB
Encoding: 427 427 427
Width: 881
Flags: W
TeX: 117 0 0 0
AnchorPoint: "above" 354.6 1520 basechar 0
Fore
506.7 1438 m 1,0,-1
 506.7 1120 l 1,1,-1
 838.8 1120 l 1,2,-1
 838.8 864 l 1,3,-1
 506.7 864 l 1,4,-1
 506.7 389 l 2,5,6
 506.7 311 506.7 311 534.6 284 c 0,7,8
 562.5 256 562.5 256 645.3 256 c 2,9,-1
 810.9 256 l 1,10,-1
 810.9 0 l 2,11,12
 806.4 -210 806.4 -210 713.7 -324 c 0,13,14
 616.5 -442 616.5 -442 432 -442 c 2,15,-1
 272.7 -442 l 1,16,-1
 272.7 -207 l 1,17,-1
 328.5 -207 l 2,18,19
 420.3 -207 420.3 -207 454.5 -161 c 0,20,21
 486 -118 486 -118 488.7 1 c 1,22,23
 333.9 11 333.9 11 264.6 88 c 0,24,25
 184.5 177 184.5 177 184.5 389 c 2,26,-1
 184.5 864 l 1,27,-1
 24.2998 864 l 1,28,-1
 24.2998 1120 l 1,29,-1
 184.5 1120 l 1,30,-1
 184.5 1438 l 1,31,-1
 506.7 1438 l 1,0,-1
EndSplineSet
EndChar
StartChar: uni01AC
Encoding: 428 428 428
Width: 1302
Flags: W
TeX: 117 0 0 0
AnchorPoint: "above" 684.9 1520 basechar 0
Fore
579.6 1493 m 1,0,-1
 1292.4 1493 l 1,1,-1
 1292.4 1202 l 1,2,-1
 846.9 1202 l 1,3,-1
 846.9 0 l 1,4,-1
 500.4 0 l 1,5,-1
 500.4 1202 l 1,6,-1
 497.7 1202 l 2,7,8
 360 1202 360 1202 316.8 1164 c 0,9,10
 272.7 1126 272.7 1126 272.7 1021 c 2,11,-1
 272.7 972 l 1,12,-1
 27 972 l 1,13,-1
 27 1149 l 2,14,15
 27 1330 27 1330 113.4 1412 c 0,16,17
 199.8 1493 199.8 1493 392.4 1493 c 2,18,-1
 579.6 1493 l 1,0,-1
EndSplineSet
EndChar
StartChar: uni01AD
Encoding: 429 429 429
Width: 881
Flags: W
TeX: 117 0 0 0
AnchorPoint: "above" 343.8 1520 basechar 0
Fore
506.7 1198 m 2,0,-1
 506.7 1120 l 1,1,-1
 838.8 1120 l 1,2,-1
 838.8 864 l 1,3,-1
 506.7 864 l 1,4,-1
 506.7 389 l 2,5,6
 506.7 311 506.7 311 534.6 284 c 0,7,8
 562.5 256 562.5 256 645.3 256 c 2,9,-1
 810.9 256 l 1,10,-1
 810.9 0 l 1,11,-1
 534.6 0 l 2,12,13
 343.8 0 343.8 0 264.6 88 c 0,14,15
 184.5 177 184.5 177 184.5 389 c 2,16,-1
 184.5 864 l 1,17,-1
 24.2998 864 l 1,18,-1
 24.2998 1120 l 1,19,-1
 184.5 1120 l 1,20,-1
 184.5 1198 l 2,21,22
 184.5 1366 184.5 1366 276.3 1468 c 0,23,24
 354.6 1556 354.6 1556 560.7 1556 c 2,25,-1
 807.3 1556 l 1,26,-1
 807.3 1321 l 1,27,-1
 629.1 1321 l 2,28,29
 560.7 1321 560.7 1321 533.7 1294 c 0,30,31
 506.7 1266 506.7 1266 506.7 1198 c 2,0,-1
EndSplineSet
EndChar
StartChar: uni01AE
Encoding: 430 430 430
Width: 1257
Flags: W
TeX: 117 0 0 0
AnchorPoint: "above" 639.9 1520 basechar 0
Fore
455.4 1202 m 1,0,-1
 9 1202 l 1,1,-1
 9 1493 l 1,2,-1
 1247.4 1493 l 1,3,-1
 1247.4 1202 l 1,4,-1
 801.9 1202 l 1,5,-1
 801.9 145 l 2,6,7
 801.9 15 801.9 15 856.8 -52 c 0,8,9
 912.6 -119 912.6 -119 1020.6 -119 c 2,10,-1
 1074.6 -119 l 1,11,-1
 1074.6 -410 l 1,12,-1
 1004.4 -410 l 2,13,14
 728.1 -410 728.1 -410 592.2 -272 c 0,15,16
 455.4 -134 455.4 -134 455.4 145 c 2,17,-1
 455.4 1202 l 1,0,-1
EndSplineSet
EndChar
StartChar: uni01B1
Encoding: 433 433 433
Width: 1417
Flags: W
TeX: 117 0 0 0
Fore
1104.3 1224 m 1,0,-1
 1366.2 1224 l 1,1,-1
 1366.2 1480 l 1,2,-1
 818.1 1480 l 1,3,-1
 818.1 1189 l 1,4,5
 931.5 1103 931.5 1103 990.9 972 c 0,6,7
 1050.3 840 1050.3 840 1050.3 675 c 0,8,9
 1050.3 472 1050.3 472 959.4 356 c 0,10,11
 867.6 239 867.6 239 707.4 239 c 0,12,13
 548.1 239 548.1 239 457.2 356 c 0,14,15
 365.4 472 365.4 472 365.4 675 c 0,16,17
 365.4 839 365.4 839 424.8 972 c 0,18,19
 484.2 1104 484.2 1104 597.6 1189 c 1,20,-1
 597.6 1480 l 1,21,-1
 49.5 1480 l 1,22,-1
 49.5 1224 l 1,23,-1
 311.4 1224 l 1,24,25
 198 1103 198 1103 143.1 964 c 0,26,27
 88.2002 825 88.2002 825 88.2002 661 c 0,28,29
 88.2002 348 88.2002 348 257.4 160 c 0,30,31
 426.6 -29 426.6 -29 707.4 -29 c 0,32,33
 989.1 -29 989.1 -29 1158.3 160 c 0,34,35
 1327.5 348 1327.5 348 1327.5 661 c 0,36,37
 1327.5 825 1327.5 825 1272.6 964 c 0,38,39
 1217.7 1103 1217.7 1103 1104.3 1224 c 1,0,-1
EndSplineSet
EndChar
StartChar: uni01B2
Encoding: 434 434 434
Width: 1499
Flags: W
TeX: 117 0 0 0
AnchorPoint: "above" 340.2 1520 basechar 0
Fore
788.4 0 m 0,0,-1
 718.2 0 l 2,1,2
 441.9 0 441.9 0 306 138 c 0,3,4
 169.2 276 169.2 276 169.2 555 c 2,5,-1
 169.2 1493 l 1,6,-1
 515.7 1493 l 1,7,-1
 515.7 555 l 2,8,9
 515.7 425 515.7 425 570.6 358 c 0,10,11
 626.4 291 626.4 291 734.4 291 c 2,12,-1
 788.4 291 l 0,13,14
 948.6 291 948.6 291 1040.4 408 c 0,15,16
 1145.7 542 1145.7 542 1145.7 675 c 0,17,18
 1145.7 878 1145.7 878 1086.3 972 c 0,19,20
 982.8 1134 982.8 1134 831.6 1229 c 1,21,-1
 831.6 1374 l 1,22,-1
 1074.6 1374 l 1,23,24
 1245.6 1237 1245.6 1237 1368 964 c 0,25,26
 1422.9 841 1422.9 841 1422.9 661 c 0,27,28
 1422.9 408 1422.9 408 1239.3 212 c 0,29,30
 1041.3 0 1041.3 0 788.4 0 c 0,0,-1
EndSplineSet
EndChar
StartChar: uni01B3
Encoding: 435 435 435
Width: 1334
Flags: W
TeX: 117 0 0 0
AnchorPoint: "above" 665.1 1527 basechar 0
Fore
864 1303 m 2,0,1
 963 1476 963 1476 1083.6 1511 c 0,2,3
 1189.8 1542 1189.8 1542 1326.6 1439 c 2,4,-1
 1479.6 1325 l 1,5,-1
 1357.2 1125 l 1,6,-1
 1321.2 1154 l 2,7,8
 1249.2 1209 1249.2 1209 1210.5 1196 c 0,9,10
 1168.2 1182 1168.2 1182 1096.2 1061 c 2,11,-1
 840.6 629 l 1,12,-1
 840.6 0 l 1,13,-1
 494.1 0 l 1,14,-1
 494.1 629 l 1,15,-1
 -18 1493 l 1,16,-1
 360.9 1493 l 1,17,-1
 666.9 961 l 1,18,-1
 864 1303 l 2,0,1
EndSplineSet
EndChar
StartChar: uni01B4
Encoding: 436 436 436
Width: 1336
Flags: W
TeX: 117 0 0 0
AnchorPoint: "above" 594.9 1147 basechar 0
AnchorPoint: "below" 594.9 -430 basechar 0
Fore
1035.9 737 m 1,0,1
 1084.5 872 1084.5 872 1123.2 895 c 0,2,3
 1167.3 920 1167.3 920 1260.9 877 c 2,4,-1
 1363.5 830 l 1,5,-1
 1449 1052 l 1,6,-1
 1216.8 1158 l 2,7,8
 1062.9 1229 1062.9 1229 965.7 1176 c 0,9,10
 842.4 1110 842.4 1110 786.6 924 c 2,11,-1
 615.6 360 l 1,12,-1
 344.7 1120 l 1,13,-1
 22.5 1120 l 1,14,-1
 471.6 -43 l 1,15,-1
 462.6 -74 l 1,16,17
 441.9 -149 441.9 -149 405 -178 c 0,18,19
 367.2 -207 367.2 -207 285.3 -207 c 2,20,-1
 184.5 -207 l 1,21,-1
 184.5 -442 l 1,22,-1
 370.8 -442 l 2,23,24
 510.3 -442 510.3 -442 595.8 -368 c 0,25,26
 679.5 -294 679.5 -294 744.3 -106 c 2,27,-1
 1035.9 737 l 1,0,1
EndSplineSet
EndChar
StartChar: uni01B5
Encoding: 437 437 437
Width: 1336
Flags: W
TeX: 117 0 0 0
AnchorPoint: "above" 645.3 1520 basechar 0
Fore
103.5 1493 m 1,0,-1
 1233 1493 l 1,1,-1
 1233 1260 l 1,2,-1
 951.3 881 l 1,3,-1
 1125.9 881 l 1,4,-1
 1125.9 621 l 1,5,-1
 757.8 621 l 1,6,-1
 512.1 291 l 1,7,-1
 1253.7 291 l 1,8,-1
 1253.7 0 l 1,9,-1
 82.7998 0 l 1,10,-1
 82.7998 233 l 1,11,-1
 371.7 621 l 1,12,-1
 210.6 621 l 1,13,-1
 210.6 881 l 1,14,-1
 565.2 881 l 1,15,-1
 803.7 1202 l 1,16,-1
 103.5 1202 l 1,17,-1
 103.5 1493 l 1,0,-1
EndSplineSet
EndChar
StartChar: uni01B6
Encoding: 438 438 438
Width: 1072
Flags: W
TeX: 117 0 0 0
AnchorPoint: "above" 536.4 1147 basechar 0
Fore
105.3 1120 m 1,0,-1
 984.6 1120 l 1,1,-1
 984.6 870 l 1,2,-1
 821.7 682 l 1,3,-1
 933.3 682 l 1,4,-1
 933.3 461 l 1,5,-1
 630.9 461 l 1,6,-1
 453.6 256 l 1,7,-1
 984.6 256 l 1,8,-1
 984.6 0 l 1,9,-1
 82.7998 0 l 1,10,-1
 82.7998 250 l 1,11,-1
 265.5 461 l 1,12,-1
 160.2 461 l 1,13,-1
 160.2 682 l 1,14,-1
 456.3 682 l 1,15,-1
 613.8 864 l 1,16,-1
 105.3 864 l 1,17,-1
 105.3 1120 l 1,0,-1
EndSplineSet
EndChar
StartChar: uni01B7
Encoding: 439 439 439
Width: 1423
Flags: W
TeX: 117 0 0 0
Fore
705.6 195 m 8,0,1
 847.8 195 847.8 195 921.6 248 c 0,2,3
 994.5 301 994.5 301 994.5 400 c 0,4,5
 994.5 502 994.5 502 919.8 554 c 0,6,7
 844.2 607 844.2 607 697.5 607 c 2,8,-1
 529.2 607 l 1,9,-1
 529.2 852 l 1,10,-1
 803.7 1202 l 1,11,-1
 133.2 1202 l 1,12,-1
 133.2 1493 l 1,13,-1
 1233 1493 l 1,14,-1
 1233 1243 l 1,15,-1
 886.5 809 l 1,16,17
 1006.2 798 1006.2 798 1080 777 c 0,18,19
 1193.4 744 1193.4 744 1270.8 632 c 0,20,21
 1341 529 1341 529 1341 386 c 0,22,23
 1341 164 1341 164 1188 48 c 0,24,25
 1035 -67 1035 -67 708.3 -67 c 16,26,27
 568.8 -67 568.8 -67 429.3 -37 c 0,28,29
 289.8 -6 289.8 -6 153 55 c 1,30,-1
 153 345 l 1,31,32
 293.4 271 293.4 271 432.9 233 c 0,33,34
 571.5 195 571.5 195 705.6 195 c 8,0,1
EndSplineSet
EndChar
StartChar: uni01B8
Encoding: 440 440 440
Width: 1423
Flags: W
TeX: 117 0 0 0
Fore
711 195 m 16,0,1
 845.1 195 845.1 195 983.7 233 c 128,-1,29
 1123.2 271 1123.2 271 1263.6 345 c 1,27,28
 1263.6 55 l 1,26,-1
 1126.8 -6 1126.8 -6 987.3 -37 c 128,-1,25
 847.8 -67 847.8 -67 708.3 -67 c 8,23,24
 381.6 -67 381.6 -67 228.6 48 c 128,-1,22
 75.5996 164 75.5996 164 75.5996 386 c 0,20,21
 75.5996 529 75.5996 529 145.8 632 c 0,18,19
 223.2 744 223.2 744 336.6 777 c 0,16,17
 410.4 798 410.4 798 530.1 809 c 1,14,15
 183.6 1243 l 1,13,-1
 183.6 1493 l 1,12,-1
 1283.4 1493 l 1,11,-1
 1283.4 1202 l 1,10,-1
 612.9 1202 l 1,9,-1
 887.4 852 l 1,8,-1
 887.4 607 l 1,7,-1
 719.1 607 l 2,6,-1
 572.4 607 572.4 607 496.8 554 c 128,-1,5
 422.1 502 422.1 502 422.1 400 c 0,3,4
 422.1 301 422.1 301 495 248 c 128,-1,2
 568.8 195 568.8 195 711 195 c 16,0,1
EndSplineSet
EndChar
StartChar: uni01B9
Encoding: 441 441 441
Width: 1180
Flags: W
TeX: 117 0 0 0
AnchorPoint: "above" 630 1147 basechar 0
Fore
880.2 479 m 1,0,-1
 547.2 864 l 1,1,-1
 1055.7 864 l 1,2,-1
 1055.7 1120 l 1,3,-1
 176.4 1120 l 1,4,-1
 176.4 870 l 1,5,-1
 552.6 436 l 1,6,7
 406.8 427 406.8 427 329.4 404 c 0,8,9
 216 371 216 371 138.6 258 c 0,10,11
 68.4004 156 68.4004 156 68.4004 13 c 0,12,13
 68.4004 -209 68.4004 -209 221.4 -324 c 0,14,15
 374.4 -440 374.4 -440 667.8 -440 c 0,16,17
 771.3 -440 771.3 -440 874.8 -422 c 0,18,19
 979.2 -403 979.2 -403 1080.9 -366 c 1,20,-1
 1080.9 -69 l 1,21,22
 983.7 -123 983.7 -123 887.4 -150 c 0,23,24
 792 -178 792 -178 699.3 -178 c 0,25,26
 561.6 -178 561.6 -178 487.8 -125 c 0,27,28
 414.9 -72 414.9 -72 414.9 27 c 0,29,30
 414.9 129 414.9 129 489.6 182 c 0,31,32
 565.2 234 565.2 234 711.9 234 c 2,33,-1
 880.2 234 l 1,34,-1
 880.2 479 l 1,0,-1
EndSplineSet
EndChar
StartChar: uni01BA
Encoding: 442 442 442
Width: 1072
Flags: W
TeX: 117 0 0 0
Fore
704.7 546 m 17,0,0
 804.6 529 804.6 529 874.8 481 c 0,1,2
 979.2 409 979.2 409 979.2 261 c 0,34,35
 979.2 123 979.2 123 896.4 56 c 0,36,37
 816.3 -9 816.3 -9 610.2 -36 c 2,31,32
 556.2 -43 l 2,30,-1
 461.7 -55 461.7 -55 432 -73 c 0,31,32
 400.5 -92 400.5 -92 400.5 -132 c 0,27,28
 400.5 -180 400.5 -180 446.4 -204 c 0,29,30
 491.4 -228 491.4 -228 581.4 -228 c 0,24,25
 680.4 -228 680.4 -228 776.7 -206 c 0,26,27
 873 -185 873 -185 963.9 -142 c 1,21,22
 963.9 -368 l 1,20,-1
 849.6 -399 849.6 -399 756.9 -412 c 0,21,22
 655.2 -426 655.2 -426 559.8 -426 c 0,17,18
 338.4 -426 338.4 -426 223.2 -351 c 0,19,20
 109.8 -277 109.8 -277 109.8 -127 c 0,14,15
 109.8 14 109.8 14 191.7 81 c 0,16,17
 261 138 261 138 507.6 175 c 2,11,12
 561.6 183 l 2,10,-1
 651.6 196 651.6 196 675.9 210 c 0,11,12
 708.3 228 708.3 228 708.3 266 c 0,7,8
 708.3 311 708.3 311 666 331 c 0,9,10
 621 352 621 352 397.8 352 c 10,4,5
 171 352 l 17,24,-1
 613.8 864 l 1,25,-1
 105.3 864 l 1,26,-1
 105.3 1120 l 1,27,-1
 984.6 1120 l 1,28,-1
 984.6 870 l 1,29,-1
 704.7 546 l 17,0,0
EndSplineSet
EndChar
StartChar: uni01BB
Encoding: 443 443 443
Width: 1282
Flags: W
TeX: 117 0 0 0
Fore
531 283 m 1,0,-1
 1122.3 283 l 1,1,-1
 1122.3 0 l 1,2,-1
 145.8 0 l 1,3,-1
 145.8 283 l 1,4,-1
 414 546 l 1,5,-1
 210.6 546 l 1,6,-1
 210.6 806 l 1,7,-1
 675 806 l 1,8,9
 711.9 850 711.9 850 733.5 893 c 0,10,11
 765 956 765 956 765 1024 c 0,12,13
 765 1129 765 1129 702 1193 c 0,14,15
 638.1 1257 638.1 1257 532.8 1257 c 0,16,17
 451.8 1257 451.8 1257 355.5 1218 c 0,18,19
 259.2 1180 259.2 1180 149.4 1104 c 1,20,-1
 149.4 1432 l 1,21,22
 266.4 1475 266.4 1475 380.7 1498 c 0,23,24
 495 1520 495 1520 604.8 1520 c 0,25,26
 846 1520 846 1520 979.2 1402 c 0,27,28
 1113.3 1284 1113.3 1284 1113.3 1073 c 0,29,30
 1113.3 951 1113.3 951 1056.6 846 c 0,31,32
 1046.7 827 1046.7 827 1032.3 806 c 1,33,-1
 1056.6 806 l 1,34,-1
 1056.6 546 l 1,35,-1
 801 546 l 1,36,-1
 531 283 l 1,0,-1
EndSplineSet
EndChar
StartChar: uni01BC
Encoding: 444 444 444
Width: 1423
Flags: W
TeX: 117 0 0 0
Fore
169.2 607 m 1,0,-1
 169.2 852 l 1,1,-1
 169.2 1493 l 1,2,-1
 1124.1 1493 l 1,3,-1
 1124.1 1202 l 1,4,-1
 515.7 1202 l 1,5,-1
 515.7 852 l 1,6,-1
 712.8 852 l 2,7,8
 942.3 852 942.3 852 1094.4 792 c 0,9,10
 1196.1 752 1196.1 752 1270.8 632 c 0,11,12
 1341 517 1341 517 1341 386 c 0,13,14
 1341 164 1341 164 1188 48 c 0,15,16
 1035 -67 1035 -67 708.3 -67 c 0,17,18
 365.4 -67 365.4 -67 228.6 48 c 0,19,20
 75.5996 178 75.5996 178 75.5996 400 c 1,21,-1
 422.1 400 l 1,22,23
 422.1 301 422.1 301 495 248 c 0,24,25
 568.8 195 568.8 195 706.5 195 c 0,26,27
 847.8 195 847.8 195 921.6 248 c 0,28,29
 994.5 301 994.5 301 994.5 400 c 0,30,31
 994.5 502 994.5 502 919.8 554 c 0,32,33
 844.2 607 844.2 607 697.5 607 c 2,34,-1
 515.7 607 l 1,35,-1
 169.2 607 l 1,0,-1
EndSplineSet
EndChar
StartChar: uni01BD
Encoding: 445 445 445
Width: 1180
Flags: W
TeX: 117 0 0 0
Fore
154.8 234 m 1,0,-1
 154.8 479 l 1,1,-1
 154.8 1120 l 1,2,-1
 918.9 1120 l 1,3,-1
 918.9 899 l 1,4,-1
 477 899 l 1,5,-1
 477 479 l 1,6,-1
 482.4 479 l 2,7,8
 701.1 479 701.1 479 799.2 432 c 0,9,10
 945 362 945 362 1009.8 258 c 0,11,12
 1080.9 143 1080.9 143 1080.9 13 c 0,13,14
 1080.9 -209 1080.9 -209 927.9 -324 c 0,15,16
 774.9 -440 774.9 -440 481.5 -440 c 0,17,18
 378 -440 378 -440 273.6 -422 c 0,19,20
 170.1 -403 170.1 -403 68.4004 -366 c 1,21,-1
 68.4004 -69 l 1,22,23
 165.6 -123 165.6 -123 261 -150 c 0,24,25
 357.3 -178 357.3 -178 450 -178 c 0,26,27
 587.7 -178 587.7 -178 660.6 -125 c 0,28,29
 734.4 -72 734.4 -72 734.4 27 c 0,30,31
 734.4 129 734.4 129 658.8 182 c 0,32,33
 584.1 234 584.1 234 437.4 234 c 2,34,-1
 154.8 234 l 1,0,-1
EndSplineSet
EndChar
StartChar: uni01BE
Encoding: 446 446 446
Width: 1055
Flags: W
TeX: 117 0 0 0
Fore
244.8 789 m 1,0,-1
 244.8 1096 l 1,1,-1
 103.5 1096 l 1,2,-1
 103.5 1290 l 1,3,-1
 244.8 1290 l 1,4,-1
 244.8 1438 l 1,5,-1
 567 1438 l 1,6,-1
 567 1290 l 1,7,-1
 799.2 1290 l 1,8,-1
 799.2 1096 l 1,9,-1
 567 1096 l 1,10,-1
 567 1029 l 1,11,12
 736.2 998 736.2 998 828 904 c 0,13,14
 967.5 759 967.5 759 967.5 528 c 0,15,16
 967.5 313 967.5 313 848.7 180 c 0,17,18
 660.6 -30 660.6 -30 443.7 -30 c 0,19,20
 280.8 -30 280.8 -30 207.9 -12 c 0,21,22
 135 5 135 5 66.5996 40 c 1,23,-1
 66.5996 338 l 1,24,25
 136.8 295 136.8 295 207 274 c 0,26,27
 278.1 252 278.1 252 350.1 252 c 0,28,29
 511.2 252 511.2 252 600.3 366 c 0,30,31
 651.6 432 651.6 432 652.5 528 c 0,32,33
 652.5 599 652.5 599 601.2 675 c 0,34,35
 523.8 789 523.8 789 328.5 789 c 2,36,-1
 244.8 789 l 1,0,-1
EndSplineSet
EndChar
StartChar: uni01BF
Encoding: 447 447 447
Width: 1319
Flags: W
TeX: 117 0 0 0
Fore
477 -132 m 1,1,-1
 477 -426 l 1,2,-1
 154.8 -426 l 1,3,-1
 154.8 1120 l 1,4,-1
 477 1120 l 1,5,-1
 477 955 l 1,6,7
 555.3 1066 555.3 1066 632.7 1103 c 0,8,9
 727.2 1147 727.2 1147 900.9 1147 c 0,10,11
 1084.5 1147 1084.5 1147 1154.7 1035 c 0,12,13
 1236.6 908 1236.6 908 1236.6 769 c 0,14,15
 1236.6 349 1236.6 349 477 -132 c 1,1,-1
477 145 m 17,17,18
 903.6 479 903.6 479 903.6 643 c 0,19,20
 903.6 756 903.6 756 852.3 822 c 0,21,22
 801.9 887 801.9 887 688.5 887 c 0,23,24
 609.3 887 609.3 887 477 684 c 1,25,26
 477 145 l 17,17,18
EndSplineSet
EndChar
StartChar: uni01C0
Encoding: 448 448 448
Width: 685
Flags: W
TeX: 117 0 0 0
Fore
169.2 1493 m 1,0,-1
 515.7 1493 l 1,1,-1
 515.7 -426 l 1,2,-1
 169.2 -426 l 1,3,-1
 169.2 1493 l 1,0,-1
EndSplineSet
EndChar
StartChar: uni01C2
Encoding: 450 450 450
Width: 1002
Flags: W
TeX: 117 0 0 0
Fore
324.9 1493 m 1,0,-1
 671.4 1493 l 1,1,-1
 671.4 933 l 1,2,-1
 987.3 933 l 1,3,-1
 987.3 698 l 1,4,-1
 671.4 698 l 1,5,-1
 671.4 478 l 1,6,-1
 987.3 478 l 1,7,-1
 987.3 241 l 1,8,-1
 671.4 241 l 1,9,-1
 671.4 -426 l 1,10,-1
 324.9 -426 l 1,11,-1
 324.9 241 l 1,12,-1
 9 241 l 1,13,-1
 9 478 l 1,14,-1
 324.9 478 l 1,15,-1
 324.9 698 l 1,16,-1
 9 698 l 1,17,-1
 9 933 l 1,18,-1
 324.9 933 l 1,19,-1
 324.9 1493 l 1,0,-1
EndSplineSet
EndChar
StartChar: uni01E4
Encoding: 484 484 484
Width: 1512
Flags: W
Fore
1377 388 m 1,0,-1
 1377 111 l 1,1,2
 1247.4 41 1247.4 41 1107.9 6 c 128,-1,3
 968.4 -29 968.4 -29 819.9 -29 c 0,4,5
 484.2 -29 484.2 -29 288 180 c 128,-1,6
 91.7998 388 91.7998 388 91.7998 745 c 0,7,8
 91.7998 1106 91.7998 1106 291.6 1313 c 128,-1,9
 491.4 1520 491.4 1520 838.8 1520 c 0,10,11
 972.9 1520 972.9 1520 1096.2 1492 c 128,-1,12
 1218.6 1464 1218.6 1464 1327.5 1409 c 1,13,-1
 1327.5 1100 l 1,14,15
 1215 1171 1215 1171 1103.4 1206 c 128,-1,16
 992.7 1241 992.7 1241 881.1 1241 c 0,17,18
 674.1 1241 674.1 1241 561.6 1112 c 128,-1,19
 450 984 450 984 450 745 c 0,20,21
 450 508 450 508 558 379 c 128,-1,22
 666 250 666 250 864.9 250 c 0,23,24
 918.9 250 918.9 250 964.8 258 c 128,-1,25
 1011.6 265 1011.6 265 1048.5 281 c 1,26,-1
 1048.5 388 l 1,27,-1
 914.4 388 l 1,28,-1
 914.4 462 l 1,29,-1
 1048.5 462 l 1,30,-1
 1048.5 571 l 1,31,-1
 837 571 l 1,32,-1
 837 829 l 1,33,-1
 1377 829 l 1,34,-1
 1377 462 l 1,35,-1
 1458.9 462 l 1,36,-1
 1458.9 388 l 1,37,-1
 1377 388 l 1,0,-1
EndSplineSet
EndChar
StartChar: uni01E5
Encoding: 485 485 485
Width: 1319
Flags: W
Fore
628.2 887 m 0,0,1
 528.3 887 528.3 887 472.5 805 c 128,-1,2
 416.7 723 416.7 723 416.7 573 c 0,3,4
 416.7 419 416.7 419 470.7 340 c 128,-1,5
 524.7 260 524.7 260 628.2 260 c 0,6,7
 729 260 729 260 784.8 342 c 128,-1,8
 840.6 424 840.6 424 840.6 573 c 0,9,10
 840.6 723 840.6 723 784.8 805 c 128,-1,11
 729 887 729 887 628.2 887 c 0,0,1
814.5 -50 m 1,12,13
 840.6 16 840.6 16 840.6 113 c 2,14,-1
 840.6 190 l 1,15,16
 774 92 774 92 693.9 46 c 128,-1,17
 613.8 0 613.8 0 508.5 0 c 0,18,19
 324 0 324 0 203.4 162 c 128,-1,20
 82.7998 323 82.7998 323 82.7998 573 c 0,21,22
 82.7998 824 82.7998 824 203.4 984 c 128,-1,23
 324 1145 324 1145 508.5 1145 c 0,24,25
 613.8 1145 613.8 1145 693.9 1099 c 128,-1,26
 774 1053 774 1053 840.6 954 c 1,27,-1
 840.6 1120 l 1,28,-1
 1164.6 1120 l 1,29,-1
 1164.6 113 l 2,30,31
 1164.6 24 1164.6 24 1148.4 -51 c 1,32,-1
 1242.9 -51 l 1,33,-1
 1242.9 -140 l 1,34,-1
 1120.5 -140 l 1,35,36
 1082.7 -233 1082.7 -233 1011.6 -299 c 0,37,38
 857.7 -442 857.7 -442 566.1 -442 c 0,39,40
 471.6 -442 471.6 -442 383.4 -426 c 128,-1,41
 295.2 -410 295.2 -410 206.1 -377 c 1,42,-1
 206.1 -98 l 1,43,44
 290.7 -152 290.7 -152 371.7 -178 c 128,-1,45
 452.7 -205 452.7 -205 534.6 -205 c 0,46,47
 680.4 -205 680.4 -205 754.2 -139 c 1,48,-1
 456.3 -140 l 1,49,-1
 456.3 -51 l 1,50,-1
 814.5 -50 l 1,12,13
EndSplineSet
EndChar
StartChar: uni01F0
Encoding: 496 496 496
Width: 631
Flags: W
Fore
154.8 1120 m 1,0,-1
 477 1120 l 1,1,-1
 477 20 l 2,2,3
 477 -205 477 -205 379.8 -324 c 128,-1,4
 282.6 -442 282.6 -442 98.0996 -442 c 2,5,-1
 -61.2002 -442 l 1,6,-1
 -61.2002 -207 l 1,7,-1
 -5.40039 -207 l 2,8,9
 86.4004 -207 86.4004 -207 120.6 -161 c 128,-1,10
 154.8 -115 154.8 -115 154.8 20 c 2,11,-1
 154.8 1120 l 1,0,-1
215.1 1262 m 1,12,-1
 -15.2998 1638 l 1,13,-1
 144.9 1638 l 1,14,-1
 324 1411 l 1,15,-1
 503.1 1638 l 1,16,-1
 663.3 1638 l 1,17,-1
 432.9 1262 l 1,18,-1
 215.1 1262 l 1,12,-1
EndSplineSet
EndChar
StartChar: uni01F6
Encoding: 502 502 502
Width: 2375
Flags: W
TeX: 117 0 0 0
Fore
1026.9 924 m 1,0,-1
 1026.9 1493 l 1,1,-1
 1373.4 1493 l 1,2,-1
 1373.4 598 l 2,3,4
 1373.4 413 1373.4 413 1427.4 334 c 0,5,6
 1482.3 254 1482.3 254 1605.6 254 c 0,7,8
 1729.8 254 1729.8 254 1783.8 334 c 0,9,10
 1838.7 413 1838.7 413 1838.7 598 c 2,11,-1
 1838.7 1120 l 1,12,-1
 2185.2 1120 l 1,13,-1
 2185.2 598 l 2,14,15
 2185.2 281 2185.2 281 2042.1 126 c 0,16,17
 1899 -29 1899 -29 1605.6 -29 c 0,18,19
 1314 -30 1314 -30 1170 126 c 0,20,21
 1026.9 281 1026.9 281 1026.9 598 c 2,22,-1
 1026.9 633 l 1,23,-1
 515.7 633 l 1,24,-1
 515.7 0 l 1,25,-1
 169.2 0 l 1,26,-1
 169.2 1493 l 1,27,-1
 515.7 1493 l 1,28,-1
 515.7 924 l 1,29,-1
 1026.9 924 l 1,0,-1
EndSplineSet
EndChar
StartChar: uni01F7
Encoding: 503 503 503
Width: 1450
VWidth: 2216
Flags: W
TeX: 117 0 0 0
Fore
523.8 113 m 1,1,-1
 523.8 -426 l 1,2,-1
 169.2 -426 l 1,3,-1
 169.2 1493 l 1,4,-1
 523.8 1493 l 1,5,-1
 523.8 1308 l 1,6,7
 607.5 1428 607.5 1428 694.8 1471 c 0,8,9
 795.6 1520 795.6 1520 990 1520 c 0,10,11
 1191.6 1520 1191.6 1520 1269 1396 c 0,12,13
 1359 1254 1359 1254 1359 1104 c 0,14,15
 1359 642 1359 642 523.8 113 c 1,1,-1
523.8 417 m 17,16,17
 992.7 785 992.7 785 992.7 965 c 0,18,19
 992.7 1089 992.7 1089 936 1162 c 0,20,21
 881.1 1234 881.1 1234 756 1234 c 0,22,23
 668.7 1234 668.7 1234 523.8 1010 c 1,24,-1
 523.8 417 l 17,16,17
EndSplineSet
EndChar
StartChar: uni021C
Encoding: 540 540 540
Width: 1272
Flags: W
TeX: 117 0 0 0
Fore
123.3 -147 m 1,0,1
 264.6 -112 264.6 -112 458.1 -25 c 0,2,3
 599.4 39 599.4 39 696.6 132 c 0,4,5
 775.8 207 775.8 207 775.8 300 c 0,6,7
 775.8 389 775.8 389 716.4 444 c 0,8,9
 657.9 498 657.9 498 581.4 498 c 0,10,11
 531 498 531 498 473.4 473 c 2,12,-1
 279 388 l 1,13,-1
 279 642 l 1,14,-1
 489.6 737 l 2,15,16
 620.1 796 620.1 796 693 880 c 0,17,18
 756.9 954 756.9 954 756.9 1066 c 0,19,20
 756.9 1160 756.9 1160 691.2 1207 c 0,21,22
 623.7 1256 623.7 1256 531 1256 c 0,23,24
 459 1256 459 1256 354.6 1208 c 0,25,26
 280.8 1174 280.8 1174 180.9 1100 c 1,27,28
 180.9 1356 l 1,29,30
 290.7 1424 290.7 1424 374.4 1464 c 0,31,32
 490.5 1520 490.5 1520 608.4 1520 c 0,33,34
 828.9 1520 828.9 1520 957.6 1416 c 0,35,36
 1104.3 1298 1104.3 1298 1104.3 1133 c 0,37,38
 1104.3 967 1104.3 967 1040.4 864 c 0,39,40
 967.5 747 967.5 747 849.6 674 c 1,41,42
 981.9 655 981.9 655 1055.7 546 c 0,43,44
 1135.8 427 1135.8 427 1135.8 311 c 0,45,46
 1135.8 132 1135.8 132 920.7 -46 c 0,47,48
 776.7 -165 776.7 -165 499.5 -298 c 0,49,50
 309.6 -389 309.6 -389 123.3 -430 c 1,51,-1
 123.3 -147 l 1,0,1
EndSplineSet
EndChar
StartChar: uni021D
Encoding: 541 541 541
Width: 1119
Flags: W
TeX: 117 0 0 0
Fore
90.9004 -204 m 1,0,1
 228.6 -173 228.6 -173 392.4 -105 c 0,2,3
 522.9 -50 522.9 -50 607.5 22 c 0,4,5
 678.6 83 678.6 83 678.6 159 c 0,6,7
 678.6 231 678.6 231 624.6 275 c 0,8,9
 572.4 319 572.4 319 503.1 319 c 0,10,11
 456.3 319 456.3 319 405.9 299 c 2,12,-1
 231.3 230 l 1,13,-1
 231.3 436 l 1,14,-1
 421.2 513 l 2,15,16
 533.7 559 533.7 559 603.9 628 c 0,17,18
 661.5 686 661.5 686 661.5 779 c 0,19,20
 661.5 854 661.5 854 602.1 893 c 0,21,22
 541.8 933 541.8 933 458.1 933 c 0,23,24
 393.3 933 393.3 933 299.7 894 c 0,25,26
 232.2 866 232.2 866 143.1 807 c 1,27,-1
 143.1 1014 l 1,28,29
 224.1 1060 224.1 1060 316.8 1101 c 0,30,31
 421.2 1147 421.2 1147 527.4 1147 c 0,32,33
 726.3 1147 726.3 1147 842.4 1063 c 0,34,35
 973.8 967 973.8 967 973.8 833 c 128,-1,36
 973.8 699 973.8 699 916.2 615 c 0,37,38
 850.5 520 850.5 520 745.2 461 c 1,39,40
 864.9 446 864.9 446 930.6 358 c 0,41,42
 1002.6 261 1002.6 261 1002.6 167 c 0,43,44
 1002.6 21 1002.6 21 809.1 -122 c 0,45,46
 675.9 -221 675.9 -221 429.3 -326 c 0,47,48
 258.3 -399 258.3 -399 90.9004 -433 c 1,49,-1
 90.9004 -204 l 1,0,1
EndSplineSet
EndChar
StartChar: uni0220
Encoding: 544 544 544
Width: 1542
Flags: W
TeX: 117 0 0 0
Fore
1021.5 691 m 18,0,1
 1021.5 873 1021.5 873 1011.6 956 c 0,2,3
 1003.5 1029 1003.5 1029 981 1064 c 0,4,5
 951.3 1110 951.3 1110 901.8 1136 c 0,6,7
 851.4 1162 851.4 1162 787.5 1162 c 0,8,9
 646.2 1162 646.2 1162 566.1 1047 c 128,-1,10
 486 932 486 932 486 730 c 2,11,-1
 486 0 l 1,12,-1
 154.8 0 l 1,13,-1
 154.8 1493 l 1,14,-1
 489.6 1493 l 1,15,-1
 489.6 1266 l 1,16,17
 589.5 1401 589.5 1401 691.2 1459 c 0,18,19
 798.3 1520 798.3 1520 928.8 1520 c 0,20,21
 1133.1 1520 1133.1 1520 1240.2 1362 c 0,22,23
 1346.4 1204 1346.4 1204 1346.4 903 c 2,24,-1
 1346.4 -426 l 1,25,-1
 1021.5 -426 l 9,26,-1
 1021.5 691 l 18,0,1
EndSplineSet
EndChar
StartChar: uni0221
Encoding: 545 545 545
Width: 1593
Flags: W
TeX: 117 0 0 0
AnchorPoint: "above" 1002.6 1520 basechar 0
AnchorPoint: "below" 656.1 0 basechar 0
Fore
1252.8 230 m 0,0,1
 1373.4 230 1373.4 230 1371.6 319 c 0,2,3
 1371.6 344 1371.6 344 1347.3 344 c 0,4,5
 1279.8 344 1279.8 344 1242 293 c 2,6,-1
 1208.7 246 l 1,7,8
 1228.5 230 1228.5 230 1252.8 230 c 0,0,1
628.2 231 m 0,9,10
 731.7 231 731.7 231 786.6 315 c 0,11,12
 840.6 399 840.6 399 840.6 559 c 128,-1,13
 840.6 719 840.6 719 786.6 803 c 0,14,15
 731.7 887 731.7 887 628.2 887 c 0,16,17
 525.6 887 525.6 887 471.6 803 c 0,18,19
 416.7 719 416.7 719 416.7 559 c 128,-1,20
 416.7 399 416.7 399 471.6 315 c 0,21,22
 525.6 231 525.6 231 628.2 231 c 0,9,10
1164.6 514 m 9,23,24
 1233 606 1233 606 1328.4 606 c 0,25,26
 1413 606 1413 606 1458.9 550 c 0,27,28
 1516.5 481 1516.5 481 1514.7 327 c 0,29,30
 1514.7 167 1514.7 167 1455.3 80 c 0,31,32
 1386 -25 1386 -25 1236.6 -26 c 0,33,34
 1154.7 -26 1154.7 -26 1090.8 0 c 17,35,36
 1058.4 -74 1058.4 -74 1031.4 -154 c 25,37,-1
 883.8 -82 l 17,38,39
 901.8 -27 901.8 -27 943.2 86 c 17,40,41
 928.8 100 928.8 100 918 118 c 1,42,43
 877.5 50 877.5 50 814.5 15 c 0,44,45
 735.3 -29 735.3 -29 508.5 -29 c 0,46,47
 322.2 -29 322.2 -29 202.5 136 c 0,48,49
 82.7998 300 82.7998 300 82.7998 559 c 128,-1,50
 82.7998 818 82.7998 818 202.5 982 c 0,51,52
 322.2 1147 322.2 1147 508.5 1147 c 0,53,54
 612.9 1147 612.9 1147 693 1100 c 0,55,56
 774 1054 774 1054 840.6 956 c 1,57,-1
 840.6 1556 l 1,58,-1
 1164.6 1556 l 1,59,-1
 1164.6 514 l 9,23,24
EndSplineSet
EndChar
StartChar: uni0222
Encoding: 546 546 546
Width: 1491
Flags: W
TeX: 117 0 0 0
Fore
747 668 m 0,0,1
 602.1 668 602.1 668 523.8 609 c 0,2,3
 444.6 550 444.6 550 444.6 440 c 128,-1,4
 444.6 330 444.6 330 523.8 272 c 0,5,6
 602.1 213 602.1 213 747 213 c 0,7,8
 892.8 213 892.8 213 969.3 272 c 0,9,10
 1045.8 330 1045.8 330 1045.8 440 c 0,11,12
 1045.8 551 1045.8 551 969.3 610 c 0,13,14
 892.8 668 892.8 668 747 668 c 0,0,1
801 1346 m 9,15,-1
 801 1519 l 1,16,17
 1053.9 1511 1053.9 1511 1192.5 1422 c 0,18,19
 1344.6 1323 1344.6 1323 1344.6 1133 c 0,20,21
 1344.6 1006 1344.6 1006 1269.9 921 c 0,22,23
 1194.3 836 1194.3 836 1047.6 795 c 1,24,25
 1211.4 753 1211.4 753 1295.1 658 c 0,26,27
 1378.8 564 1378.8 564 1378.8 420 c 0,28,29
 1378.8 198 1378.8 198 1219.5 84 c 0,30,31
 1060.2 -29 1060.2 -29 747 -29 c 0,32,33
 432.9 -29 432.9 -29 272.7 84 c 0,34,35
 112.5 198 112.5 198 112.5 420 c 0,36,37
 112.5 564 112.5 564 196.2 658 c 0,38,39
 279.9 753 279.9 753 443.7 795 c 1,40,41
 292.5 825 292.5 825 222.3 911 c 0,42,43
 147.6 1003 147.6 1003 147.6 1083 c 0,44,45
 147.6 1191 147.6 1191 299.7 1291 c 0,46,47
 404.1 1360 404.1 1360 687.6 1369 c 1,48,-1
 687.6 1215 l 17,49,50
 586.8 1217 586.8 1217 538.2 1180 c 0,51,52
 464.4 1124 464.4 1124 464.4 1064 c 0,53,54
 464.4 995 464.4 995 538.2 947 c 0,55,56
 595.8 909 595.8 909 747 909 c 0,57,58
 866.7 909 866.7 909 954 967 c 0,59,60
 1026.9 1015 1026.9 1015 1026.9 1134 c 0,61,62
 1026.9 1241 1026.9 1241 954 1290 c 0,63,64
 882.9 1338 882.9 1338 801 1346 c 9,15,-1
EndSplineSet
EndChar
StartChar: uni0223
Encoding: 547 547 547
Width: 1214
Flags: W
TeX: 117 0 0 0
Fore
743.4 1218 m 9,0,-1
 1062.9 1323 l 1,1,2
 1106.1 1244 1106.1 1244 1106.1 1133 c 24,3,4
 1106.1 1007 1106.1 1007 1043.1 921 c 0,5,6
 981 836 981 836 858.6 795 c 1,7,8
 993.6 754 993.6 754 1064.7 658 c 0,9,10
 1134.9 564 1134.9 564 1134.9 420 c 0,11,12
 1134.9 198 1134.9 198 1001.7 84 c 0,13,14
 869.4 -29 869.4 -29 608.4 -29 c 0,15,16
 346.5 -29 346.5 -29 213.3 84 c 0,17,18
 79.2002 198 79.2002 198 79.2002 420 c 0,19,20
 79.2002 564 79.2002 564 148.5 658 c 0,21,22
 218.7 753 218.7 753 355.5 795 c 1,23,24
 233.1 836 233.1 836 171 921 c 128,-1,25
 108.9 1006 108.9 1006 108.9 1133 c 0,26,27
 108.9 1244 108.9 1244 152.1 1323 c 1,28,-1
 470.7 1218 l 17,29,30
 436.5 1171 436.5 1171 436.5 1094 c 0,31,32
 436.5 1005 436.5 1005 481.5 957 c 0,33,34
 525.6 909 525.6 909 608.4 909 c 0,35,36
 689.4 909 689.4 909 733.5 957 c 128,-1,37
 777.6 1005 777.6 1005 777.6 1094 c 24,38,39
 777.6 1171 777.6 1171 743.4 1218 c 9,0,-1
608.4 668 m 0,40,41
 511.2 668 511.2 668 459 609 c 128,-1,42
 406.8 550 406.8 550 406.8 440 c 128,-1,43
 406.8 330 406.8 330 459 272 c 0,44,45
 511.2 213 511.2 213 608.4 213 c 0,46,47
 704.7 213 704.7 213 756 272 c 0,48,49
 807.3 330 807.3 330 807.3 440 c 0,50,51
 807.3 551 807.3 551 756 610 c 0,52,53
 704.7 668 704.7 668 608.4 668 c 0,40,41
EndSplineSet
EndChar
StartChar: uni0224
Encoding: 548 548 548
Width: 1336
Flags: W
TeX: 117 0 0 0
Fore
1253.7 0 m 1,0,1
 1248.3 -268 1248.3 -268 1099.8 -377 c 0,2,3
 1010.7 -442 1010.7 -442 873 -442 c 2,4,-1
 620.1 -442 l 1,5,-1
 620.1 -207 l 1,6,-1
 769.5 -207 l 2,7,8
 861.3 -207 861.3 -207 895.5 -161 c 0,9,10
 927 -118 927 -118 929.7 0 c 1,11,-1
 82.7998 0 l 1,12,-1
 82.7998 233 l 1,13,-1
 803.7 1202 l 1,14,-1
 103.5 1202 l 1,15,-1
 103.5 1493 l 1,16,-1
 1233 1493 l 1,17,-1
 1233 1260 l 1,18,-1
 512.1 291 l 1,19,-1
 1253.7 291 l 1,20,-1
 1253.7 0 l 1,0,1
EndSplineSet
EndChar
StartChar: uni0225
Encoding: 549 549 549
Width: 1072
Flags: W
TeX: 117 0 0 0
Fore
984.6 0 m 1,0,1
 979.2 -268 979.2 -268 830.7 -377 c 0,2,3
 741.6 -442 741.6 -442 603.9 -442 c 2,4,-1
 351 -442 l 1,5,-1
 351 -207 l 1,6,-1
 500.4 -207 l 2,7,8
 592.2 -207 592.2 -207 626.4 -161 c 0,9,10
 657.9 -118 657.9 -118 660.6 0 c 1,11,-1
 82.7998 0 l 1,12,-1
 82.7998 250 l 1,13,-1
 613.8 864 l 1,14,-1
 105.3 864 l 1,15,-1
 105.3 1120 l 1,16,-1
 984.6 1120 l 1,17,-1
 984.6 870 l 1,18,-1
 453.6 256 l 1,19,-1
 984.6 256 l 1,20,-1
 984.6 0 l 1,0,1
EndSplineSet
EndChar
StartChar: uni0234
Encoding: 564 564 564
Width: 906
Flags: W
TeX: 117 0 0 0
AnchorPoint: "above" 320.4 1520 basechar 0
AnchorPoint: "below" 320.4 0 basechar 0
Fore
576.9 230 m 0,0,1
 697.5 230 697.5 230 695.7 319 c 0,2,3
 695.7 344 695.7 344 671.4 344 c 0,4,5
 603.9 344 603.9 344 566.1 293 c 2,6,-1
 532.8 246 l 1,7,8
 552.6 230 552.6 230 576.9 230 c 0,0,1
477 514 m 9,9,10
 545.4 606 545.4 606 640.8 606 c 0,11,12
 719.1 606 719.1 606 765 558 c 0,13,14
 828.9 490 828.9 490 827.1 327 c 0,15,16
 827.1 166 827.1 166 767.7 78 c 0,17,18
 698.4 -26 698.4 -26 549 -26 c 0,19,20
 467.1 -26 467.1 -26 403.2 0 c 17,21,22
 370.8 -74 370.8 -74 343.8 -154 c 25,23,-1
 196.2 -82 l 17,24,25
 214.2 -27 214.2 -27 255.6 86 c 17,26,27
 154.8 198 154.8 198 154.8 559 c 18,28,-1
 154.8 1556 l 1,29,-1
 477 1556 l 1,30,-1
 477 514 l 9,9,10
EndSplineSet
EndChar
StartChar: uni0235
Encoding: 565 565 565
Width: 1597
Flags: W
TeX: 117 0 0 0
Fore
1168.2 514 m 25,0,0
 1236.6 606 1236.6 606 1332 606 c 0,0,0
 1404.9 606 1404.9 606 1449.9 564 c 0,0,0
 1520.1 498 1520.1 498 1518.3 327 c 0,0,0
 1516.5 154 1516.5 154 1449.9 66 c 0,0,0
 1380.6 -26 1380.6 -26 1240.2 -26 c 0,0,0
 1158.3 -26 1158.3 -26 1094.4 0 c 17,0,0
 1062 -74 1062 -74 1035 -154 c 25,0,0
 887.4 -82 l 17,0,0
 905.4 -27 905.4 -27 946.8 86 c 17,0,0
 840.6 205 840.6 205 844.2 522 c 0,4,5
 846 656 846 656 838.8 722 c 0,6,7
 832.5 777 832.5 777 818.1 803 c 0,7,8
 799.2 838 799.2 838 766.8 858 c 0,9,10
 734.4 877 734.4 877 693 877 c 0,10,11
 592.2 877 592.2 877 534.6 790 c 0,12,13
 477 704 477 704 477 551 c 2,13,-1
 477 0 l 1,14,-1
 154.8 0 l 1,15,-1
 154.8 1120 l 1,16,-1
 477 1120 l 1,17,-1
 477 956 l 1,18,19
 549.9 1054 549.9 1054 631.8 1100 c 0,20,21
 713.7 1147 713.7 1147 812.7 1147 c 0,21,22
 987.3 1147 987.3 1147 1078.2 1028 c 0,23,24
 1168.2 909 1168.2 909 1168.2 682 c 10,0,-1
 1168.2 514 l 25,0,0
1268.1 230 m 0,0,0
 1388.7 234 1388.7 234 1386.9 319 c 0,1,2
 1386 344 1386 344 1362.6 344 c 0,0,0
 1295.1 346 1295.1 346 1257.3 293 c 2,0,0
 1224 246 l 1,1,2
 1243.8 230 1243.8 230 1268.1 230 c 0,0,0
EndSplineSet
EndChar
StartChar: uni0236
Encoding: 566 566 566
Width: 943
Flags: W
TeX: 117 0 0 0
AnchorPoint: "above" 354.6 1520 basechar 0
AnchorPoint: "below" 354.6 0 basechar 0
Fore
598.5 240 m 0,0,1
 719.1 244 719.1 244 717.3 329 c 0,2,3
 716.4 354 716.4 354 693 354 c 0,4,5
 625.5 356 625.5 356 587.7 303 c 2,6,-1
 554.4 256 l 1,7,8
 574.2 240 574.2 240 598.5 240 c 0,0,1
506.7 1438 m 1,9,-1
 506.7 1120 l 1,10,-1
 838.8 1120 l 1,11,-1
 838.8 864 l 1,12,-1
 506.7 864 l 1,13,-1
 507.6 508 l 25,14,15
 582.3 604 582.3 604 677.7 604 c 0,16,17
 759.6 604 759.6 604 805.5 552 c 0,18,19
 865.8 483 865.8 483 864 325 c 128,-1,20
 862.2 167 862.2 167 806.4 80 c 0,21,22
 738 -28 738 -28 585.9 -28 c 0,23,24
 504 -28 504 -28 440.1 -2 c 17,25,26
 407.7 -76 407.7 -76 380.7 -156 c 25,27,-1
 233.1 -84 l 17,28,29
 252 -22 252 -22 286.2 68 c 1,30,31
 274.5 77 274.5 77 264.6 88 c 16,32,33
 184.5 177 184.5 177 184.5 389 c 2,34,-1
 184.5 864 l 1,35,-1
 24.2998 864 l 1,36,-1
 24.2998 1120 l 1,37,-1
 184.5 1120 l 1,38,-1
 184.5 1438 l 1,39,-1
 506.7 1438 l 1,9,-1
EndSplineSet
EndChar
StartChar: dotlessj
Encoding: 567 567 567
Width: 631
Flags: W
AnchorPoint: "below" 315.9 -430 basechar 0
AnchorPoint: "above" 315.9 1147 basechar 0
Fore
154.8 1120 m 1,0,-1
 477 1120 l 1,1,-1
 477 20 l 2,2,3
 477 -205 477 -205 379.8 -323.5 c 128,-1,4
 282.6 -442 282.6 -442 98.0996 -442 c 2,5,-1
 -61.2002 -442 l 1,6,-1
 -61.2002 -207 l 1,7,-1
 -5.40039 -207 l 2,8,9
 86.4004 -207 86.4004 -207 120.6 -161 c 128,-1,10
 154.8 -115 154.8 -115 154.8 20 c 2,11,-1
 154.8 1120 l 1,0,-1
EndSplineSet
EndChar
StartChar: uni0238
Encoding: 568 568 568
Width: 2005
Flags: W
TeX: 117 0 0 0
Fore
628.2 231 m 0,0,1
 731.7 231 731.7 231 786.6 315 c 0,2,3
 840.6 399 840.6 399 840.6 559 c 0,4,5
 840.6 719 840.6 719 786.6 803 c 0,6,7
 731.7 887 731.7 887 628.2 887 c 0,8,9
 525.6 887 525.6 887 471.6 803 c 0,10,11
 416.7 719 416.7 719 416.7 559 c 0,12,13
 416.7 399 416.7 399 471.6 315 c 0,14,15
 525.6 231 525.6 231 628.2 231 c 0,0,1
1377 231 m 0,16,17
 1480.5 231 1480.5 231 1535.4 315 c 0,18,19
 1589.4 399 1589.4 399 1589.4 559 c 0,20,21
 1589.4 719 1589.4 719 1535.4 803 c 0,22,23
 1480.5 887 1480.5 887 1377 887 c 0,24,25
 1273.5 887 1273.5 887 1218.6 802 c 0,26,27
 1172.7 733 1172.7 733 1164.6 614 c 2,28,-1
 1164.6 504 l 2,29,30
 1172.7 385 1172.7 385 1218.6 316 c 0,31,32
 1273.5 231 1273.5 231 1377 231 c 0,16,17
1162.8 1556 m 1,33,-1
 1164.6 1556 l 1,34,-1
 1164.6 959 l 1,35,36
 1230.3 1055 1230.3 1055 1310.4 1100 c 0,37,38
 1391.4 1147 1391.4 1147 1496.7 1147 c 0,39,40
 1683 1147 1683 1147 1802.7 982 c 0,41,42
 1922.4 818 1922.4 818 1922.4 559 c 0,43,44
 1922.4 300 1922.4 300 1802.7 136 c 0,45,46
 1683 -29 1683 -29 1496.7 -29 c 0,47,48
 1391.4 -29 1391.4 -29 1310.4 18 c 0,49,50
 1230.3 63 1230.3 63 1164.6 159 c 1,51,-1
 1164.6 0 l 1,52,-1
 1162.8 0 l 1,53,-1
 840.6 0 l 1,54,-1
 840.6 162 l 1,55,56
 774 63 774 63 693.9 17 c 0,57,58
 613.8 -29 613.8 -29 508.5 -29 c 0,59,60
 322.2 -29 322.2 -29 202.5 136 c 0,61,62
 82.7998 300 82.7998 300 82.7998 559 c 0,63,64
 82.7998 818 82.7998 818 202.5 982 c 0,65,66
 322.2 1147 322.2 1147 508.5 1147 c 0,67,68
 612.9 1147 612.9 1147 693 1100 c 0,69,70
 774 1054 774 1054 840.6 956 c 1,71,-1
 840.6 1556 l 1,72,-1
 1162.8 1556 l 1,33,-1
EndSplineSet
EndChar
StartChar: uni0239
Encoding: 569 569 569
Width: 2005
Flags: W
TeX: 117 0 0 0
Fore
628.2 887 m 0,0,1
 525.6 887 525.6 887 471.6 803 c 0,2,3
 416.7 719 416.7 719 416.7 559 c 0,4,5
 416.7 399 416.7 399 471.6 315 c 0,6,7
 525.6 231 525.6 231 628.2 231 c 0,8,9
 731.7 231 731.7 231 786.6 315 c 0,10,11
 840.6 399 840.6 399 840.6 559 c 0,12,13
 840.6 719 840.6 719 786.6 803 c 0,14,15
 731.7 887 731.7 887 628.2 887 c 0,0,1
1377 887 m 0,16,17
 1273.5 887 1273.5 887 1218.6 802 c 0,18,19
 1172.7 733 1172.7 733 1164.6 614 c 2,20,-1
 1164.6 504 l 2,21,22
 1172.7 385 1172.7 385 1218.6 316 c 0,23,24
 1273.5 231 1273.5 231 1377 231 c 0,25,26
 1480.5 231 1480.5 231 1535.4 315 c 0,27,28
 1589.4 399 1589.4 399 1589.4 559 c 0,29,30
 1589.4 719 1589.4 719 1535.4 803 c 0,31,32
 1480.5 887 1480.5 887 1377 887 c 0,16,17
1164.6 159 m 1,33,-1
 1164.6 -426 l 1,34,-1
 1162.8 -426 l 1,35,-1
 840.6 -426 l 1,36,-1
 840.6 162 l 1,37,38
 774 63 774 63 693.9 17 c 0,39,40
 613.8 -29 613.8 -29 508.5 -29 c 0,41,42
 322.2 -29 322.2 -29 202.5 136 c 0,43,44
 82.7998 300 82.7998 300 82.7998 559 c 0,45,46
 82.7998 818 82.7998 818 202.5 982 c 0,47,48
 322.2 1145 322.2 1145 508.5 1145 c 0,49,50
 613.8 1145 613.8 1145 693.9 1099 c 0,51,52
 774 1053 774 1053 840.6 954 c 1,53,-1
 840.6 1120 l 1,54,-1
 1162.8 1120 l 1,55,-1
 1164.6 1120 l 1,56,-1
 1164.6 959 l 1,57,58
 1230.3 1055 1230.3 1055 1310.4 1100 c 0,59,60
 1391.4 1147 1391.4 1147 1496.7 1147 c 0,61,62
 1683 1147 1683 1147 1802.7 982 c 0,63,64
 1922.4 818 1922.4 818 1922.4 559 c 0,65,66
 1922.4 300 1922.4 300 1802.7 136 c 0,67,68
 1683 -29 1683 -29 1496.7 -29 c 0,69,70
 1391.4 -29 1391.4 -29 1310.4 18 c 0,71,72
 1230.3 63 1230.3 63 1164.6 159 c 1,33,-1
EndSplineSet
EndChar
StartChar: uni023A
Encoding: 570 570 570
Width: 1426
Flags: W
TeX: 117 0 0 0
Fore
984.6 272 m 1,0,-1
 442.8 272 l 1,1,-1
 357.3 0 l 1,2,-1
 143.1 0 l 1,3,-1
 76.5 -74 l 1,4,-1
 9.90039 0 l 1,5,-1
 9 0 l 1,6,-1
 9 1 l 1,7,-1
 -25.2002 39 l 1,8,-1
 49.5 122 l 1,9,-1
 506.7 1493 l 1,10,-1
 919.8 1493 l 1,11,-1
 1017.9 1198 l 1,12,-1
 1350 1567 l 1,13,-1
 1451.7 1452 l 1,14,-1
 1073.7 1032 l 1,15,-1
 1417.5 0 l 1,16,-1
 1069.2 0 l 1,17,-1
 984.6 272 l 1,0,-1
579.6 711 m 1,18,-1
 778.5 932 l 1,19,-1
 713.7 1143 l 1,20,-1
 579.6 711 l 1,18,-1
638.1 549 m 1,21,-1
 897.3 549 l 1,22,-1
 830.7 763 l 1,23,-1
 638.1 549 l 1,21,-1
EndSplineSet
EndChar
StartChar: uni023B
Encoding: 571 571 571
Width: 1352
Flags: W
TeX: 117 0 0 0
Fore
39.5996 -74 m 1,0,-1
 -62.0996 39 l 1,1,-1
 188.1 317 l 1,2,3
 91.7998 495 91.7998 495 91.7998 745 c 0,4,5
 91.7998 1103 91.7998 1103 288 1312 c 0,6,7
 484.2 1520 484.2 1520 819.9 1520 c 0,8,9
 932.4 1520 932.4 1520 1035.9 1492 c 0,10,11
 1116 1470 1116 1470 1191.6 1432 c 1,12,-1
 1313.1 1567 l 1,13,-1
 1414.8 1452 l 1,14,-1
 1234.8 1252 l 1,15,-1
 1234.8 1100 l 1,16,17
 1191.6 1133 1191.6 1133 1149.3 1157 c 1,18,-1
 512.1 450 l 1,19,20
 531 413 531 413 556.2 382 c 0,21,22
 662.4 250 662.4 250 847.8 250 c 0,23,24
 951.3 250 951.3 250 1044.9 284 c 0,25,26
 1138.5 318 1138.5 318 1234.8 391 c 1,27,-1
 1234.8 82 l 1,28,29
 1139.4 27 1139.4 27 1035.9 -1 c 0,30,31
 932.4 -29 932.4 -29 819.9 -29 c 0,32,33
 484.2 -29 484.2 -29 288 180 c 2,34,-1
 278.1 190 l 1,35,-1
 39.5996 -74 l 1,0,-1
459 618 m 1,36,-1
 1001.7 1221 l 1,37,38
 927.9 1241 927.9 1241 847.8 1241 c 0,39,40
 662.4 1241 662.4 1241 556.2 1109 c 0,41,42
 450 977 450 977 450 745 c 0,43,44
 450 677 450 677 459 618 c 1,36,-1
EndSplineSet
EndChar
StartChar: uni023C
Encoding: 572 572 572
Width: 1092
Flags: W
TeX: 117 0 0 0
Fore
88.2002 -94 m 1,0,-1
 -12.5996 0 l 1,1,-1
 165.6 213 l 1,2,3
 79.2002 352 79.2002 352 79.2002 559 c 0,4,5
 79.2002 836 79.2002 836 233.1 992 c 0,6,7
 387 1147 387 1147 659.7 1147 c 0,8,9
 738.9 1147 738.9 1147 815.4 1132 c 0,10,11
 864.9 1122 864.9 1122 914.4 1105 c 1,12,-1
 1008 1217 l 1,13,-1
 1105.2 1116 l 1,14,-1
 969.3 954 l 1,15,-1
 969.3 793 l 1,16,17
 925.2 827 925.2 827 880.2 849 c 1,18,-1
 463.5 352 l 1,19,20
 475.2 332 475.2 332 489.6 314 c 0,21,22
 565.2 227 565.2 227 700.2 227 c 0,23,24
 775.8 227 775.8 227 844.2 252 c 0,25,26
 911.7 277 911.7 277 969.3 326 c 1,27,-1
 969.3 33 l 1,28,29
 893.7 2 893.7 2 815.4 -14 c 0,30,31
 738 -29 738 -29 659.7 -29 c 0,32,33
 405.9 -29 405.9 -29 255.6 105 c 1,34,-1
 88.2002 -94 l 1,0,-1
416.7 512 m 1,35,-1
 733.5 890 l 1,36,37
 716.4 891 716.4 891 700.2 891 c 0,38,39
 565.2 891 565.2 891 489.6 804 c 0,40,41
 414.9 716 414.9 716 414.9 559 c 0,42,43
 414.9 535 414.9 535 416.7 512 c 1,35,-1
EndSplineSet
EndChar
StartChar: uni023D
Encoding: 573 573 573
Width: 1174
Flags: W
TeX: 117 0 0 0
Fore
169.2 1493 m 1,0,-1
 515.7 1493 l 1,1,-1
 515.7 881 l 1,2,-1
 696.6 881 l 1,3,-1
 696.6 621 l 1,4,-1
 515.7 621 l 1,5,-1
 515.7 291 l 1,6,-1
 1124.1 291 l 1,7,-1
 1124.1 0 l 1,8,-1
 169.2 0 l 1,9,-1
 169.2 621 l 1,10,-1
 -2.7002 621 l 1,11,-1
 -2.7002 881 l 1,12,-1
 169.2 881 l 1,13,-1
 169.2 1493 l 1,0,-1
EndSplineSet
EndChar
StartChar: uni023E
Encoding: 574 574 574
Width: 1257
Flags: W
TeX: 117 0 0 0
Fore
9 1320 m 1,0,-1
 -109.8 1452 l 1,1,-1
 -8.09961 1567 l 1,2,-1
 58.5 1493 l 1,3,-1
 1247.4 1493 l 1,4,-1
 1247.4 1202 l 1,5,-1
 801.9 1202 l 1,6,-1
 801.9 667 l 1,7,-1
 1367.1 39 l 1,8,-1
 1265.4 -74 l 1,9,-1
 801.9 440 l 1,10,-1
 801.9 0 l 1,11,-1
 455.4 0 l 1,12,-1
 455.4 825 l 1,13,-1
 115.2 1202 l 1,14,-1
 9 1202 l 1,15,-1
 9 1320 l 1,0,-1
455.4 1052 m 1,16,-1
 455.4 1202 l 1,17,-1
 320.4 1202 l 1,18,-1
 455.4 1052 l 1,16,-1
EndSplineSet
EndChar
StartChar: uni023F
Encoding: 575 575 575
Width: 1097
Flags: W
TeX: 117 0 0 0
Fore
942.3 1085 m 1,0,-1
 942.3 813 l 1,1,2
 838.8 861 838.8 861 742.5 885 c 0,3,4
 646.2 909 646.2 909 560.7 909 c 0,5,6
 468.9 909 468.9 909 424.8 884 c 0,7,8
 379.8 858 379.8 858 379.8 805 c 0,9,10
 379.8 762 379.8 762 414 739 c 0,11,12
 447.3 716 447.3 716 534.6 705 c 2,13,-1
 591.3 696 l 2,14,15
 838.8 661 838.8 661 924.3 581 c 0,16,17
 1009.8 501 1009.8 501 1009.8 330 c 0,18,19
 1009.8 151 1009.8 151 891 61 c 0,20,21
 780.3 -23 780.3 -23 569.7 -29 c 1,22,-1
 751.5 -186 l 2,23,24
 833.4 -257 833.4 -257 903.6 -257 c 2,25,-1
 1097.1 -257 l 1,26,-1
 1097.1 -492 l 1,27,-1
 910.8 -492 l 2,28,29
 760.5 -492 760.5 -492 621 -372 c 2,30,-1
 414 -192 l 2,31,32
 175.5 14 175.5 14 120.6 38 c 2,33,-1
 110.7 41 l 1,34,-1
 110.7 313 l 1,35,36
 207 261 207 261 307.8 235 c 0,37,38
 409.5 209 409.5 209 513.9 209 c 0,39,40
 608.4 209 608.4 209 656.1 238 c 0,41,42
 703.8 267 703.8 267 703.8 324 c 0,43,44
 703.8 372 703.8 372 671.4 396 c 0,45,46
 639.9 418 639.9 418 540 432 c 2,47,-1
 483.3 440 l 2,48,49
 268.2 470 268.2 470 181.8 551 c 0,50,51
 95.4004 632 95.4004 632 95.4004 797 c 0,52,53
 95.4004 975 95.4004 975 205.2 1061 c 0,54,55
 315 1147 315 1147 541.8 1147 c 0,56,57
 630.9 1147 630.9 1147 729 1132 c 0,58,59
 827.1 1117 827.1 1117 942.3 1085 c 1,0,-1
EndSplineSet
EndChar
StartChar: uni0240
Encoding: 576 576 576
Width: 1072
Flags: W
TeX: 117 0 0 0
Fore
105.3 1120 m 1,0,-1
 984.6 1120 l 1,1,-1
 984.6 870 l 1,2,-1
 350.1 141 l 1,3,4
 441 83 441 83 544.5 -7 c 2,5,-1
 751.5 -186 l 2,6,7
 833.4 -257 833.4 -257 903.6 -257 c 2,8,-1
 1097.1 -257 l 1,9,-1
 1097.1 -492 l 1,10,-1
 910.8 -492 l 2,11,12
 760.5 -492 760.5 -492 621 -372 c 2,13,-1
 414 -192 l 2,14,15
 211.5 -17 211.5 -17 82.7998 0 c 1,16,-1
 82.7998 250 l 1,17,-1
 613.8 864 l 1,18,-1
 105.3 864 l 1,19,-1
 105.3 1120 l 1,0,-1
EndSplineSet
EndChar
StartChar: uni0241
Encoding: 577 577 577
Width: 1440
Flags: W
TeX: 117 0 0 0
Fore
458.1 1214 m 1,0,-1
 387.9 1214 387.9 1214 387 1213 c 2,13,14
 348.3 1213 348.3 1213 333 1193 c 0,15,16
 305.1 1156 305.1 1156 303.3 1109 c 0,17,18
 302.4 1095 302.4 1095 302.4 1062 c 1,19,-1
 72.9004 1062 l 1,20,-1
 72.9004 1139 l 2,21,22
 72.9004 1294 72.9004 1294 116.1 1359 c 0,23,24
 132.3 1383 132.3 1383 162 1412 c 0,25,26
 229.5 1475 229.5 1475 353.7 1488 c 0,27,28
 399.6 1493 399.6 1493 458.1 1493 c 2,29,-1
 834.3 1493 l 2,30,31
 1090.8 1493 1090.8 1493 1227.6 1366 c 0,32,33
 1365.3 1240 1365.3 1240 1365.3 1006 c 0,34,35
 1365.3 771 1365.3 771 1227.6 644 c 0,36,37
 1090.8 518 1090.8 518 834.3 518 c 2,38,-1
 804.6 518 l 1,39,-1
 804.6 0 l 1,40,-1
 458.1 0 l 1,41,-1
 458.1 797 l 1,1,-1
 797.4 797 l 2,2,3
 898.2 797 898.2 797 953.1 852 c 0,4,5
 1008 906 1008 906 1008 1006 c 0,6,7
 1008 1106 1008 1106 953.1 1160 c 0,8,9
 898.2 1214 898.2 1214 797.4 1214 c 2,10,-1
 458.1 1214 l 1,0,-1
EndSplineSet
EndChar
StartChar: uni0242
Encoding: 578 578 578
Width: 1132
Flags: W
TeX: 117 0 0 0
Fore
488.7 451 m 2,0,1
 588.6 451 588.6 451 644.4 506 c 0,2,3
 699.3 560 699.3 560 699.3 660 c 0,4,5
 699.3 760 699.3 760 644.4 814 c 0,6,7
 589.5 868 589.5 868 488.7 868 c 0,8,9
 369.9 868 369.9 868 369.9 716 c 1,10,-1
 77.4004 716 l 1,11,12
 81 1148 81 1148 489.6 1147 c 0,13,14
 780.3 1147 780.3 1147 918.9 1020 c 0,15,16
 1056.6 894 1056.6 894 1056.6 660 c 0,17,18
 1056.6 425 1056.6 425 918.9 298 c 0,19,20
 822.6 210 822.6 210 667.8 183 c 1,21,-1
 667.8 0 l 1,22,-1
 321.3 0 l 1,23,-1
 321.3 451 l 1,24,-1
 488.7 451 l 2,0,1
EndSplineSet
EndChar
StartChar: uni0243
Encoding: 579 579 579
Width: 1404
Flags: W
TeX: 0 0 0 0
AnchorPoint: "below" 720 0 basechar 0
AnchorPoint: "above" 720 1520 basechar 0
Fore
1041.3 799 m 1,0,1
 1152.9 763 1152.9 763 1214.1 666 c 128,-1,2
 1275.3 569 1275.3 569 1275.3 428 c 0,3,4
 1275.3 212 1275.3 212 1143.9 106 c 128,-1,5
 1012.5 0 1012.5 0 744.3 0 c 2,6,-1
 169.2 0 l 1,7,-1
 169.2 321 l 1,8,-1
 10.7998 321 l 1,9,-1
 10.7998 581 l 1,10,-1
 169.2 581 l 1,11,-1
 169.2 1493 l 1,12,-1
 689.4 1493 l 2,13,14
 969.3 1493 969.3 1493 1094.4 1399 c 0,15,16
 1220.4 1305 1220.4 1305 1220.4 1098 c 0,17,18
 1220.4 989 1220.4 989 1174.5 912 c 0,19,20
 1128.6 836 1128.6 836 1041.3 799 c 1,0,1
719.1 262 m 2,21,22
 823.5 262 823.5 262 876.6 311 c 0,23,24
 928.8 360 928.8 360 928.8 459 c 0,25,26
 928.8 556 928.8 556 876.6 604 c 0,27,28
 824.4 653 824.4 653 719.1 653 c 2,29,-1
 515.7 653 l 1,30,-1
 515.7 581 l 1,31,-1
 725.4 581 l 1,32,-1
 725.4 321 l 1,33,-1
 515.7 321 l 1,34,-1
 515.7 262 l 1,35,-1
 719.1 262 l 2,21,22
707.4 915 m 2,36,37
 789.3 915 789.3 915 831.6 955 c 128,-1,38
 873.9 995 873.9 995 873.9 1073 c 0,39,40
 873.9 1150 873.9 1150 831.6 1190 c 0,41,42
 789.3 1231 789.3 1231 707.4 1231 c 2,43,-1
 515.7 1231 l 1,44,-1
 515.7 915 l 1,45,-1
 707.4 915 l 2,36,37
EndSplineSet
EndChar
StartChar: uni0244
Encoding: 580 580 580
Width: 1496
Flags: W
TeX: 0 0 0 0
AnchorPoint: "above" 747 1520 basechar 0
AnchorPoint: "below" 747 0 basechar 0
Fore
169.2 1493 m 1,0,-1
 515.7 1493 l 1,1,-1
 515.7 890 l 1,2,-1
 981 890 l 1,3,-1
 981 1493 l 1,4,-1
 1327.5 1493 l 1,5,-1
 1327.5 890 l 1,6,-1
 1454.4 890 l 1,7,-1
 1454.4 696 l 1,8,-1
 1327.5 696 l 1,9,-1
 1327.5 598 l 2,10,11
 1327.5 281 1327.5 281 1184.4 126 c 128,-1,12
 1041.3 -29 1041.3 -29 747.9 -29 c 0,13,14
 455.4 -29 455.4 -29 312.3 126 c 128,-1,15
 169.2 281 169.2 281 169.2 598 c 2,16,-1
 169.2 696 l 1,17,-1
 43.2002 696 l 1,18,-1
 43.2002 890 l 1,19,-1
 169.2 890 l 1,20,-1
 169.2 1493 l 1,0,-1
981 696 m 1,21,-1
 515.7 696 l 1,22,-1
 515.7 598 l 2,23,24
 515.7 413 515.7 413 570.6 334 c 0,25,26
 624.6 254 624.6 254 747.9 254 c 0,27,28
 872.1 254 872.1 254 927 334 c 0,29,30
 981 413 981 413 981 598 c 2,31,-1
 981 696 l 1,21,-1
EndSplineSet
EndChar
StartChar: uni0245
Encoding: 581 581 581
Width: 1426
Flags: W
TeX: 0 0 0 0
AnchorPoint: "below" 713.7 0 basechar 0
AnchorPoint: "above" 713.7 1520 basechar 0
Fore
1417.5 0 m 1,0,-1
 1069.2 0 l 1,1,-1
 712.8 1102 l 1,2,-1
 357.3 0 l 1,3,-1
 9 0 l 1,4,-1
 506.7 1493 l 1,5,-1
 919.8 1493 l 1,6,-1
 1417.5 0 l 1,0,-1
EndSplineSet
EndChar
StartChar: uni0246
Encoding: 582 582 582
Width: 1259
Flags: W
TeX: 0 0 0 0
AnchorPoint: "below" 621 0 basechar 0
AnchorPoint: "above" 621 1520 basechar 0
Fore
936 1683 m 1,0,-1
 1090.8 1683 l 1,1,-1
 1039.31 1493 l 1,2,-1
 1104.3 1493 l 1,3,-1
 1104.3 1202 l 1,4,-1
 960.444 1202 l 1,5,-1
 885.104 924 l 1,6,-1
 1069.2 924 l 1,7,-1
 1069.2 633 l 1,8,-1
 806.24 633 l 1,9,-1
 713.555 291 l 1,10,-1
 1124.1 291 l 1,11,-1
 1124.1 0 l 1,12,-1
 634.691 0 l 1,13,-1
 583.2 -190 l 1,14,-1
 429.3 -190 l 1,15,-1
 480.701 -0 l 1,16,-1
 169.2 0 l 1,17,-1
 169.2 1493 l 1,18,-1
 884.6 1493 l 1,19,-1
 936 1683 l 1,0,-1
559.424 291 m 1,20,-1
 651.944 633 l 1,21,-1
 515.7 633 l 1,22,-1
 515.7 291 l 1,23,-1
 559.424 291 l 1,20,-1
730.669 924 m 1,24,-1
 805.876 1202 l 1,25,-1
 515.7 1202 l 1,26,-1
 515.7 924 l 1,27,-1
 730.669 924 l 1,24,-1
EndSplineSet
EndChar
StartChar: uni0247
Encoding: 583 583 583
Width: 1250
Flags: W
TeX: 0 0 0 0
AnchorPoint: "below" 656.1 0 basechar 0
AnchorPoint: "above" 656.1 1147 basechar 0
Fore
1161 563 m 2,0,-1
 1161 461 l 1,1,-1
 653.731 461 l 1,2,-1
 550.965 233.237 l 1,3,4
 607.648 209 607.648 209 685.8 209 c 0,5,6
 787.5 209 787.5 209 894.15 242.5 c 128,-1,7
 1000.8 276 1000.8 276 1113.3 344 c 1,8,-1
 1113.3 68 l 1,9,10
 999 20 999 20 884.7 -4.5 c 128,-1,11
 770.4 -29 770.4 -29 656.1 -29 c 0,12,13
 539.639 -29 539.639 -29 445.274 -1.00684 c 1,14,-1
 360 -190 l 1,15,-1
 206.1 -190 l 1,16,-1
 317.029 56.1807 l 1,17,18
 269.897 85.7188 269.897 85.7188 230.85 125.5 c 0,19,20
 79.2002 280 79.2002 280 79.2002 559 c 0,21,22
 79.2002 833 79.2002 833 228.15 990 c 128,-1,23
 377.1 1147 377.1 1147 638.1 1147 c 0,24,25
 724.881 1147 724.881 1147 798.995 1125.79 c 1,26,-1
 882 1310 l 1,27,-1
 1036.8 1310 l 1,28,-1
 927.216 1067.12 l 1,29,30
 976.806 1034.3 976.806 1034.3 1018.35 988 c 0,31,32
 1161 829 1161 829 1161 563 c 2,0,-1
599.022 682 m 1,33,-1
 697.24 899.969 l 1,34,35
 669.144 909 669.144 909 636.3 909 c 0,36,37
 542.7 909 542.7 909 484.2 850.5 c 128,-1,38
 425.7 792 425.7 792 411.3 682 c 1,39,-1
 599.022 682 l 1,33,-1
442.115 333.78 m 1,40,-1
 499.44 461 l 1,41,-1
 407.7 461 l 1,42,43
 414.634 386.326 414.634 386.326 442.115 333.78 c 1,40,-1
753.446 682 m 1,44,-1
 829.8 682 l 1,45,46
 829.8 749.35 829.8 749.35 806.453 799.479 c 1,47,-1
 753.446 682 l 1,44,-1
EndSplineSet
EndChar
